<svg version="1.1" xmlns="http://www.w3.org/2000/svg" viewBox="0 0 552.3331298828125 522.8668395996094" width="552.3331298828125" height="522.8668395996094">
  <!-- svg-source:excalidraw -->
  
  <defs>
    <style class="style-fonts">
      @font-face {
        font-family: "Virgil";
        src: url("https://excalidraw.com/Virgil.woff2");
      }
      @font-face {
        font-family: "Cascadia";
        src: url("https://excalidraw.com/Cascadia.woff2");
      }
      @font-face {
        font-family: "Assistant";
        src: url("https://app.excalidraw.com//dist/excalidraw-assets/Assistant-Regular.woff2");
      }
    </style>
    
  </defs>
  <rect x="0" y="0" width="552.3331298828125" height="522.8668395996094" fill="#ffffff"></rect><g stroke-linecap="round" transform="translate(222.33319091796875 213.33346557617188) rotate(0 37.33331298828125 36.000030517578125)"><path d="M6.82 15.2 C6.82 15.2, 6.82 15.2, 6.82 15.2 M6.82 15.2 C6.82 15.2, 6.82 15.2, 6.82 15.2 M1.31 27.64 C7.25 20.8, 13.2 13.95, 22.3 3.49 M1.31 27.64 C6.63 21.51, 11.95 15.39, 22.3 3.49 M1.05 34.03 C12.1 21.32, 23.15 8.61, 29.26 1.58 M1.05 34.03 C11.28 22.26, 21.51 10.49, 29.26 1.58 M0.78 40.43 C13.18 26.18, 25.57 11.92, 35.55 0.43 M0.78 40.43 C9.66 30.22, 18.54 20, 35.55 0.43 M1.83 45.32 C9.9 36.04, 17.97 26.76, 40.54 0.79 M1.83 45.32 C16.31 28.67, 30.78 12.02, 40.54 0.79 M3.54 49.45 C17.41 33.5, 31.27 17.55, 45.53 1.15 M3.54 49.45 C13.52 37.97, 23.5 26.5, 45.53 1.15 M5.25 53.59 C20.83 35.66, 36.41 17.74, 49.86 2.27 M5.25 53.59 C16.35 40.82, 27.45 28.05, 49.86 2.27 M7.61 56.97 C18.26 44.71, 28.92 32.46, 53.53 4.14 M7.61 56.97 C21.34 41.17, 35.07 25.38, 53.53 4.14 M9.97 60.35 C27.8 39.84, 45.62 19.33, 57.21 6.01 M9.97 60.35 C27.69 39.97, 45.4 19.59, 57.21 6.01 M12.99 62.97 C27.88 45.84, 42.76 28.72, 60.88 7.88 M12.99 62.97 C30.51 42.81, 48.03 22.66, 60.88 7.88 M16.01 65.59 C34.11 44.77, 52.21 23.96, 63.9 10.5 M16.01 65.59 C28.85 50.82, 41.7 36.04, 63.9 10.5 M19.69 67.46 C30.77 54.72, 41.85 41.97, 66.27 13.88 M19.69 67.46 C38 46.4, 56.31 25.34, 66.27 13.88 M23.36 69.33 C39.79 50.43, 56.22 31.53, 69.28 16.5 M23.36 69.33 C40.45 49.67, 57.54 30.02, 69.28 16.5 M27.04 71.2 C40.48 55.73, 53.93 40.26, 70.99 20.64 M27.04 71.2 C43.02 52.82, 59 34.44, 70.99 20.64 M32.02 71.56 C42.19 59.87, 52.35 48.18, 73.35 24.02 M32.02 71.56 C42.72 59.26, 53.41 46.96, 73.35 24.02 M37.01 71.92 C45.61 62.03, 54.21 52.14, 74.4 28.9 M37.01 71.92 C47.79 59.53, 58.56 47.13, 74.4 28.9 M42 72.28 C51.61 61.22, 61.22 50.17, 74.8 34.55 M42 72.28 C49.48 63.68, 56.96 55.07, 74.8 34.55 M48.95 70.38 C57.82 60.18, 66.68 49.98, 74.54 40.94 M48.95 70.38 C54.23 64.31, 59.5 58.24, 74.54 40.94 M57.22 66.97 C61.14 62.45, 65.06 57.94, 71.65 50.36 M57.22 66.97 C61.67 61.85, 66.12 56.73, 71.65 50.36" stroke="#ffa94d" stroke-width="0.5" fill="none"></path><path d="M74.67 36 C74.67 37.88, 74.51 39.78, 74.21 41.63 C73.9 43.49, 73.44 45.34, 72.84 47.12 C72.24 48.91, 71.48 50.67, 70.6 52.34 C69.71 54.02, 68.68 55.64, 67.54 57.16 C66.39 58.68, 65.11 60.13, 63.73 61.46 C62.36 62.78, 60.85 64.02, 59.28 65.12 C57.7 66.23, 56.02 67.22, 54.28 68.08 C52.55 68.93, 50.72 69.66, 48.87 70.24 C47.02 70.82, 45.1 71.26, 43.17 71.56 C41.25 71.85, 39.28 72, 37.33 72 C35.39 72, 33.42 71.85, 31.49 71.56 C29.57 71.26, 27.65 70.82, 25.8 70.24 C23.95 69.66, 22.12 68.93, 20.38 68.08 C18.65 67.22, 16.96 66.23, 15.39 65.12 C13.81 64.02, 12.31 62.78, 10.93 61.46 C9.56 60.13, 8.27 58.68, 7.13 57.16 C5.99 55.64, 4.95 54.02, 4.07 52.34 C3.19 50.67, 2.43 48.91, 1.83 47.12 C1.23 45.34, 0.76 43.49, 0.46 41.63 C0.16 39.78, 0 37.88, 0 36 C0 34.12, 0.16 32.22, 0.46 30.37 C0.76 28.51, 1.23 26.66, 1.83 24.88 C2.43 23.09, 3.19 21.33, 4.07 19.66 C4.95 17.98, 5.99 16.36, 7.13 14.84 C8.27 13.32, 9.56 11.87, 10.93 10.54 C12.31 9.22, 13.81 7.98, 15.39 6.88 C16.96 5.77, 18.65 4.78, 20.38 3.92 C22.12 3.07, 23.95 2.34, 25.8 1.76 C27.65 1.18, 29.57 0.74, 31.49 0.44 C33.42 0.15, 35.39 0, 37.33 0 C39.28 0, 41.25 0.15, 43.17 0.44 C45.1 0.74, 47.02 1.18, 48.87 1.76 C50.72 2.34, 52.55 3.07, 54.28 3.92 C56.02 4.78, 57.7 5.77, 59.28 6.88 C60.85 7.98, 62.36 9.22, 63.73 10.54 C65.11 11.87, 66.39 13.32, 67.54 14.84 C68.68 16.36, 69.71 17.98, 70.6 19.66 C71.48 21.33, 72.24 23.09, 72.84 24.88 C73.44 26.66, 73.9 28.51, 74.21 30.37 C74.51 32.22, 74.59 35.06, 74.67 36 C74.74 36.94, 74.74 35.06, 74.67 36" stroke="#000000" stroke-width="1" fill="none"></path></g><g transform="translate(240.64286512807655 240.17763039184786) rotate(0 19.125 9.199999999999989)"><text x="19.125" y="14.720312499999999" font-family="Helvetica, Segoe UI Emoji" font-size="16px" fill="#1e1e1e" text-anchor="middle" style="white-space: pre;" direction="ltr" dominant-baseline="alphabetic">when</text></g><g stroke-linecap="round" transform="translate(467.66650390625 129.0001220703125) rotate(0 37.33331298828125 36.000030517578125)"><path d="M6.82 15.2 C6.82 15.2, 6.82 15.2, 6.82 15.2 M6.82 15.2 C6.82 15.2, 6.82 15.2, 6.82 15.2 M1.31 27.64 C7.37 20.66, 13.43 13.69, 22.3 3.49 M1.31 27.64 C8.66 19.18, 16.02 10.71, 22.3 3.49 M1.05 34.03 C12.09 21.33, 23.14 8.62, 29.26 1.58 M1.05 34.03 C8.84 25.07, 16.63 16.11, 29.26 1.58 M0.78 40.43 C13.61 25.68, 26.43 10.93, 35.55 0.43 M0.78 40.43 C13.46 25.85, 26.13 11.27, 35.55 0.43 M1.83 45.32 C14.27 31.02, 26.7 16.72, 40.54 0.79 M1.83 45.32 C13.77 31.59, 25.71 17.85, 40.54 0.79 M3.54 49.45 C19.86 30.68, 36.17 11.91, 45.53 1.15 M3.54 49.45 C15.44 35.76, 27.34 22.07, 45.53 1.15 M5.25 53.59 C21.15 35.29, 37.06 16.99, 49.86 2.27 M5.25 53.59 C16.02 41.2, 26.79 28.8, 49.86 2.27 M7.61 56.97 C19.65 43.11, 31.7 29.26, 53.53 4.14 M7.61 56.97 C17.01 46.16, 26.4 35.35, 53.53 4.14 M9.97 60.35 C19.46 49.43, 28.95 38.51, 57.21 6.01 M9.97 60.35 C26.92 40.85, 43.87 21.35, 57.21 6.01 M12.99 62.97 C28.89 44.68, 44.79 26.39, 60.88 7.88 M12.99 62.97 C29.64 43.82, 46.28 24.68, 60.88 7.88 M16.01 65.59 C29.68 49.87, 43.35 34.14, 63.9 10.5 M16.01 65.59 C33.53 45.44, 51.05 25.29, 63.9 10.5 M19.69 67.46 C36.83 47.74, 53.98 28.01, 66.27 13.88 M19.69 67.46 C31.5 53.87, 43.31 40.28, 66.27 13.88 M23.36 69.33 C40.34 49.8, 57.32 30.27, 69.28 16.5 M23.36 69.33 C41.26 48.74, 59.17 28.14, 69.28 16.5 M27.04 71.2 C43.27 52.53, 59.5 33.86, 70.99 20.64 M27.04 71.2 C44 51.68, 60.97 32.16, 70.99 20.64 M32.02 71.56 C46.12 55.34, 60.23 39.12, 73.35 24.02 M32.02 71.56 C47.73 53.49, 63.44 35.42, 73.35 24.02 M37.01 71.92 C50.54 56.35, 64.08 40.79, 74.4 28.9 M37.01 71.92 C49.35 57.73, 61.69 43.54, 74.4 28.9 M42 72.28 C49.07 64.15, 56.14 56.01, 74.8 34.55 M42 72.28 C52.08 60.68, 62.17 49.07, 74.8 34.55 M48.95 70.38 C54.09 64.47, 59.23 58.56, 74.54 40.94 M48.95 70.38 C58.99 58.83, 69.03 47.29, 74.54 40.94 M57.22 66.97 C62.08 61.38, 66.94 55.79, 71.65 50.36 M57.22 66.97 C62.49 60.9, 67.76 54.84, 71.65 50.36" stroke="#f08c00" stroke-width="0.5" fill="none"></path><path d="M74.67 36 C74.67 37.88, 74.51 39.78, 74.21 41.63 C73.9 43.49, 73.44 45.34, 72.84 47.12 C72.24 48.91, 71.48 50.67, 70.6 52.34 C69.71 54.02, 68.68 55.64, 67.54 57.16 C66.39 58.68, 65.11 60.13, 63.73 61.46 C62.36 62.78, 60.85 64.02, 59.28 65.12 C57.7 66.23, 56.02 67.22, 54.28 68.08 C52.55 68.93, 50.72 69.66, 48.87 70.24 C47.02 70.82, 45.1 71.26, 43.17 71.56 C41.25 71.85, 39.28 72, 37.33 72 C35.39 72, 33.42 71.85, 31.49 71.56 C29.57 71.26, 27.65 70.82, 25.8 70.24 C23.95 69.66, 22.12 68.93, 20.38 68.08 C18.65 67.22, 16.96 66.23, 15.39 65.12 C13.81 64.02, 12.31 62.78, 10.93 61.46 C9.56 60.13, 8.27 58.68, 7.13 57.16 C5.99 55.64, 4.95 54.02, 4.07 52.34 C3.19 50.67, 2.43 48.91, 1.83 47.12 C1.23 45.34, 0.76 43.49, 0.46 41.63 C0.16 39.78, 0 37.88, 0 36 C0 34.12, 0.16 32.22, 0.46 30.37 C0.76 28.51, 1.23 26.66, 1.83 24.88 C2.43 23.09, 3.19 21.33, 4.07 19.66 C4.95 17.98, 5.99 16.36, 7.13 14.84 C8.27 13.32, 9.56 11.87, 10.93 10.54 C12.31 9.22, 13.81 7.98, 15.39 6.88 C16.96 5.77, 18.65 4.78, 20.38 3.92 C22.12 3.07, 23.95 2.34, 25.8 1.76 C27.65 1.18, 29.57 0.74, 31.49 0.44 C33.42 0.15, 35.39 0, 37.33 0 C39.28 0, 41.25 0.15, 43.17 0.44 C45.1 0.74, 47.02 1.18, 48.87 1.76 C50.72 2.34, 52.55 3.07, 54.28 3.92 C56.02 4.78, 57.7 5.77, 59.28 6.88 C60.85 7.98, 62.36 9.22, 63.73 10.54 C65.11 11.87, 66.39 13.32, 67.54 14.84 C68.68 16.36, 69.71 17.98, 70.6 19.66 C71.48 21.33, 72.24 23.09, 72.84 24.88 C73.44 26.66, 73.9 28.51, 74.21 30.37 C74.51 32.22, 74.59 35.06, 74.67 36 C74.74 36.94, 74.74 35.06, 74.67 36" stroke="#000000" stroke-width="1" fill="none"></path></g><g transform="translate(486.4253968663577 146.64428688598855) rotate(0 18.67578125 18.399999999999977)"><text x="18.67578125" y="14.720312499999999" font-family="Helvetica, Segoe UI Emoji" font-size="16px" fill="#1e1e1e" text-anchor="middle" style="white-space: pre;" direction="ltr" dominant-baseline="alphabetic">choic</text><text x="18.67578125" y="33.1203125" font-family="Helvetica, Segoe UI Emoji" font-size="16px" fill="#1e1e1e" text-anchor="middle" style="white-space: pre;" direction="ltr" dominant-baseline="alphabetic">e</text></g><g stroke-linecap="round" transform="translate(461.999755859375 294.0001220703125) rotate(0 37.33331298828125 36.000030517578125)"><path d="M6.82 15.2 C6.82 15.2, 6.82 15.2, 6.82 15.2 M6.82 15.2 C6.82 15.2, 6.82 15.2, 6.82 15.2 M1.31 27.64 C7.62 20.37, 13.93 13.11, 22.3 3.49 M1.31 27.64 C6.48 21.69, 11.65 15.74, 22.3 3.49 M1.05 34.03 C8.52 25.44, 15.99 16.84, 29.26 1.58 M1.05 34.03 C9.13 24.73, 17.22 15.42, 29.26 1.58 M0.78 40.43 C9.99 29.84, 19.19 19.26, 35.55 0.43 M0.78 40.43 C9.42 30.5, 18.05 20.57, 35.55 0.43 M1.83 45.32 C12.48 33.07, 23.13 20.82, 40.54 0.79 M1.83 45.32 C10.47 35.38, 19.11 25.44, 40.54 0.79 M3.54 49.45 C17.62 33.26, 31.69 17.07, 45.53 1.15 M3.54 49.45 C14.79 36.52, 26.03 23.58, 45.53 1.15 M5.25 53.59 C16.03 41.18, 26.82 28.77, 49.86 2.27 M5.25 53.59 C14.57 42.86, 23.89 32.14, 49.86 2.27 M7.61 56.97 C18.76 44.14, 29.91 31.32, 53.53 4.14 M7.61 56.97 C19.1 43.74, 30.6 30.52, 53.53 4.14 M9.97 60.35 C25.62 42.34, 41.27 24.34, 57.21 6.01 M9.97 60.35 C27.85 39.78, 45.72 19.22, 57.21 6.01 M12.99 62.97 C29.25 44.26, 45.51 25.56, 60.88 7.88 M12.99 62.97 C30.67 42.63, 48.35 22.29, 60.88 7.88 M16.01 65.59 C27.12 52.81, 38.24 40.03, 63.9 10.5 M16.01 65.59 C34.88 43.89, 53.75 22.18, 63.9 10.5 M19.69 67.46 C38.31 46.04, 56.93 24.62, 66.27 13.88 M19.69 67.46 C30.22 55.35, 40.75 43.24, 66.27 13.88 M23.36 69.33 C39.62 50.63, 55.87 31.93, 69.28 16.5 M23.36 69.33 C34.68 56.31, 46 43.29, 69.28 16.5 M27.04 71.2 C36.68 60.1, 46.33 49, 70.99 20.64 M27.04 71.2 C38.06 58.52, 49.08 45.84, 70.99 20.64 M32.02 71.56 C41.49 60.67, 50.96 49.78, 73.35 24.02 M32.02 71.56 C42.55 59.45, 53.08 47.34, 73.35 24.02 M37.01 71.92 C45.11 62.6, 53.21 53.28, 74.4 28.9 M37.01 71.92 C48.27 58.97, 59.52 46.02, 74.4 28.9 M42 72.28 C52.21 60.53, 62.42 48.79, 74.8 34.55 M42 72.28 C50.71 62.26, 59.41 52.25, 74.8 34.55 M48.95 70.38 C54.86 63.58, 60.77 56.78, 74.54 40.94 M48.95 70.38 C55.68 62.64, 62.41 54.9, 74.54 40.94 M57.22 66.97 C62.65 60.72, 68.08 54.47, 71.65 50.36 M57.22 66.97 C60.88 62.75, 64.55 58.53, 71.65 50.36" stroke="#f08c00" stroke-width="0.5" fill="none"></path><path d="M74.67 36 C74.67 37.88, 74.51 39.78, 74.21 41.63 C73.9 43.49, 73.44 45.34, 72.84 47.12 C72.24 48.91, 71.48 50.67, 70.6 52.34 C69.71 54.02, 68.68 55.64, 67.54 57.16 C66.39 58.68, 65.11 60.13, 63.73 61.46 C62.36 62.78, 60.85 64.02, 59.28 65.12 C57.7 66.23, 56.02 67.22, 54.28 68.08 C52.55 68.93, 50.72 69.66, 48.87 70.24 C47.02 70.82, 45.1 71.26, 43.17 71.56 C41.25 71.85, 39.28 72, 37.33 72 C35.39 72, 33.42 71.85, 31.49 71.56 C29.57 71.26, 27.65 70.82, 25.8 70.24 C23.95 69.66, 22.12 68.93, 20.38 68.08 C18.65 67.22, 16.96 66.23, 15.39 65.12 C13.81 64.02, 12.31 62.78, 10.93 61.46 C9.56 60.13, 8.27 58.68, 7.13 57.16 C5.99 55.64, 4.95 54.02, 4.07 52.34 C3.19 50.67, 2.43 48.91, 1.83 47.12 C1.23 45.34, 0.76 43.49, 0.46 41.63 C0.16 39.78, 0 37.88, 0 36 C0 34.12, 0.16 32.22, 0.46 30.37 C0.76 28.51, 1.23 26.66, 1.83 24.88 C2.43 23.09, 3.19 21.33, 4.07 19.66 C4.95 17.98, 5.99 16.36, 7.13 14.84 C8.27 13.32, 9.56 11.87, 10.93 10.54 C12.31 9.22, 13.81 7.98, 15.39 6.88 C16.96 5.77, 18.65 4.78, 20.38 3.92 C22.12 3.07, 23.95 2.34, 25.8 1.76 C27.65 1.18, 29.57 0.74, 31.49 0.44 C33.42 0.15, 35.39 0, 37.33 0 C39.28 0, 41.25 0.15, 43.17 0.44 C45.1 0.74, 47.02 1.18, 48.87 1.76 C50.72 2.34, 52.55 3.07, 54.28 3.92 C56.02 4.78, 57.7 5.77, 59.28 6.88 C60.85 7.98, 62.36 9.22, 63.73 10.54 C65.11 11.87, 66.39 13.32, 67.54 14.84 C68.68 16.36, 69.71 17.98, 70.6 19.66 C71.48 21.33, 72.24 23.09, 72.84 24.88 C73.44 26.66, 73.9 28.51, 74.21 30.37 C74.51 32.22, 74.59 35.06, 74.67 36 C74.74 36.94, 74.74 35.06, 74.67 36" stroke="#000000" stroke-width="1" fill="none"></path></g><g transform="translate(480.7586488194827 311.64428688598855) rotate(0 18.67578125 18.399999999999977)"><text x="18.67578125" y="14.720312499999999" font-family="Helvetica, Segoe UI Emoji" font-size="16px" fill="#1e1e1e" text-anchor="middle" style="white-space: pre;" direction="ltr" dominant-baseline="alphabetic">choic</text><text x="18.67578125" y="33.1203125" font-family="Helvetica, Segoe UI Emoji" font-size="16px" fill="#1e1e1e" text-anchor="middle" style="white-space: pre;" direction="ltr" dominant-baseline="alphabetic">e</text></g><g stroke-linecap="round"><g transform="translate(305.98052924928857 243.77077956595883) rotate(0 78.41933280927935 -31.240159644013772)"><path d="M0 0 C10.28 -7.07, 35.55 -32.02, 61.69 -42.44 C87.83 -52.85, 140.98 -59.14, 156.84 -62.48 M0 0 C10.28 -7.07, 35.55 -32.02, 61.69 -42.44 C87.83 -52.85, 140.98 -59.14, 156.84 -62.48" stroke="#1e1e1e" stroke-width="1" fill="none"></path></g><g transform="translate(305.98052924928857 243.77077956595883) rotate(0 78.41933280927935 -31.240159644013772)"><path d="M156.84 -62.48 L144.5 -53.96 L142.38 -66.46 L156.84 -62.48" stroke="none" stroke-width="0" fill="#1e1e1e" fill-rule="evenodd"></path><path d="M156.84 -62.48 C153.52 -60.19, 150.21 -57.9, 144.5 -53.96 M156.84 -62.48 C152.44 -59.44, 148.04 -56.4, 144.5 -53.96 M144.5 -53.96 C143.71 -58.62, 142.92 -63.27, 142.38 -66.46 M144.5 -53.96 C144.07 -56.49, 143.64 -59.01, 142.38 -66.46 M142.38 -66.46 C145.51 -65.59, 148.65 -64.73, 156.84 -62.48 M142.38 -66.46 C145.59 -65.57, 148.8 -64.69, 156.84 -62.48 M156.84 -62.48 C156.84 -62.48, 156.84 -62.48, 156.84 -62.48 M156.84 -62.48 C156.84 -62.48, 156.84 -62.48, 156.84 -62.48" stroke="#1e1e1e" stroke-width="1" fill="none"></path></g></g><mask></mask><g stroke-linecap="round"><g transform="translate(469.50767457839834 198.70621709963257) rotate(0 -79.41006267669798 27.351444851916597)"><path d="M0 0 C-12.53 5.99, -48.7 26.84, -75.17 35.96 C-101.64 45.08, -144.88 51.58, -158.82 54.7" stroke="#1e1e1e" stroke-width="1.5" fill="none" stroke-dasharray="1.5 7"></path></g><g transform="translate(469.50767457839834 198.70621709963257) rotate(0 -79.41006267669798 27.351444851916597)"><path d="M-158.82 54.7 L-146.67 45.91 L-144.27 58.35 L-158.82 54.7" stroke="none" stroke-width="0" fill="#1e1e1e" fill-rule="evenodd"></path><path d="M-158.82 54.7 C-154.68 51.71, -150.54 48.71, -146.67 45.91 M-146.67 45.91 C-145.91 49.85, -145.15 53.8, -144.27 58.35 M-144.27 58.35 C-147.8 57.47, -151.32 56.59, -158.82 54.7 M-158.82 54.7 C-158.82 54.7, -158.82 54.7, -158.82 54.7" stroke="#1e1e1e" stroke-width="1.5" fill="none"></path></g></g><mask></mask><g stroke-linecap="round"><g transform="translate(292.22154263737684 283.0539205477394) rotate(0 82.79345021585436 19.006408438350945)"><path d="M0 0 C17.02 1.49, 74.51 2.61, 102.11 8.95 C129.71 15.28, 155.01 33.17, 165.59 38.01 M0 0 C17.02 1.49, 74.51 2.61, 102.11 8.95 C129.71 15.28, 155.01 33.17, 165.59 38.01" stroke="#1e1e1e" stroke-width="1" fill="none"></path></g><g transform="translate(292.22154263737684 283.0539205477394) rotate(0 82.79345021585436 19.006408438350945)"><path d="M165.59 38.01 L150.62 37.03 L156.72 25.92 L165.59 38.01" stroke="none" stroke-width="0" fill="#1e1e1e" fill-rule="evenodd"></path><path d="M165.59 38.01 C160.62 37.69, 155.65 37.36, 150.62 37.03 M165.59 38.01 C161.98 37.78, 158.36 37.54, 150.62 37.03 M150.62 37.03 C152.92 32.84, 155.22 28.64, 156.72 25.92 M150.62 37.03 C152.1 34.34, 153.57 31.65, 156.72 25.92 M156.72 25.92 C160.07 30.49, 163.43 35.07, 165.59 38.01 M156.72 25.92 C160.05 30.47, 163.39 35.01, 165.59 38.01 M165.59 38.01 C165.59 38.01, 165.59 38.01, 165.59 38.01 M165.59 38.01 C165.59 38.01, 165.59 38.01, 165.59 38.01" stroke="#1e1e1e" stroke-width="1" fill="none"></path></g></g><mask></mask><g stroke-linecap="round"><g transform="translate(454.90926385651665 331.9099063577322) rotate(0 -85.08619758827518 -16.796518980686812)"><path d="M0 0 C-14.32 0.24, -57.55 7.68, -85.91 1.42 C-114.27 -4.83, -156.13 -31.02, -170.17 -37.51" stroke="#1e1e1e" stroke-width="1.5" fill="none" stroke-dasharray="1.5 7"></path></g><g transform="translate(454.90926385651665 331.9099063577322) rotate(0 -85.08619758827518 -16.796518980686812)"><path d="M-170.17 -37.51 L-155.19 -36.75 L-161.13 -25.54 L-170.17 -37.51" stroke="none" stroke-width="0" fill="#1e1e1e" fill-rule="evenodd"></path><path d="M-170.17 -37.51 C-166.13 -37.3, -162.09 -37.1, -155.19 -36.75 M-155.19 -36.75 C-157.14 -33.08, -159.08 -29.41, -161.13 -25.54 M-161.13 -25.54 C-164.69 -30.25, -168.25 -34.96, -170.17 -37.51 M-170.17 -37.51 C-170.17 -37.51, -170.17 -37.51, -170.17 -37.51" stroke="#1e1e1e" stroke-width="1.5" fill="none"></path></g></g><mask></mask><g stroke-linecap="round" transform="translate(10 10) rotate(0 37.33331298828125 36.000030517578125)"><path d="M6.82 15.2 C6.82 15.2, 6.82 15.2, 6.82 15.2 M6.82 15.2 C6.82 15.2, 6.82 15.2, 6.82 15.2 M1.31 27.64 C5.58 22.72, 9.86 17.8, 22.3 3.49 M1.31 27.64 C6.97 21.12, 12.64 14.6, 22.3 3.49 M1.05 34.03 C7.59 26.5, 14.14 18.97, 29.26 1.58 M1.05 34.03 C11.37 22.15, 21.7 10.27, 29.26 1.58 M0.78 40.43 C8.08 32.04, 15.37 23.65, 35.55 0.43 M0.78 40.43 C11.79 27.77, 22.8 15.11, 35.55 0.43 M1.83 45.32 C11.44 34.27, 21.04 23.23, 40.54 0.79 M1.83 45.32 C15.09 30.08, 28.34 14.83, 40.54 0.79 M3.54 49.45 C17.88 32.96, 32.22 16.46, 45.53 1.15 M3.54 49.45 C16.57 34.47, 29.6 19.48, 45.53 1.15 M5.25 53.59 C16.88 40.2, 28.52 26.82, 49.86 2.27 M5.25 53.59 C20.36 36.2, 35.48 18.81, 49.86 2.27 M7.61 56.97 C18.94 43.93, 30.27 30.9, 53.53 4.14 M7.61 56.97 C17 46.17, 26.38 35.37, 53.53 4.14 M9.97 60.35 C24.33 43.83, 38.69 27.31, 57.21 6.01 M9.97 60.35 C26.4 41.45, 42.82 22.55, 57.21 6.01 M12.99 62.97 C27.11 46.73, 41.23 30.49, 60.88 7.88 M12.99 62.97 C26.41 47.54, 39.82 32.1, 60.88 7.88 M16.01 65.59 C27.16 52.76, 38.32 39.93, 63.9 10.5 M16.01 65.59 C34.67 44.13, 53.32 22.67, 63.9 10.5 M19.69 67.46 C37.25 47.26, 54.81 27.06, 66.27 13.88 M19.69 67.46 C35.85 48.87, 52.01 30.28, 66.27 13.88 M23.36 69.33 C38.28 52.17, 53.2 35, 69.28 16.5 M23.36 69.33 C37.72 52.81, 52.08 36.3, 69.28 16.5 M27.04 71.2 C40.52 55.69, 54.01 40.18, 70.99 20.64 M27.04 71.2 C42.09 53.89, 57.14 36.57, 70.99 20.64 M32.02 71.56 C43.56 58.29, 55.11 45.01, 73.35 24.02 M32.02 71.56 C48.3 52.84, 64.57 34.12, 73.35 24.02 M37.01 71.92 C45.2 62.5, 53.39 53.07, 74.4 28.9 M37.01 71.92 C49.43 57.63, 61.86 43.34, 74.4 28.9 M42 72.28 C49.11 64.1, 56.23 55.91, 74.8 34.55 M42 72.28 C53.07 59.54, 64.14 46.81, 74.8 34.55 M48.95 70.38 C58.44 59.46, 67.93 48.54, 74.54 40.94 M48.95 70.38 C56.89 61.25, 64.82 52.12, 74.54 40.94 M57.22 66.97 C61.27 62.3, 65.32 57.64, 71.65 50.36 M57.22 66.97 C61.22 62.37, 65.21 57.77, 71.65 50.36" stroke="#ffa94d" stroke-width="0.5" fill="none"></path><path d="M74.67 36 C74.67 37.88, 74.51 39.78, 74.21 41.63 C73.9 43.49, 73.44 45.34, 72.84 47.12 C72.24 48.91, 71.48 50.67, 70.6 52.34 C69.71 54.02, 68.68 55.64, 67.54 57.16 C66.39 58.68, 65.11 60.13, 63.73 61.46 C62.36 62.78, 60.85 64.02, 59.28 65.12 C57.7 66.23, 56.02 67.22, 54.28 68.08 C52.55 68.93, 50.72 69.66, 48.87 70.24 C47.02 70.82, 45.1 71.26, 43.17 71.56 C41.25 71.85, 39.28 72, 37.33 72 C35.39 72, 33.42 71.85, 31.49 71.56 C29.57 71.26, 27.65 70.82, 25.8 70.24 C23.95 69.66, 22.12 68.93, 20.38 68.08 C18.65 67.22, 16.96 66.23, 15.39 65.12 C13.81 64.02, 12.31 62.78, 10.93 61.46 C9.56 60.13, 8.27 58.68, 7.13 57.16 C5.99 55.64, 4.95 54.02, 4.07 52.34 C3.19 50.67, 2.43 48.91, 1.83 47.12 C1.23 45.34, 0.76 43.49, 0.46 41.63 C0.16 39.78, 0 37.88, 0 36 C0 34.12, 0.16 32.22, 0.46 30.37 C0.76 28.51, 1.23 26.66, 1.83 24.88 C2.43 23.09, 3.19 21.33, 4.07 19.66 C4.95 17.98, 5.99 16.36, 7.13 14.84 C8.27 13.32, 9.56 11.87, 10.93 10.54 C12.31 9.22, 13.81 7.98, 15.39 6.88 C16.96 5.77, 18.65 4.78, 20.38 3.92 C22.12 3.07, 23.95 2.34, 25.8 1.76 C27.65 1.18, 29.57 0.74, 31.49 0.44 C33.42 0.15, 35.39 0, 37.33 0 C39.28 0, 41.25 0.15, 43.17 0.44 C45.1 0.74, 47.02 1.18, 48.87 1.76 C50.72 2.34, 52.55 3.07, 54.28 3.92 C56.02 4.78, 57.7 5.77, 59.28 6.88 C60.85 7.98, 62.36 9.22, 63.73 10.54 C65.11 11.87, 66.39 13.32, 67.54 14.84 C68.68 16.36, 69.71 17.98, 70.6 19.66 C71.48 21.33, 72.24 23.09, 72.84 24.88 C73.44 26.66, 73.9 28.51, 74.21 30.37 C74.51 32.22, 74.59 35.06, 74.67 36 C74.74 36.94, 74.74 35.06, 74.67 36" stroke="#000000" stroke-width="1" fill="none"></path></g><g transform="translate(31.4346742101078 36.84416481567598) rotate(0 16 9.199999999999989)"><text x="16" y="14.720312499999999" font-family="Helvetica, Segoe UI Emoji" font-size="16px" fill="#1e1e1e" text-anchor="middle" style="white-space: pre;" direction="ltr" dominant-baseline="alphabetic">from</text></g><g stroke-linecap="round" transform="translate(231.33331298828125 60.0001220703125) rotate(0 37.33331298828125 36.000030517578125)"><path d="M6.82 15.2 C6.82 15.2, 6.82 15.2, 6.82 15.2 M6.82 15.2 C6.82 15.2, 6.82 15.2, 6.82 15.2 M1.31 27.64 C7.99 19.95, 14.67 12.26, 22.3 3.49 M1.31 27.64 C7.29 20.75, 13.28 13.86, 22.3 3.49 M1.05 34.03 C8.89 25.01, 16.74 15.98, 29.26 1.58 M1.05 34.03 C9.49 24.32, 17.93 14.61, 29.26 1.58 M0.78 40.43 C10.96 28.72, 21.14 17.01, 35.55 0.43 M0.78 40.43 C10.15 29.65, 19.53 18.87, 35.55 0.43 M1.83 45.32 C10.88 34.92, 19.92 24.52, 40.54 0.79 M1.83 45.32 C16.56 28.38, 31.28 11.44, 40.54 0.79 M3.54 49.45 C15.59 35.6, 27.63 21.74, 45.53 1.15 M3.54 49.45 C12.94 38.64, 22.34 27.83, 45.53 1.15 M5.25 53.59 C21.27 35.15, 37.29 16.72, 49.86 2.27 M5.25 53.59 C18.33 38.54, 31.42 23.48, 49.86 2.27 M7.61 56.97 C20.64 41.98, 33.67 26.99, 53.53 4.14 M7.61 56.97 C20.34 42.33, 33.06 27.69, 53.53 4.14 M9.97 60.35 C20.69 48.02, 31.4 35.7, 57.21 6.01 M9.97 60.35 C26.63 41.18, 43.29 22.02, 57.21 6.01 M12.99 62.97 C27.07 46.77, 41.16 30.57, 60.88 7.88 M12.99 62.97 C26.4 47.55, 39.81 32.12, 60.88 7.88 M16.01 65.59 C32.13 47.05, 48.24 28.52, 63.9 10.5 M16.01 65.59 C30.15 49.33, 44.29 33.06, 63.9 10.5 M19.69 67.46 C36.32 48.33, 52.95 29.2, 66.27 13.88 M19.69 67.46 C29.23 56.48, 38.78 45.49, 66.27 13.88 M23.36 69.33 C37.9 52.61, 52.43 35.89, 69.28 16.5 M23.36 69.33 C36.2 54.57, 49.03 39.8, 69.28 16.5 M27.04 71.2 C41.98 54.01, 56.92 36.82, 70.99 20.64 M27.04 71.2 C42.28 53.67, 57.52 36.14, 70.99 20.64 M32.02 71.56 C45.38 56.2, 58.73 40.84, 73.35 24.02 M32.02 71.56 C43.84 57.97, 55.66 44.37, 73.35 24.02 M37.01 71.92 C49.66 57.37, 62.3 42.83, 74.4 28.9 M37.01 71.92 C49.03 58.09, 61.06 44.26, 74.4 28.9 M42 72.28 C49.89 63.2, 57.79 54.12, 74.8 34.55 M42 72.28 C52.39 60.33, 62.78 48.37, 74.8 34.55 M48.95 70.38 C55.99 62.28, 63.03 54.18, 74.54 40.94 M48.95 70.38 C55.8 62.5, 62.65 54.63, 74.54 40.94 M57.22 66.97 C61.29 62.29, 65.35 57.61, 71.65 50.36 M57.22 66.97 C62.94 60.39, 68.66 53.81, 71.65 50.36" stroke="#ffa94d" stroke-width="0.5" fill="none"></path><path d="M74.67 36 C74.67 37.88, 74.51 39.78, 74.21 41.63 C73.9 43.49, 73.44 45.34, 72.84 47.12 C72.24 48.91, 71.48 50.67, 70.6 52.34 C69.71 54.02, 68.68 55.64, 67.54 57.16 C66.39 58.68, 65.11 60.13, 63.73 61.46 C62.36 62.78, 60.85 64.02, 59.28 65.12 C57.7 66.23, 56.02 67.22, 54.28 68.08 C52.55 68.93, 50.72 69.66, 48.87 70.24 C47.02 70.82, 45.1 71.26, 43.17 71.56 C41.25 71.85, 39.28 72, 37.33 72 C35.39 72, 33.42 71.85, 31.49 71.56 C29.57 71.26, 27.65 70.82, 25.8 70.24 C23.95 69.66, 22.12 68.93, 20.38 68.08 C18.65 67.22, 16.96 66.23, 15.39 65.12 C13.81 64.02, 12.31 62.78, 10.93 61.46 C9.56 60.13, 8.27 58.68, 7.13 57.16 C5.99 55.64, 4.95 54.02, 4.07 52.34 C3.19 50.67, 2.43 48.91, 1.83 47.12 C1.23 45.34, 0.76 43.49, 0.46 41.63 C0.16 39.78, 0 37.88, 0 36 C0 34.12, 0.16 32.22, 0.46 30.37 C0.76 28.51, 1.23 26.66, 1.83 24.88 C2.43 23.09, 3.19 21.33, 4.07 19.66 C4.95 17.98, 5.99 16.36, 7.13 14.84 C8.27 13.32, 9.56 11.87, 10.93 10.54 C12.31 9.22, 13.81 7.98, 15.39 6.88 C16.96 5.77, 18.65 4.78, 20.38 3.92 C22.12 3.07, 23.95 2.34, 25.8 1.76 C27.65 1.18, 29.57 0.74, 31.49 0.44 C33.42 0.15, 35.39 0, 37.33 0 C39.28 0, 41.25 0.15, 43.17 0.44 C45.1 0.74, 47.02 1.18, 48.87 1.76 C50.72 2.34, 52.55 3.07, 54.28 3.92 C56.02 4.78, 57.7 5.77, 59.28 6.88 C60.85 7.98, 62.36 9.22, 63.73 10.54 C65.11 11.87, 66.39 13.32, 67.54 14.84 C68.68 16.36, 69.71 17.98, 70.6 19.66 C71.48 21.33, 72.24 23.09, 72.84 24.88 C73.44 26.66, 73.9 28.51, 74.21 30.37 C74.51 32.22, 74.59 35.06, 74.67 36 C74.74 36.94, 74.74 35.06, 74.67 36" stroke="#000000" stroke-width="1" fill="none"></path></g><g transform="translate(262.09611219838905 86.84428688598848) rotate(0 6.671875 9.199999999999989)"><text x="6.671875" y="14.720312499999999" font-family="Helvetica, Segoe UI Emoji" font-size="16px" fill="#1e1e1e" text-anchor="middle" style="white-space: pre;" direction="ltr" dominant-baseline="alphabetic">to</text></g><g stroke-linecap="round"><g transform="translate(70.23288983113434 84.53078997075193) rotate(0 76.86837147233172 66.79315877342657)"><path d="M0 0 C14.91 9.47, 63.81 34.54, 89.43 56.8 C115.06 79.07, 143.02 120.79, 153.74 133.59 M0 0 C14.91 9.47, 63.81 34.54, 89.43 56.8 C115.06 79.07, 143.02 120.79, 153.74 133.59" stroke="#1e1e1e" stroke-width="1" fill="none"></path></g><g transform="translate(70.23288983113434 84.53078997075193) rotate(0 76.86837147233172 66.79315877342657)"><path d="M153.74 133.59 L140.44 126.63 L150.52 118.94 L153.74 133.59" stroke="none" stroke-width="0" fill="#1e1e1e" fill-rule="evenodd"></path><path d="M153.74 133.59 C149.6 131.42, 145.45 129.25, 140.44 126.63 M153.74 133.59 C149.84 131.55, 145.94 129.51, 140.44 126.63 M140.44 126.63 C143.84 124.04, 147.23 121.45, 150.52 118.94 M140.44 126.63 C143.99 123.92, 147.54 121.21, 150.52 118.94 M150.52 118.94 C151.19 121.98, 151.86 125.03, 153.74 133.59 M150.52 118.94 C151.69 124.26, 152.86 129.58, 153.74 133.59 M153.74 133.59 C153.74 133.59, 153.74 133.59, 153.74 133.59 M153.74 133.59 C153.74 133.59, 153.74 133.59, 153.74 133.59" stroke="#1e1e1e" stroke-width="1" fill="none"></path></g></g><mask></mask><g stroke-linecap="round"><g transform="translate(94.33331298828125 48.000091552734375) rotate(0 66.47444794897717 15.938422090765016)"><path d="M0 0 C12.89 1.14, 55.18 1.54, 77.33 6.85 C99.49 12.17, 123.68 27.71, 132.95 31.88 M0 0 C12.89 1.14, 55.18 1.54, 77.33 6.85 C99.49 12.17, 123.68 27.71, 132.95 31.88" stroke="#1e1e1e" stroke-width="1" fill="none"></path></g><g transform="translate(94.33331298828125 48.000091552734375) rotate(0 66.47444794897717 15.938422090765016)"><path d="M132.95 31.88 L117.96 31.18 L123.85 19.95 L132.95 31.88" stroke="none" stroke-width="0" fill="#1e1e1e" fill-rule="evenodd"></path><path d="M132.95 31.88 C129.52 31.72, 126.09 31.56, 117.96 31.18 M132.95 31.88 C127.27 31.61, 121.6 31.35, 117.96 31.18 M117.96 31.18 C120.17 26.98, 122.37 22.78, 123.85 19.95 M117.96 31.18 C120.29 26.75, 122.61 22.32, 123.85 19.95 M123.85 19.95 C126.76 23.77, 129.67 27.58, 132.95 31.88 M123.85 19.95 C126.84 23.88, 129.84 27.8, 132.95 31.88 M132.95 31.88 C132.95 31.88, 132.95 31.88, 132.95 31.88 M132.95 31.88 C132.95 31.88, 132.95 31.88, 132.95 31.88" stroke="#1e1e1e" stroke-width="1" fill="none"></path></g></g><mask></mask><g stroke-linecap="round"><g transform="translate(223.29283110710958 97.56994460936426) rotate(0 -65.14644607113291 -20.11823951659619)"><path d="M0 0 C-10.38 -1.33, -40.58 -1.28, -62.29 -7.99 C-84.01 -14.69, -118.96 -34.86, -130.29 -40.24" stroke="#1e1e1e" stroke-width="1.5" fill="none" stroke-dasharray="1.5 7"></path></g><g transform="translate(223.29283110710958 97.56994460936426) rotate(0 -65.14644607113291 -20.11823951659619)"><path d="M-130.29 -40.24 L-115.31 -39.61 L-121.14 -28.36 L-130.29 -40.24" stroke="none" stroke-width="0" fill="#1e1e1e" fill-rule="evenodd"></path><path d="M-130.29 -40.24 C-127.18 -40.11, -124.06 -39.98, -115.31 -39.61 M-115.31 -39.61 C-116.48 -37.34, -117.66 -35.06, -121.14 -28.36 M-121.14 -28.36 C-123.61 -31.56, -126.08 -34.77, -130.29 -40.24 M-130.29 -40.24 C-130.29 -40.24, -130.29 -40.24, -130.29 -40.24" stroke="#1e1e1e" stroke-width="1.5" fill="none"></path></g></g><mask></mask><g stroke-linecap="round"><g transform="translate(217.00006103515625 224.00009155273438) rotate(0 -77.3333740234375 -67.99996948242188)"><path d="M0 0 C-17.33 -10.89, -78.22 -42.67, -104 -65.33 C-129.78 -88, -146.22 -124.22, -154.67 -136" stroke="#1e1e1e" stroke-width="1.5" fill="none" stroke-dasharray="1.5 7"></path></g><g transform="translate(217.00006103515625 224.00009155273438) rotate(0 -77.3333740234375 -67.99996948242188)"><path d="M-154.67 -136 L-142.2 -127.66 L-153.05 -121.09 L-154.67 -136" stroke="none" stroke-width="0" fill="#1e1e1e" fill-rule="evenodd"></path><path d="M-154.67 -136 C-150.37 -133.12, -146.07 -130.25, -142.2 -127.66 M-142.2 -127.66 C-146.31 -125.17, -150.42 -122.68, -153.05 -121.09 M-153.05 -121.09 C-153.46 -124.94, -153.88 -128.79, -154.67 -136 M-154.67 -136 C-154.67 -136, -154.67 -136, -154.67 -136" stroke="#1e1e1e" stroke-width="1.5" fill="none"></path></g></g><mask></mask><g stroke-linecap="round"><g transform="translate(79.6666259765625 469.3335266113281) rotate(0 51.333251953125 -1.3333282470703125)"><path d="M0 0 C17.11 -0.44, 85.56 -2.22, 102.67 -2.67 M0 0 C17.11 -0.44, 85.56 -2.22, 102.67 -2.67" stroke="#1e1e1e" stroke-width="1" fill="none"></path></g></g><mask></mask><g transform="translate(13.6666259765625 459.33349609375) rotate(0 26.68359375 9.199999999999989)"><text x="0" y="14.720312499999999" font-family="Helvetica, Segoe UI Emoji" font-size="16px" fill="#1e1e1e" text-anchor="start" style="white-space: pre;" direction="ltr" dominant-baseline="alphabetic">request</text></g><g stroke-linecap="round"><g transform="translate(85 504.46687011718745) rotate(0 51.333251953125 -1.3333282470703125)"><path d="M0 0 C17.11 -0.44, 85.56 -2.22, 102.67 -2.67" stroke="#1e1e1e" stroke-width="1.5" fill="none" stroke-dasharray="1.5 7"></path></g></g><mask></mask><g transform="translate(19 494.46683959960933) rotate(0 17.33984375 9.200000000000045)"><text x="0" y="14.720312499999999" font-family="Helvetica, Segoe UI Emoji" font-size="16px" fill="#1e1e1e" text-anchor="start" style="white-space: pre;" direction="ltr" dominant-baseline="alphabetic">reply</text></g><g stroke-linecap="round" transform="translate(353.9998779296875 440.66680908203125) rotate(0 37.33331298828125 36.000030517578125)"><path d="M6.82 15.2 C6.82 15.2, 6.82 15.2, 6.82 15.2 M6.82 15.2 C6.82 15.2, 6.82 15.2, 6.82 15.2 M1.31 27.64 C5.71 22.57, 10.11 17.51, 22.3 3.49 M1.31 27.64 C8.87 18.93, 16.44 10.23, 22.3 3.49 M1.05 34.03 C10.65 22.98, 20.26 11.93, 29.26 1.58 M1.05 34.03 C9.14 24.72, 17.23 15.41, 29.26 1.58 M0.78 40.43 C9.53 30.37, 18.28 20.31, 35.55 0.43 M0.78 40.43 C13.42 25.9, 26.05 11.36, 35.55 0.43 M1.83 45.32 C11.48 34.22, 21.13 23.13, 40.54 0.79 M1.83 45.32 C15.15 30, 28.47 14.68, 40.54 0.79 M3.54 49.45 C12.65 38.98, 21.75 28.51, 45.53 1.15 M3.54 49.45 C13.41 38.1, 23.28 26.75, 45.53 1.15 M5.25 53.59 C18.98 37.79, 32.71 22, 49.86 2.27 M5.25 53.59 C18.63 38.19, 32.02 22.79, 49.86 2.27 M7.61 56.97 C18.59 44.33, 29.57 31.7, 53.53 4.14 M7.61 56.97 C19.9 42.83, 32.18 28.7, 53.53 4.14 M9.97 60.35 C28.19 39.39, 46.41 18.43, 57.21 6.01 M9.97 60.35 C25.85 42.08, 41.73 23.81, 57.21 6.01 M12.99 62.97 C26.1 47.89, 39.21 32.81, 60.88 7.88 M12.99 62.97 C31.26 41.96, 49.52 20.94, 60.88 7.88 M16.01 65.59 C29.15 50.47, 42.3 35.35, 63.9 10.5 M16.01 65.59 C33.34 45.66, 50.66 25.73, 63.9 10.5 M19.69 67.46 C33.57 51.49, 47.45 35.52, 66.27 13.88 M19.69 67.46 C34.83 50.05, 49.97 32.63, 66.27 13.88 M23.36 69.33 C36.55 54.16, 49.74 38.99, 69.28 16.5 M23.36 69.33 C33.21 58, 43.06 46.67, 69.28 16.5 M27.04 71.2 C40.71 55.47, 54.39 39.73, 70.99 20.64 M27.04 71.2 C39.13 57.29, 51.22 43.39, 70.99 20.64 M32.02 71.56 C42.73 59.24, 53.44 46.92, 73.35 24.02 M32.02 71.56 C42.76 59.21, 53.5 46.85, 73.35 24.02 M37.01 71.92 C49.51 57.55, 62 43.17, 74.4 28.9 M37.01 71.92 C45.84 61.76, 54.67 51.6, 74.4 28.9 M42 72.28 C53.38 59.18, 64.77 46.09, 74.8 34.55 M42 72.28 C54.85 57.5, 67.7 42.71, 74.8 34.55 M48.95 70.38 C54.32 64.2, 59.7 58.02, 74.54 40.94 M48.95 70.38 C55.13 63.28, 61.3 56.17, 74.54 40.94 M57.22 66.97 C60.54 63.15, 63.86 59.33, 71.65 50.36 M57.22 66.97 C60.57 63.11, 63.92 59.25, 71.65 50.36" stroke="#f08c00" stroke-width="0.5" fill="none"></path><path d="M74.67 36 C74.67 37.88, 74.51 39.78, 74.21 41.63 C73.9 43.49, 73.44 45.34, 72.84 47.12 C72.24 48.91, 71.48 50.67, 70.6 52.34 C69.71 54.02, 68.68 55.64, 67.54 57.16 C66.39 58.68, 65.11 60.13, 63.73 61.46 C62.36 62.78, 60.85 64.02, 59.28 65.12 C57.7 66.23, 56.02 67.22, 54.28 68.08 C52.55 68.93, 50.72 69.66, 48.87 70.24 C47.02 70.82, 45.1 71.26, 43.17 71.56 C41.25 71.85, 39.28 72, 37.33 72 C35.39 72, 33.42 71.85, 31.49 71.56 C29.57 71.26, 27.65 70.82, 25.8 70.24 C23.95 69.66, 22.12 68.93, 20.38 68.08 C18.65 67.22, 16.96 66.23, 15.39 65.12 C13.81 64.02, 12.31 62.78, 10.93 61.46 C9.56 60.13, 8.27 58.68, 7.13 57.16 C5.99 55.64, 4.95 54.02, 4.07 52.34 C3.19 50.67, 2.43 48.91, 1.83 47.12 C1.23 45.34, 0.76 43.49, 0.46 41.63 C0.16 39.78, 0 37.88, 0 36 C0 34.12, 0.16 32.22, 0.46 30.37 C0.76 28.51, 1.23 26.66, 1.83 24.88 C2.43 23.09, 3.19 21.33, 4.07 19.66 C4.95 17.98, 5.99 16.36, 7.13 14.84 C8.27 13.32, 9.56 11.87, 10.93 10.54 C12.31 9.22, 13.81 7.98, 15.39 6.88 C16.96 5.77, 18.65 4.78, 20.38 3.92 C22.12 3.07, 23.95 2.34, 25.8 1.76 C27.65 1.18, 29.57 0.74, 31.49 0.44 C33.42 0.15, 35.39 0, 37.33 0 C39.28 0, 41.25 0.15, 43.17 0.44 C45.1 0.74, 47.02 1.18, 48.87 1.76 C50.72 2.34, 52.55 3.07, 54.28 3.92 C56.02 4.78, 57.7 5.77, 59.28 6.88 C60.85 7.98, 62.36 9.22, 63.73 10.54 C65.11 11.87, 66.39 13.32, 67.54 14.84 C68.68 16.36, 69.71 17.98, 70.6 19.66 C71.48 21.33, 72.24 23.09, 72.84 24.88 C73.44 26.66, 73.9 28.51, 74.21 30.37 C74.51 32.22, 74.59 35.06, 74.67 36 C74.74 36.94, 74.74 35.06, 74.67 36" stroke="#000000" stroke-width="1" fill="none"></path></g><g transform="translate(370.9814271397952 458.3109738977073) rotate(0 20.453125 18.399999999999977)"><text x="20.453125" y="14.720312499999999" font-family="Helvetica, Segoe UI Emoji" font-size="16px" fill="#1e1e1e" text-anchor="middle" style="white-space: pre;" direction="ltr" dominant-baseline="alphabetic">other</text><text x="20.453125" y="33.1203125" font-family="Helvetica, Segoe UI Emoji" font-size="16px" fill="#1e1e1e" text-anchor="middle" style="white-space: pre;" direction="ltr" dominant-baseline="alphabetic">whise</text></g><g stroke-linecap="round"><g transform="translate(358.33331298828125 444.0000915527344) rotate(0 -54 -74)"><path d="M0 0 C-11.78 -11.33, -52.67 -43.33, -70.67 -68 C-88.67 -92.67, -101.78 -134.67, -108 -148" stroke="#1e1e1e" stroke-width="1.5" fill="none" stroke-dasharray="1.5 7"></path></g><g transform="translate(358.33331298828125 444.0000915527344) rotate(0 -54 -74)"><path d="M-108 -148 L-97.06 -137.74 L-108.83 -133.02 L-108 -148" stroke="none" stroke-width="0" fill="#1e1e1e" fill-rule="evenodd"></path><path d="M-108 -148 C-104.88 -145.07, -101.75 -142.14, -97.06 -137.74 M-97.06 -137.74 C-99.44 -136.78, -101.82 -135.83, -108.83 -133.02 M-108.83 -133.02 C-108.51 -138.79, -108.19 -144.55, -108 -148 M-108 -148 C-108 -148, -108 -148, -108 -148" stroke="#1e1e1e" stroke-width="1.5" fill="none"></path></g></g><mask></mask><g stroke-linecap="round"><g transform="translate(264.99993896484375 296.0000915527344) rotate(0 54 72)"><path d="M0 0 C9.78 10, 40.67 36, 58.67 60 C76.67 84, 99.78 130, 108 144 M0 0 C9.78 10, 40.67 36, 58.67 60 C76.67 84, 99.78 130, 108 144" stroke="#1e1e1e" stroke-width="1" fill="none"></path></g><g transform="translate(264.99993896484375 296.0000915527344) rotate(0 54 72)"><path d="M108 144 L95.89 135.14 L107 129.03 L108 144" stroke="none" stroke-width="0" fill="#1e1e1e" fill-rule="evenodd"></path><path d="M108 144 C104.63 141.53, 101.25 139.06, 95.89 135.14 M108 144 C103.69 140.84, 99.37 137.69, 95.89 135.14 M95.89 135.14 C99.9 132.94, 103.91 130.73, 107 129.03 M95.89 135.14 C98.18 133.88, 100.48 132.62, 107 129.03 M107 129.03 C107.29 133.31, 107.57 137.59, 108 144 M107 129.03 C107.37 134.6, 107.74 140.17, 108 144 M108 144 C108 144, 108 144, 108 144 M108 144 C108 144, 108 144, 108 144" stroke="#1e1e1e" stroke-width="1" fill="none"></path></g></g><mask></mask></svg>