<svg version="1.1" xmlns="http://www.w3.org/2000/svg" viewBox="0 0 998.2817088522017 521.2304619699717" width="998.2817088522017" height="521.2304619699717">
  <!-- svg-source:excalidraw -->
  
  <defs>
    <style class="style-fonts">
      @font-face {
        font-family: "Virgil";
        src: url("https://excalidraw.com/Virgil.woff2");
      }
      @font-face {
        font-family: "Cascadia";
        src: url("https://excalidraw.com/Cascadia.woff2");
      }
      @font-face {
        font-family: "Assistant";
        src: url("https://app.excalidraw.com//dist/excalidraw-assets/Assistant-Regular.woff2");
      }
    </style>
    
  </defs>
  <rect x="0" y="0" width="998.2817088522017" height="521.2304619699717" fill="#ffffff"></rect><g stroke-linecap="round" transform="translate(25.620576039701746 293.33983696997166) rotate(0 481.33056640625 91.61376953125)"><path d="M0 0 C0 0, 0 0, 0 0 M0 0 C0 0, 0 0, 0 0 M-0.26 6.4 C1.15 4.77, 2.57 3.14, 4.99 0.36 M-0.26 6.4 C1 4.94, 2.27 3.49, 4.99 0.36 M0.13 12.04 C3.53 8.13, 6.93 4.22, 10.63 -0.03 M0.13 12.04 C2.42 9.41, 4.7 6.79, 10.63 -0.03 M-0.13 18.44 C4.7 12.89, 9.52 7.34, 15.62 0.33 M-0.13 18.44 C5.66 11.78, 11.44 5.13, 15.62 0.33 M0.27 24.08 C8.46 14.66, 16.65 5.23, 21.26 -0.07 M0.27 24.08 C6.32 17.11, 12.38 10.14, 21.26 -0.07 M0 30.48 C8 21.28, 16 12.07, 26.25 0.29 M0 30.48 C6.21 23.34, 12.43 16.19, 26.25 0.29 M-0.26 36.88 C8.87 26.38, 17.99 15.88, 31.89 -0.1 M-0.26 36.88 C7.05 28.47, 14.37 20.06, 31.89 -0.1 M0.14 42.52 C11.58 29.36, 23.02 16.2, 36.88 0.26 M0.14 42.52 C8.96 32.38, 17.78 22.23, 36.88 0.26 M-0.12 48.92 C11.35 35.72, 22.83 22.51, 42.52 -0.14 M-0.12 48.92 C13.53 33.21, 27.18 17.51, 42.52 -0.14 M0.27 54.56 C18.38 33.73, 36.48 12.9, 47.51 0.22 M0.27 54.56 C18.36 33.75, 36.46 12.93, 47.51 0.22 M0.01 60.96 C19.75 38.25, 39.48 15.55, 53.15 -0.17 M0.01 60.96 C16.84 41.6, 33.67 22.24, 53.15 -0.17 M-0.25 67.36 C16.63 47.94, 33.5 28.53, 58.14 0.19 M-0.25 67.36 C22.24 41.49, 44.73 15.61, 58.14 0.19 M0.14 73 C17.77 52.72, 35.4 32.45, 63.78 -0.21 M0.14 73 C21.22 48.75, 42.3 24.5, 63.78 -0.21 M-0.12 79.4 C14.2 62.93, 28.51 46.46, 68.77 0.15 M-0.12 79.4 C26.06 49.28, 52.25 19.16, 68.77 0.15 M0.28 85.04 C17.55 65.16, 34.83 45.29, 74.41 -0.24 M0.28 85.04 C25.62 55.88, 50.97 26.72, 74.41 -0.24 M0.01 91.44 C18.26 70.45, 36.51 49.46, 79.4 0.12 M0.01 91.44 C17.12 71.76, 34.22 52.09, 79.4 0.12 M-0.25 97.84 C29.42 63.7, 59.09 29.57, 85.04 -0.28 M-0.25 97.84 C24.56 69.3, 49.37 40.76, 85.04 -0.28 M0.15 103.48 C23.18 76.98, 46.22 50.48, 90.03 0.08 M0.15 103.48 C31.87 66.98, 63.6 30.48, 90.03 0.08 M-0.11 109.88 C27.71 77.86, 55.54 45.85, 95.67 -0.31 M-0.11 109.88 C36.71 67.52, 73.53 25.16, 95.67 -0.31 M0.28 115.52 C30.32 80.97, 60.35 46.42, 100.66 0.05 M0.28 115.52 C37.27 72.96, 74.27 30.41, 100.66 0.05 M0.02 121.92 C41.58 74.11, 83.14 26.3, 106.3 -0.34 M0.02 121.92 C41.78 73.88, 83.53 25.85, 106.3 -0.34 M-0.24 128.32 C42.32 79.35, 84.89 30.38, 111.29 0.02 M-0.24 128.32 C27.86 95.99, 55.96 63.66, 111.29 0.02 M0.15 133.96 C39.69 88.48, 79.22 43, 116.27 0.38 M0.15 133.96 C40.87 87.11, 81.6 40.27, 116.27 0.38 M-0.11 140.36 C28.88 107.01, 57.87 73.66, 121.92 -0.02 M-0.11 140.36 C37.38 97.23, 74.86 54.11, 121.92 -0.02 M0.29 146 C37.09 103.66, 73.89 61.33, 126.91 0.34 M0.29 146 C32.73 108.67, 65.18 71.34, 126.91 0.34 M0.02 152.4 C28.1 120.1, 56.17 87.81, 132.55 -0.05 M0.02 152.4 C33.45 113.95, 66.87 75.5, 132.55 -0.05 M-0.24 158.8 C48.6 102.61, 97.45 46.42, 137.54 0.31 M-0.24 158.8 C51.04 99.81, 102.31 40.83, 137.54 0.31 M0.16 164.44 C51.69 105.16, 103.22 45.88, 143.18 -0.09 M0.16 164.44 C45.79 111.94, 91.43 59.44, 143.18 -0.09 M-0.1 170.84 C45.24 118.67, 90.59 66.5, 148.17 0.27 M-0.1 170.84 C48.08 115.41, 96.26 59.98, 148.17 0.27 M0.29 176.48 C53.98 114.71, 107.68 52.95, 153.81 -0.12 M0.29 176.48 C54.62 113.98, 108.96 51.47, 153.81 -0.12 M0.03 182.88 C44.39 131.85, 88.75 80.82, 158.8 0.24 M0.03 182.88 C32.63 145.38, 65.22 107.88, 158.8 0.24 M4.36 183.99 C61.65 118.09, 118.94 52.18, 164.44 -0.16 M4.36 183.99 C55.09 125.64, 105.82 67.28, 164.44 -0.16 M10 183.6 C53.18 133.93, 96.36 84.25, 169.43 0.2 M10 183.6 C52.71 134.46, 95.43 85.33, 169.43 0.2 M14.99 183.96 C74.76 115.2, 134.52 46.45, 175.07 -0.19 M14.99 183.96 C76.18 113.56, 137.37 43.17, 175.07 -0.19 M20.63 183.56 C58.38 140.14, 96.13 96.71, 180.06 0.17 M20.63 183.56 C57.55 141.1, 94.46 98.63, 180.06 0.17 M25.62 183.92 C72.96 129.46, 120.3 75, 185.7 -0.23 M25.62 183.92 C63.77 140.04, 101.92 96.15, 185.7 -0.23 M31.26 183.53 C94.21 111.12, 157.15 38.72, 190.69 0.13 M31.26 183.53 C91.7 114.01, 152.13 44.49, 190.69 0.13 M36.25 183.89 C73.96 140.51, 111.67 97.13, 196.33 -0.26 M36.25 183.89 C98.27 112.54, 160.3 41.19, 196.33 -0.26 M41.89 183.49 C93.45 124.19, 145 64.88, 201.32 0.1 M41.89 183.49 C82.92 136.3, 123.95 89.1, 201.32 0.1 M46.88 183.85 C81.18 144.39, 115.49 104.93, 206.96 -0.3 M46.88 183.85 C86.27 138.54, 125.66 93.23, 206.96 -0.3 M52.52 183.46 C94.28 135.42, 136.04 87.39, 211.95 0.06 M52.52 183.46 C112.69 114.25, 172.85 45.04, 211.95 0.06 M57.51 183.82 C99.82 135.14, 142.14 86.47, 217.59 -0.33 M57.51 183.82 C96.68 138.76, 135.85 93.7, 217.59 -0.33 M63.15 183.42 C96.76 144.76, 130.37 106.1, 222.58 0.03 M63.15 183.42 C113.24 125.81, 163.32 68.2, 222.58 0.03 M68.14 183.78 C120.8 123.2, 173.47 62.62, 228.22 -0.36 M68.14 183.78 C120.62 123.41, 173.1 63.04, 228.22 -0.36 M73.78 183.39 C110.67 140.96, 147.56 98.52, 233.21 0 M73.78 183.39 C106.75 145.47, 139.71 107.55, 233.21 0 M78.77 183.75 C136.57 117.26, 194.37 50.77, 238.19 0.36 M78.77 183.75 C119.29 137.14, 159.8 90.53, 238.19 0.36 M83.76 184.11 C139.12 120.43, 194.47 56.75, 243.84 -0.04 M83.76 184.11 C125.12 136.53, 166.48 88.95, 243.84 -0.04 M89.4 183.72 C126.1 141.49, 162.81 99.27, 248.82 0.32 M89.4 183.72 C136.64 129.38, 183.87 75.04, 248.82 0.32 M94.39 184.08 C132.38 140.37, 170.37 96.67, 254.47 -0.07 M94.39 184.08 C132.2 140.58, 170.01 97.08, 254.47 -0.07 M100.03 183.68 C133.22 145.51, 166.4 107.33, 259.45 0.29 M100.03 183.68 C154.4 121.14, 208.77 58.59, 259.45 0.29 M105.02 184.04 C161.05 119.58, 217.08 55.12, 265.1 -0.11 M105.02 184.04 C164.49 115.63, 223.96 47.22, 265.1 -0.11 M110.66 183.65 C155.85 131.66, 201.04 79.68, 270.08 0.25 M110.66 183.65 C172.7 112.27, 234.75 40.9, 270.08 0.25 M115.65 184.01 C177.92 112.38, 240.18 40.75, 275.73 -0.14 M115.65 184.01 C157.21 136.2, 198.77 88.39, 275.73 -0.14 M121.29 183.61 C161.8 137.01, 202.31 90.41, 280.71 0.22 M121.29 183.61 C162.03 136.74, 202.78 89.87, 280.71 0.22 M126.28 183.97 C161.52 143.43, 196.76 102.89, 286.36 -0.18 M126.28 183.97 C183.9 117.69, 241.52 51.4, 286.36 -0.18 M131.92 183.58 C168.45 141.56, 204.97 99.55, 291.34 0.18 M131.92 183.58 C174.83 134.22, 217.74 84.86, 291.34 0.18 M136.91 183.94 C196.22 115.71, 255.52 47.49, 296.99 -0.21 M136.91 183.94 C184.29 129.44, 231.67 74.93, 296.99 -0.21 M142.55 183.54 C194.89 123.33, 247.23 63.12, 301.97 0.15 M142.55 183.54 C202 115.15, 261.45 46.76, 301.97 0.15 M147.54 183.9 C200.02 123.53, 252.51 63.15, 307.62 -0.25 M147.54 183.9 C204.4 118.5, 261.25 53.09, 307.62 -0.25 M153.18 183.51 C214.18 113.34, 275.17 43.18, 312.6 0.11 M153.18 183.51 C188.88 142.44, 224.57 101.38, 312.6 0.11 M158.17 183.87 C196.76 139.48, 235.35 95.09, 318.25 -0.28 M158.17 183.87 C220.47 112.2, 282.77 40.53, 318.25 -0.28 M163.81 183.47 C201.07 140.61, 238.33 97.75, 323.23 0.08 M163.81 183.47 C210.56 129.69, 257.32 75.91, 323.23 0.08 M168.8 183.83 C203.99 143.35, 239.18 102.87, 328.88 -0.31 M168.8 183.83 C219 126.08, 269.21 68.32, 328.88 -0.31 M174.44 183.44 C211.81 140.46, 249.17 97.47, 333.86 0.05 M174.44 183.44 C232.82 116.29, 291.19 49.13, 333.86 0.05 M179.43 183.8 C217.02 140.55, 254.62 97.3, 339.51 -0.35 M179.43 183.8 C212.76 145.45, 246.1 107.11, 339.51 -0.35 M185.07 183.41 C240.59 119.54, 296.1 55.68, 344.49 0.01 M185.07 183.41 C223.63 139.05, 262.18 94.7, 344.49 0.01 M190.06 183.77 C224.77 143.83, 259.48 103.9, 349.48 0.37 M190.06 183.77 C224.61 144.01, 259.17 104.26, 349.48 0.37 M195.7 183.37 C235.53 137.55, 275.37 91.73, 355.12 -0.02 M195.7 183.37 C232.94 140.53, 270.19 97.69, 355.12 -0.02 M200.69 183.73 C258.25 117.52, 315.81 51.3, 360.11 0.34 M200.69 183.73 C240.07 138.43, 279.45 93.12, 360.11 0.34 M205.68 184.09 C241.66 142.7, 277.64 101.3, 365.75 -0.06 M205.68 184.09 C248.71 134.59, 291.74 85.08, 365.75 -0.06 M211.32 183.7 C246.12 143.67, 280.92 103.63, 370.74 0.3 M211.32 183.7 C254.52 134, 297.72 84.3, 370.74 0.3 M216.31 184.06 C259.44 134.43, 302.58 84.81, 376.38 -0.09 M216.31 184.06 C278.56 112.44, 340.82 40.82, 376.38 -0.09 M221.95 183.66 C254.45 146.28, 286.94 108.89, 381.37 0.27 M221.95 183.66 C257.75 142.48, 293.55 101.3, 381.37 0.27 M226.94 184.02 C289.58 111.96, 352.22 39.9, 387.01 -0.13 M226.94 184.02 C266.86 138.09, 306.78 92.17, 387.01 -0.13 M232.58 183.63 C279.31 129.87, 326.04 76.12, 392 0.23 M232.58 183.63 C281.64 127.18, 330.71 70.74, 392 0.23 M237.57 183.99 C286.97 127.15, 336.38 70.31, 397.64 -0.16 M237.57 183.99 C272.75 143.51, 307.94 103.03, 397.64 -0.16 M243.21 183.59 C294.61 124.47, 346 65.34, 402.63 0.2 M243.21 183.59 C288.6 131.38, 333.99 79.16, 402.63 0.2 M248.2 183.95 C304.34 119.36, 360.49 54.77, 408.27 -0.2 M248.2 183.95 C293.62 131.69, 339.05 79.44, 408.27 -0.2 M253.84 183.56 C299.9 130.57, 345.96 77.58, 413.26 0.16 M253.84 183.56 C314.99 113.22, 376.13 42.87, 413.26 0.16 M258.83 183.92 C316.11 118.02, 373.39 52.13, 418.9 -0.23 M258.83 183.92 C313.09 121.5, 367.35 59.07, 418.9 -0.23 M264.47 183.52 C304.47 137.51, 344.47 91.5, 423.89 0.13 M264.47 183.52 C327.68 110.81, 390.89 38.09, 423.89 0.13 M269.46 183.88 C330.45 113.72, 391.45 43.55, 429.53 -0.26 M269.46 183.88 C317.02 129.16, 364.59 74.44, 429.53 -0.26 M275.1 183.49 C311.35 141.78, 347.61 100.08, 434.52 0.1 M275.1 183.49 C335.65 113.84, 396.2 44.18, 434.52 0.1 M280.09 183.85 C341.31 113.42, 402.53 43, 440.16 -0.3 M280.09 183.85 C341.57 113.12, 403.06 42.38, 440.16 -0.3 M285.73 183.46 C333.32 128.71, 380.91 73.96, 445.15 0.06 M285.73 183.46 C342.13 118.57, 398.54 53.68, 445.15 0.06 M290.72 183.82 C344.35 122.11, 397.99 60.41, 450.79 -0.33 M290.72 183.82 C329.09 139.67, 367.46 95.53, 450.79 -0.33 M296.36 183.42 C345.02 127.44, 393.68 71.46, 455.78 0.03 M296.36 183.42 C328.71 146.2, 361.06 108.99, 455.78 0.03 M301.35 183.78 C353.04 124.32, 404.72 64.86, 461.42 -0.37 M301.35 183.78 C336.23 143.65, 371.11 103.53, 461.42 -0.37 M306.99 183.39 C362.7 119.3, 418.42 55.2, 466.41 -0.01 M306.99 183.39 C366.87 114.5, 426.75 45.61, 466.41 -0.01 M311.98 183.75 C350.37 139.58, 388.76 95.42, 471.4 0.35 M311.98 183.75 C357.68 131.17, 403.38 78.6, 471.4 0.35 M316.96 184.11 C364.04 129.95, 411.12 75.8, 477.04 -0.04 M316.96 184.11 C378.5 113.32, 440.03 42.53, 477.04 -0.04 M322.61 183.71 C369.58 129.68, 416.55 75.64, 482.03 0.32 M322.61 183.71 C374.91 123.55, 427.2 63.39, 482.03 0.32 M327.59 184.07 C369.68 135.66, 411.76 87.25, 487.67 -0.08 M327.59 184.07 C376.56 127.75, 425.52 71.42, 487.67 -0.08 M333.24 183.68 C381.25 128.44, 429.26 73.21, 492.66 0.28 M333.24 183.68 C371.21 139.99, 409.18 96.31, 492.66 0.28 M338.22 184.04 C392.75 121.31, 447.28 58.58, 498.3 -0.11 M338.22 184.04 C383.15 132.36, 428.08 80.67, 498.3 -0.11 M343.87 183.64 C405.74 112.47, 467.61 41.29, 503.29 0.25 M343.87 183.64 C380.1 141.97, 416.33 100.29, 503.29 0.25 M348.85 184 C392.55 133.73, 436.25 83.46, 508.93 -0.15 M348.85 184 C383.03 144.69, 417.2 105.38, 508.93 -0.15 M354.5 183.61 C401.38 129.67, 448.27 75.74, 513.92 0.21 M354.5 183.61 C405.43 125.02, 456.36 66.42, 513.92 0.21 M359.48 183.97 C418.16 116.47, 476.84 48.97, 519.56 -0.18 M359.48 183.97 C403.21 133.67, 446.93 83.37, 519.56 -0.18 M365.13 183.57 C407.97 134.29, 450.8 85.01, 524.55 0.18 M365.13 183.57 C405.49 137.14, 445.86 90.7, 524.55 0.18 M370.11 183.93 C432.37 112.32, 494.63 40.7, 530.19 -0.22 M370.11 183.93 C432.94 111.67, 495.76 39.4, 530.19 -0.22 M375.76 183.54 C435.14 115.23, 494.52 46.91, 535.18 0.14 M375.76 183.54 C436.46 113.71, 497.16 43.88, 535.18 0.14 M380.74 183.9 C423.73 134.45, 466.72 84.99, 540.82 -0.25 M380.74 183.9 C439.7 116.08, 498.66 48.26, 540.82 -0.25 M386.39 183.5 C446.47 114.39, 506.56 45.27, 545.81 0.11 M386.39 183.5 C445.15 115.91, 503.91 48.31, 545.81 0.11 M391.37 183.86 C454.59 111.15, 517.8 38.43, 551.45 -0.28 M391.37 183.86 C449.27 117.26, 507.16 50.66, 551.45 -0.28 M397.02 183.47 C439.15 135, 481.29 86.53, 556.44 0.08 M397.02 183.47 C444.4 128.97, 491.78 74.46, 556.44 0.08 M402 183.83 C452.95 125.22, 503.9 66.61, 562.08 -0.32 M402 183.83 C465.65 110.62, 529.29 37.4, 562.08 -0.32 M407.65 183.44 C459.95 123.27, 512.25 63.1, 567.07 0.04 M407.65 183.44 C465.22 117.21, 522.79 50.98, 567.07 0.04 M412.63 183.8 C452.66 137.75, 492.69 91.71, 572.71 -0.35 M412.63 183.8 C455.07 134.98, 497.51 86.16, 572.71 -0.35 M418.28 183.4 C461.71 133.43, 505.15 83.47, 577.7 0.01 M418.28 183.4 C477.1 115.73, 535.93 48.06, 577.7 0.01 M423.26 183.76 C481.04 117.3, 538.82 50.83, 582.69 0.37 M423.26 183.76 C457.93 143.89, 492.59 104.01, 582.69 0.37 M428.25 184.12 C478.31 126.54, 528.36 68.96, 588.33 -0.03 M428.25 184.12 C467.23 139.28, 506.2 94.45, 588.33 -0.03 M433.89 183.73 C479.9 130.8, 525.91 77.87, 593.32 0.33 M433.89 183.73 C477.21 133.89, 520.53 84.06, 593.32 0.33 M438.88 184.09 C482.89 133.47, 526.89 82.84, 598.96 -0.06 M438.88 184.09 C490.32 124.91, 541.76 65.74, 598.96 -0.06 M444.52 183.69 C480.02 142.86, 515.52 102.02, 603.95 0.3 M444.52 183.69 C493.83 126.97, 543.14 70.25, 603.95 0.3 M449.51 184.05 C496.92 129.51, 544.33 74.97, 609.59 -0.1 M449.51 184.05 C490.07 137.39, 530.63 90.74, 609.59 -0.1 M455.15 183.66 C490.18 143.37, 525.21 103.07, 614.58 0.26 M455.15 183.66 C515.01 114.81, 574.86 45.95, 614.58 0.26 M460.14 184.02 C512.09 124.26, 564.04 64.49, 620.22 -0.13 M460.14 184.02 C508.88 127.96, 557.61 71.89, 620.22 -0.13 M465.78 183.62 C512.93 129.39, 560.07 75.17, 625.21 0.23 M465.78 183.62 C526.3 114.01, 586.82 44.39, 625.21 0.23 M470.77 183.98 C505.82 143.67, 540.87 103.35, 630.85 -0.17 M470.77 183.98 C511.35 137.31, 551.93 90.63, 630.85 -0.17 M476.41 183.59 C528.64 123.52, 580.86 63.44, 635.84 0.19 M476.41 183.59 C539.42 111.11, 602.42 38.63, 635.84 0.19 M481.4 183.95 C521.31 138.04, 561.22 92.13, 641.48 -0.2 M481.4 183.95 C528.38 129.9, 575.36 75.86, 641.48 -0.2 M487.04 183.55 C543.35 118.78, 599.65 54.01, 646.47 0.16 M487.04 183.55 C544.41 117.57, 601.77 51.58, 646.47 0.16 M492.03 183.91 C555.49 110.91, 618.95 37.91, 652.11 -0.23 M492.03 183.91 C545.1 122.87, 598.17 61.82, 652.11 -0.23 M497.68 183.52 C540.93 133.76, 584.19 83.99, 657.1 0.13 M497.68 183.52 C557.45 114.75, 617.23 45.98, 657.1 0.13 M502.66 183.88 C543.02 137.45, 583.38 91.02, 662.74 -0.27 M502.66 183.88 C548.87 130.72, 595.08 77.56, 662.74 -0.27 M508.31 183.49 C562.8 120.8, 617.29 58.12, 667.73 0.09 M508.31 183.49 C541.2 145.64, 574.1 107.79, 667.73 0.09 M513.29 183.85 C564.37 125.09, 615.45 66.33, 673.37 -0.3 M513.29 183.85 C545.33 146.99, 577.37 110.13, 673.37 -0.3 M518.94 183.45 C564.41 131.14, 609.88 78.83, 678.36 0.06 M518.94 183.45 C580.1 113.08, 641.27 42.72, 678.36 0.06 M523.92 183.81 C573.7 126.55, 623.47 69.29, 684 -0.34 M523.92 183.81 C574.38 125.77, 624.84 67.72, 684 -0.34 M529.57 183.42 C590.66 113.13, 651.76 42.85, 688.99 0.02 M529.57 183.42 C577.51 128.27, 625.45 73.12, 688.99 0.02 M534.55 183.78 C574.94 137.31, 615.33 90.85, 694.63 -0.37 M534.55 183.78 C598.12 110.65, 661.69 37.52, 694.63 -0.37 M540.2 183.38 C600.52 113.99, 660.85 44.59, 699.62 -0.01 M540.2 183.38 C590.46 125.56, 640.72 67.74, 699.62 -0.01 M545.18 183.74 C605.55 114.29, 665.93 44.84, 704.6 0.35 M545.18 183.74 C580.78 142.8, 616.37 101.85, 704.6 0.35 M550.17 184.1 C610.07 115.2, 669.97 46.29, 710.25 -0.05 M550.17 184.1 C590.08 138.19, 629.99 92.28, 710.25 -0.05 M555.81 183.71 C593.52 140.33, 631.24 96.94, 715.23 0.31 M555.81 183.71 C601.26 131.43, 646.71 79.15, 715.23 0.31 M560.8 184.07 C614.43 122.37, 668.06 60.68, 720.88 -0.08 M560.8 184.07 C607.02 130.9, 653.24 77.73, 720.88 -0.08 M566.44 183.67 C627.55 113.38, 688.65 43.09, 725.86 0.28 M566.44 183.67 C612.36 130.85, 658.29 78.02, 725.86 0.28 M571.43 184.03 C633.27 112.9, 695.11 41.76, 731.51 -0.12 M571.43 184.03 C616.82 131.81, 662.22 79.59, 731.51 -0.12 M577.07 183.64 C622.86 130.96, 668.66 78.28, 736.5 0.24 M577.07 183.64 C617.21 137.47, 657.34 91.3, 736.5 0.24 M582.06 184 C632.37 126.12, 682.69 68.24, 742.14 -0.15 M582.06 184 C621.75 138.34, 661.44 92.68, 742.14 -0.15 M587.7 183.6 C624 141.85, 660.29 100.1, 747.13 0.21 M587.7 183.6 C621.14 145.14, 654.58 106.67, 747.13 0.21 M592.69 183.96 C635.32 134.93, 677.94 85.89, 752.77 -0.19 M592.69 183.96 C634.31 136.09, 675.92 88.21, 752.77 -0.19 M598.33 183.57 C661.27 111.17, 724.21 38.77, 757.76 0.18 M598.33 183.57 C647.72 126.76, 697.11 69.94, 757.76 0.18 M603.32 183.93 C643.4 137.82, 683.49 91.71, 763.4 -0.22 M603.32 183.93 C661.25 117.29, 719.18 50.65, 763.4 -0.22 M608.96 183.54 C671.1 112.06, 733.23 40.58, 768.39 0.14 M608.96 183.54 C658.96 126.03, 708.95 68.52, 768.39 0.14 M613.95 183.9 C651.69 140.47, 689.44 97.05, 774.03 -0.25 M613.95 183.9 C655.56 136.03, 697.18 88.16, 774.03 -0.25 M619.59 183.5 C671.35 123.96, 723.1 64.43, 779.02 0.11 M619.59 183.5 C666.93 129.04, 714.27 74.59, 779.02 0.11 M624.58 183.86 C665 137.36, 705.42 90.87, 784.66 -0.29 M624.58 183.86 C660.52 142.52, 696.46 101.18, 784.66 -0.29 M630.22 183.47 C681.63 124.32, 733.04 65.18, 789.65 0.07 M630.22 183.47 C685.98 119.33, 741.73 55.19, 789.65 0.07 M635.21 183.83 C681.88 130.14, 728.54 76.46, 795.29 -0.32 M635.21 183.83 C697.63 112.02, 760.05 40.21, 795.29 -0.32 M640.85 183.43 C675.48 143.59, 710.12 103.75, 800.28 0.04 M640.85 183.43 C684.83 132.84, 728.81 82.24, 800.28 0.04 M645.84 183.79 C678.62 146.08, 711.4 108.37, 805.92 -0.36 M645.84 183.79 C686.62 136.88, 727.4 89.97, 805.92 -0.36 M651.48 183.4 C691.94 136.86, 732.4 90.31, 810.91 0 M651.48 183.4 C698.25 129.59, 745.02 75.79, 810.91 0 M656.47 183.76 C689.17 146.13, 721.88 108.51, 815.89 0.36 M656.47 183.76 C717.27 113.81, 778.08 43.86, 815.89 0.36 M661.46 184.12 C723.56 112.67, 785.67 41.23, 821.54 -0.03 M661.46 184.12 C714.97 122.56, 768.48 61, 821.54 -0.03 M667.1 183.72 C725.52 116.52, 783.93 49.32, 826.52 0.33 M667.1 183.72 C714.37 129.34, 761.65 74.96, 826.52 0.33 M672.09 184.08 C733.97 112.89, 795.85 41.71, 832.17 -0.07 M672.09 184.08 C727.27 120.6, 782.46 57.12, 832.17 -0.07 M677.73 183.69 C729.28 124.39, 780.83 65.09, 837.15 0.29 M677.73 183.69 C740.03 112.02, 802.32 40.36, 837.15 0.29 M682.72 184.05 C735.11 123.78, 787.51 63.5, 842.8 -0.1 M682.72 184.05 C744.33 113.17, 805.94 42.3, 842.8 -0.1 M688.36 183.65 C747.6 115.5, 806.84 47.35, 847.78 0.26 M688.36 183.65 C723.25 143.52, 758.13 103.39, 847.78 0.26 M693.35 184.01 C741.18 128.99, 789.01 73.96, 853.43 -0.14 M693.35 184.01 C746.01 123.43, 798.67 62.85, 853.43 -0.14 M698.99 183.62 C757.63 116.17, 816.26 48.71, 858.41 0.22 M698.99 183.62 C762.68 110.36, 826.36 37.09, 858.41 0.22 M703.98 183.98 C752.11 128.61, 800.24 73.25, 864.06 -0.17 M703.98 183.98 C762.46 116.7, 820.95 49.42, 864.06 -0.17 M709.62 183.58 C746.21 141.49, 782.8 99.41, 869.04 0.19 M709.62 183.58 C759.93 125.71, 810.24 67.83, 869.04 0.19 M714.61 183.94 C769.58 120.71, 824.55 57.47, 874.69 -0.2 M714.61 183.94 C762.04 129.38, 809.48 74.81, 874.69 -0.2 M720.25 183.55 C757.75 140.42, 795.24 97.28, 879.67 0.16 M720.25 183.55 C754.37 144.3, 788.49 105.06, 879.67 0.16 M725.24 183.91 C781.02 119.74, 836.8 55.57, 885.32 -0.24 M725.24 183.91 C763.4 140.01, 801.56 96.12, 885.32 -0.24 M730.88 183.52 C782.58 124.04, 834.28 64.56, 890.3 0.12 M730.88 183.52 C779.62 127.45, 828.36 71.38, 890.3 0.12 M735.87 183.88 C775.61 138.16, 815.35 92.44, 895.95 -0.27 M735.87 183.88 C787.41 124.59, 838.95 65.29, 895.95 -0.27 M741.51 183.48 C804.83 110.64, 868.16 37.79, 900.93 0.09 M741.51 183.48 C783.88 134.74, 826.25 86, 900.93 0.09 M746.5 183.84 C792.3 131.15, 838.11 78.45, 906.58 -0.31 M746.5 183.84 C809.2 111.72, 871.89 39.59, 906.58 -0.31 M752.14 183.45 C786.45 143.98, 820.75 104.52, 911.56 0.05 M752.14 183.45 C805.26 122.34, 858.39 61.23, 911.56 0.05 M757.13 183.81 C807.77 125.55, 858.41 67.29, 917.21 -0.34 M757.13 183.81 C806.13 127.44, 855.13 71.07, 917.21 -0.34 M762.77 183.41 C810.68 128.3, 858.59 73.19, 922.19 0.02 M762.77 183.41 C796.45 144.67, 830.12 105.94, 922.19 0.02 M767.76 183.77 C816.44 127.77, 865.13 71.76, 927.84 -0.38 M767.76 183.77 C805.84 139.96, 843.93 96.15, 927.84 -0.38 M773.4 183.38 C811.08 140.04, 848.75 96.69, 932.82 -0.02 M773.4 183.38 C831.91 116.07, 890.42 48.77, 932.82 -0.02 M778.39 183.74 C814.36 142.36, 850.32 100.99, 937.81 0.34 M778.39 183.74 C838 115.17, 897.6 46.6, 937.81 0.34 M783.38 184.1 C842.09 116.55, 900.8 49.01, 943.45 -0.05 M783.38 184.1 C836.49 122.99, 889.61 61.89, 943.45 -0.05 M789.02 183.7 C847.66 116.24, 906.31 48.77, 948.44 0.31 M789.02 183.7 C823.27 144.31, 857.52 104.91, 948.44 0.31 M794.01 184.06 C841.54 129.39, 889.06 74.71, 954.08 -0.09 M794.01 184.06 C826.18 147.05, 858.36 110.03, 954.08 -0.09 M799.65 183.67 C836.15 141.68, 872.64 99.7, 959.07 0.27 M799.65 183.67 C843.58 133.13, 887.52 82.59, 959.07 0.27 M804.64 184.03 C866.73 112.6, 928.82 41.17, 962.75 2.14 M804.64 184.03 C857.44 123.28, 910.25 62.53, 962.75 2.14 M810.28 183.63 C843.57 145.34, 876.85 107.05, 963.14 7.79 M810.28 183.63 C869.14 115.92, 928.01 48.2, 963.14 7.79 M815.27 183.99 C856.76 136.26, 898.26 88.52, 962.88 14.18 M815.27 183.99 C852.79 140.83, 890.31 97.66, 962.88 14.18 M820.91 183.6 C871.34 125.58, 921.78 67.56, 963.27 19.83 M820.91 183.6 C875.91 120.33, 930.91 57.06, 963.27 19.83 M825.9 183.96 C873.88 128.76, 921.87 73.55, 963.01 26.23 M825.9 183.96 C873.77 128.88, 921.65 73.8, 963.01 26.23 M831.54 183.57 C879.99 127.83, 928.44 72.09, 962.75 32.62 M831.54 183.57 C862.55 147.89, 893.57 112.21, 962.75 32.62 M836.53 183.93 C867.94 147.79, 899.36 111.65, 963.15 38.27 M836.53 183.93 C883.44 129.96, 930.36 75.99, 963.15 38.27 M842.17 183.53 C866.86 155.13, 891.55 126.73, 962.88 44.66 M842.17 183.53 C879.15 140.99, 916.13 98.45, 962.88 44.66 M847.16 183.89 C891.89 132.43, 936.63 80.96, 963.28 50.31 M847.16 183.89 C885.92 139.29, 924.69 94.7, 963.28 50.31 M852.8 183.5 C887.27 143.84, 921.75 104.18, 963.02 56.71 M852.8 183.5 C883.82 147.82, 914.83 112.13, 963.02 56.71 M857.79 183.86 C882.15 155.83, 906.51 127.8, 962.76 63.1 M857.79 183.86 C880.76 157.42, 903.74 130.99, 962.76 63.1 M863.43 183.46 C899.1 142.43, 934.76 101.4, 963.15 68.75 M863.43 183.46 C889.44 153.54, 915.45 123.62, 963.15 68.75 M868.42 183.82 C889.22 159.89, 910.03 135.95, 962.89 75.14 M868.42 183.82 C893.87 154.54, 919.33 125.26, 962.89 75.14 M874.06 183.43 C902.05 151.22, 930.05 119.02, 963.28 80.79 M874.06 183.43 C897.07 156.96, 920.08 130.49, 963.28 80.79 M879.05 183.79 C899.39 160.39, 919.73 136.99, 963.02 87.18 M879.05 183.79 C903.68 155.45, 928.31 127.12, 963.02 87.18 M884.69 183.39 C913.31 150.47, 941.93 117.55, 962.76 93.58 M884.69 183.39 C908.11 156.45, 931.53 129.51, 962.76 93.58 M889.68 183.75 C915.51 154.04, 941.34 124.32, 963.15 99.23 M889.68 183.75 C916.3 153.12, 942.93 122.49, 963.15 99.23 M894.66 184.11 C909.17 167.42, 923.68 150.74, 962.89 105.62 M894.66 184.11 C917.08 158.33, 939.49 132.55, 962.89 105.62 M900.31 183.72 C916.85 164.69, 933.4 145.65, 963.29 111.27 M900.31 183.72 C920 161.07, 939.69 138.41, 963.29 111.27 M905.29 184.08 C926.03 160.22, 946.77 136.36, 963.03 117.66 M905.29 184.08 C922.55 164.22, 939.81 144.37, 963.03 117.66 M910.94 183.68 C923.94 168.72, 936.95 153.76, 962.77 124.06 M910.94 183.68 C923.59 169.13, 936.24 154.57, 962.77 124.06 M915.92 184.04 C926.54 171.83, 937.16 159.61, 963.16 129.71 M915.92 184.04 C929.19 168.78, 942.46 153.51, 963.16 129.71 M921.57 183.65 C932.01 171.63, 942.46 159.62, 962.9 136.1 M921.57 183.65 C930.7 173.14, 939.83 162.64, 962.9 136.1 M926.55 184.01 C935.32 173.93, 944.08 163.84, 963.29 141.75 M926.55 184.01 C939.71 168.88, 952.86 153.75, 963.29 141.75 M932.2 183.62 C943.45 170.66, 954.71 157.71, 963.03 148.14 M932.2 183.62 C943.64 170.45, 955.09 157.28, 963.03 148.14 M937.18 183.98 C945.9 173.95, 954.62 163.92, 962.77 154.54 M937.18 183.98 C945.57 174.32, 953.96 164.67, 962.77 154.54 M942.83 183.58 C949.87 175.48, 956.92 167.37, 963.16 160.18 M942.83 183.58 C950.7 174.53, 958.57 165.47, 963.16 160.18 M947.81 183.94 C952.08 179.04, 956.34 174.13, 962.9 166.58 M947.81 183.94 C950.87 180.43, 953.92 176.92, 962.9 166.58 M953.46 183.55 C956.56 179.97, 959.67 176.4, 963.3 172.23 M953.46 183.55 C955.67 181, 957.88 178.45, 963.3 172.23 M958.44 183.91 C959.94 182.18, 961.44 180.46, 963.04 178.62 M958.44 183.91 C959.85 182.28, 961.26 180.66, 963.04 178.62 M-0.16 183.09 C-0.16 183.09, -0.16 183.09, -0.16 183.09 M-0.16 183.09 C-0.16 183.09, -0.16 183.09, -0.16 183.09 M6.24 183.35 C4.16 181.55, 2.09 179.74, 0.2 178.1 M6.24 183.35 C3.93 181.35, 1.63 179.34, 0.2 178.1 M11.88 182.96 C8.27 179.82, 4.66 176.67, -0.19 172.46 M11.88 182.96 C8.12 179.69, 4.36 176.41, -0.19 172.46 M18.28 183.22 C12.48 178.17, 6.67 173.13, 0.17 167.47 M18.28 183.22 C13.19 178.79, 8.1 174.37, 0.17 167.47 M24.68 183.48 C18.29 177.93, 11.9 172.37, -0.23 161.83 M24.68 183.48 C17.37 177.12, 10.05 170.77, -0.23 161.83 M30.32 183.09 C22.75 176.51, 15.18 169.93, 0.13 156.84 M30.32 183.09 C22.1 175.94, 13.88 168.79, 0.13 156.84 M36.72 183.35 C26.08 174.1, 15.44 164.85, -0.26 151.2 M36.72 183.35 C23.29 171.67, 9.86 160, -0.26 151.2 M42.36 182.95 C32.21 174.13, 22.05 165.3, 0.1 146.21 M42.36 182.95 C28.09 170.54, 13.81 158.13, 0.1 146.21 M48.76 183.21 C38.14 173.99, 27.53 164.76, -0.3 140.57 M48.76 183.21 C34.19 170.55, 19.63 157.89, -0.3 140.57 M55.16 183.48 C43.81 173.61, 32.46 163.75, 0.07 135.58 M55.16 183.48 C40.09 170.38, 25.02 157.28, 0.07 135.58 M60.8 183.08 C46.89 170.99, 32.98 158.9, -0.33 129.94 M60.8 183.08 C40.28 165.25, 19.77 147.41, -0.33 129.94 M67.2 183.34 C41.98 161.42, 16.76 139.49, 0.03 124.95 M67.2 183.34 C41.02 160.58, 14.84 137.83, 0.03 124.95 M72.84 182.95 C46 159.61, 19.15 136.28, -0.36 119.31 M72.84 182.95 C52.06 164.88, 31.27 146.81, -0.36 119.31 M79.24 183.21 C48.53 156.52, 17.82 129.82, 0 114.32 M79.24 183.21 C62.54 168.69, 45.84 154.18, 0 114.32 M85.64 183.47 C65.13 165.64, 44.61 147.81, 0.36 109.34 M85.64 183.47 C67.68 167.86, 49.72 152.25, 0.36 109.34 M91.28 183.08 C55.52 151.99, 19.76 120.9, -0.04 103.69 M91.28 183.08 C57.06 153.33, 22.84 123.58, -0.04 103.69 M97.68 183.34 C66.86 156.55, 36.04 129.75, 0.32 98.71 M97.68 183.34 C63.75 153.85, 29.83 124.35, 0.32 98.71 M103.32 182.94 C67.31 151.64, 31.3 120.34, -0.07 93.06 M103.32 182.94 C68.77 152.91, 34.22 122.87, -0.07 93.06 M109.72 183.2 C85.28 161.96, 60.84 140.71, 0.29 88.08 M109.72 183.2 C66.55 145.68, 23.38 108.15, 0.29 88.08 M116.12 183.47 C77.88 150.22, 39.64 116.98, -0.11 82.43 M116.12 183.47 C86.43 157.66, 56.74 131.85, -0.11 82.43 M121.76 183.07 C91.36 156.64, 60.95 130.21, 0.25 77.45 M121.76 183.07 C96.3 160.94, 70.84 138.8, 0.25 77.45 M128.16 183.33 C100.42 159.22, 72.68 135.1, -0.14 71.8 M128.16 183.33 C87.23 147.75, 46.3 112.17, -0.14 71.8 M133.8 182.94 C100.72 154.18, 67.65 125.43, 0.22 66.82 M133.8 182.94 C91.23 145.93, 48.65 108.92, 0.22 66.82 M140.2 183.2 C111.67 158.4, 83.15 133.61, -0.18 61.17 M140.2 183.2 C109.39 156.42, 78.58 129.63, -0.18 61.17 M146.6 183.46 C98.75 141.86, 50.89 100.27, 0.18 56.19 M146.6 183.46 C115.69 156.59, 84.78 129.73, 0.18 56.19 M152.24 183.07 C107.38 144.07, 62.52 105.08, -0.21 50.54 M152.24 183.07 C111.77 147.89, 71.3 112.71, -0.21 50.54 M158.64 183.33 C101.57 133.72, 44.5 84.11, 0.15 45.56 M158.64 183.33 C120.63 150.29, 82.63 117.25, 0.15 45.56 M164.28 182.93 C130.62 153.68, 96.97 124.42, -0.25 39.91 M164.28 182.93 C118.27 142.94, 72.27 102.95, -0.25 39.91 M170.68 183.2 C122.83 141.6, 74.97 100, 0.11 34.93 M170.68 183.2 C115.75 135.45, 60.82 87.7, 0.11 34.93 M177.08 183.46 C130.91 143.32, 84.74 103.19, -0.28 29.28 M177.08 183.46 C124.1 137.4, 71.12 91.35, -0.28 29.28 M182.72 183.06 C112.88 122.35, 43.04 61.64, 0.08 24.3 M182.72 183.06 C139.05 145.1, 95.37 107.13, 0.08 24.3 M189.12 183.32 C132.56 134.16, 76.01 85, -0.31 18.65 M189.12 183.32 C137.3 138.28, 85.48 93.23, -0.31 18.65 M194.76 182.93 C151.81 145.59, 108.85 108.25, 0.05 13.67 M194.76 182.93 C129.27 126, 63.77 69.06, 0.05 13.67 M201.16 183.19 C127.14 118.85, 53.13 54.51, -0.35 8.02 M201.16 183.19 C126.81 118.56, 52.45 53.92, -0.35 8.02 M207.56 183.45 C142.96 127.3, 78.37 71.15, 0.01 3.04 M207.56 183.45 C161.24 143.19, 114.93 102.93, 0.01 3.04 M213.2 183.06 C165.53 141.62, 117.87 100.19, 1.88 -0.64 M213.2 183.06 C157.42 134.57, 101.64 86.08, 1.88 -0.64 M219.6 183.32 C170.75 140.86, 121.9 98.39, 8.28 -0.38 M219.6 183.32 C161.91 133.17, 104.23 83.03, 8.28 -0.38 M225.24 182.92 C173.85 138.25, 122.45 93.57, 13.92 -0.77 M225.24 182.92 C172.11 136.74, 118.97 90.55, 13.92 -0.77 M231.64 183.19 C164.38 124.72, 97.13 66.26, 20.32 -0.51 M231.64 183.19 C163.31 123.79, 94.98 64.39, 20.32 -0.51 M238.04 183.45 C174.42 128.14, 110.8 72.84, 26.72 -0.25 M238.04 183.45 C166.5 121.26, 94.97 59.08, 26.72 -0.25 M243.68 183.05 C165.2 114.83, 86.72 46.61, 32.36 -0.64 M243.68 183.05 C164.26 114.01, 84.84 44.97, 32.36 -0.64 M250.08 183.31 C188.6 129.87, 127.13 76.44, 38.76 -0.38 M250.08 183.31 C176.9 119.7, 103.72 56.09, 38.76 -0.38 M255.72 182.92 C181.72 118.59, 107.71 54.26, 44.4 -0.78 M255.72 182.92 C193.14 128.52, 130.57 74.13, 44.4 -0.78 M262.12 183.18 C216.59 143.6, 171.06 104.02, 50.8 -0.52 M262.12 183.18 C217.75 144.61, 173.39 106.05, 50.8 -0.52 M268.52 183.44 C210.31 132.84, 152.1 82.25, 57.2 -0.25 M268.52 183.44 C202.18 125.78, 135.85 68.12, 57.2 -0.25 M274.16 183.05 C213.22 130.08, 152.29 77.11, 62.84 -0.65 M274.16 183.05 C215.26 131.85, 156.36 80.65, 62.84 -0.65 M280.56 183.31 C211.09 122.93, 141.63 62.55, 69.24 -0.39 M280.56 183.31 C212.31 123.99, 144.07 64.66, 69.24 -0.39 M286.2 182.91 C236.71 139.9, 187.22 96.88, 74.88 -0.78 M286.2 182.91 C240.57 143.25, 194.94 103.58, 74.88 -0.78 M292.6 183.18 C218.1 118.41, 143.6 53.65, 81.28 -0.52 M292.6 183.18 C212.07 113.17, 131.53 43.17, 81.28 -0.52 M298.99 183.44 C216.9 112.08, 134.81 40.72, 87.68 -0.26 M298.99 183.44 C235.82 128.52, 172.65 73.61, 87.68 -0.26 M304.64 183.04 C230.58 118.67, 156.52 54.29, 93.32 -0.65 M304.64 183.04 C260.21 144.42, 215.78 105.8, 93.32 -0.65 M311.04 183.3 C227 110.25, 142.96 37.2, 99.72 -0.39 M311.04 183.3 C243.59 124.67, 176.14 66.04, 99.72 -0.39 M316.68 182.91 C234.93 111.84, 153.18 40.78, 105.36 -0.79 M316.68 182.91 C254.05 128.47, 191.42 74.02, 105.36 -0.79 M323.08 183.17 C255.63 124.54, 188.18 65.9, 111.76 -0.53 M323.08 183.17 C263.46 131.34, 203.84 79.52, 111.76 -0.53 M329.47 183.43 C268.8 130.69, 208.12 77.94, 118.16 -0.26 M329.47 183.43 C247.17 111.88, 164.86 40.34, 118.16 -0.26 M335.12 183.04 C267.21 124.01, 199.3 64.97, 123.8 -0.66 M335.12 183.04 C270.16 126.58, 205.21 70.11, 123.8 -0.66 M341.52 183.3 C270.18 121.29, 198.84 59.28, 130.2 -0.4 M341.52 183.3 C298.47 145.88, 255.43 108.47, 130.2 -0.4 M347.16 182.9 C266.13 112.47, 185.1 42.03, 135.84 -0.79 M347.16 182.9 C277.74 122.56, 208.32 62.22, 135.84 -0.79 M353.56 183.17 C272.11 112.37, 190.66 41.57, 142.24 -0.53 M353.56 183.17 C286.54 124.91, 219.53 66.66, 142.24 -0.53 M359.95 183.43 C276.34 110.75, 192.74 38.07, 148.64 -0.27 M359.95 183.43 C276.86 111.2, 193.77 38.97, 148.64 -0.27 M365.6 183.03 C293.99 120.79, 222.38 58.54, 154.28 -0.66 M365.6 183.03 C308.12 133.07, 250.65 83.11, 154.28 -0.66 M371.99 183.29 C317.23 135.69, 262.47 88.08, 160.68 -0.4 M371.99 183.29 C295.24 116.57, 218.48 49.84, 160.68 -0.4 M377.64 182.9 C321.22 133.85, 264.8 84.81, 166.32 -0.8 M377.64 182.9 C319.62 132.46, 261.6 82.03, 166.32 -0.8 M384.04 183.16 C302.47 112.25, 220.89 41.34, 172.72 -0.54 M384.04 183.16 C338.73 143.78, 293.43 104.4, 172.72 -0.54 M390.43 183.42 C327.06 128.33, 263.69 73.25, 179.11 -0.27 M390.43 183.42 C328.05 129.2, 265.68 74.97, 179.11 -0.27 M396.08 183.03 C311.71 109.69, 227.34 36.35, 184.76 -0.67 M396.08 183.03 C324.96 121.21, 253.84 59.39, 184.76 -0.67 M402.47 183.29 C333.05 122.94, 263.62 62.59, 191.16 -0.41 M402.47 183.29 C324.65 115.64, 246.83 47.99, 191.16 -0.41 M408.87 183.55 C359.49 140.63, 310.11 97.7, 196.8 -0.8 M408.87 183.55 C359.33 140.49, 309.79 97.42, 196.8 -0.8 M414.52 183.16 C350.09 127.16, 285.67 71.16, 203.2 -0.54 M414.52 183.16 C352.75 129.47, 290.99 75.78, 203.2 -0.54 M420.91 183.42 C371.96 140.86, 323 98.3, 209.59 -0.28 M420.91 183.42 C373.66 142.34, 326.41 101.27, 209.59 -0.28 M426.56 183.02 C354.34 120.25, 282.13 57.48, 215.24 -0.67 M426.56 183.02 C356.88 122.46, 287.21 61.89, 215.24 -0.67 M432.95 183.28 C379.79 137.07, 326.63 90.86, 221.64 -0.41 M432.95 183.28 C361.41 121.09, 289.87 58.9, 221.64 -0.41 M439.35 183.55 C394.2 144.29, 349.04 105.04, 227.28 -0.81 M439.35 183.55 C374.21 126.92, 309.07 70.3, 227.28 -0.81 M444.99 183.15 C369.06 117.14, 293.12 51.13, 233.68 -0.54 M444.99 183.15 C397.53 141.89, 350.07 100.63, 233.68 -0.54 M451.39 183.41 C397.88 136.9, 344.37 90.38, 240.07 -0.28 M451.39 183.41 C384.77 125.5, 318.14 67.58, 240.07 -0.28 M457.04 183.02 C386.74 121.91, 316.44 60.8, 245.72 -0.68 M457.04 183.02 C405.91 138.58, 354.79 94.14, 245.72 -0.68 M463.43 183.28 C408.85 135.83, 354.27 88.38, 252.11 -0.42 M463.43 183.28 C419.31 144.92, 375.19 106.57, 252.11 -0.42 M469.83 183.54 C393.44 117.14, 317.06 50.74, 257.76 -0.81 M469.83 183.54 C392.47 116.3, 315.12 49.05, 257.76 -0.81 M475.47 183.15 C394.17 112.47, 312.87 41.79, 264.16 -0.55 M475.47 183.15 C410.71 126.85, 345.95 70.55, 264.16 -0.55 M481.87 183.41 C409.7 120.67, 337.53 57.94, 270.55 -0.29 M481.87 183.41 C422.4 131.71, 362.93 80.01, 270.55 -0.29 M487.51 183.01 C434.66 137.06, 381.8 91.12, 276.2 -0.68 M487.51 183.01 C425.99 129.53, 364.47 76.05, 276.2 -0.68 M493.91 183.28 C412.1 112.16, 330.29 41.04, 282.59 -0.42 M493.91 183.28 C431.73 129.22, 369.54 75.16, 282.59 -0.42 M500.31 183.54 C450.91 140.59, 401.51 97.65, 288.24 -0.82 M500.31 183.54 C434.63 126.44, 368.95 69.34, 288.24 -0.82 M505.95 183.14 C438.63 124.62, 371.31 66.1, 294.63 -0.55 M505.95 183.14 C459.52 142.78, 413.08 102.41, 294.63 -0.55 M512.35 183.4 C433.61 114.95, 354.87 46.5, 301.03 -0.29 M512.35 183.4 C454.63 133.23, 396.91 83.05, 301.03 -0.29 M517.99 183.01 C440.2 115.38, 362.4 47.75, 306.68 -0.69 M517.99 183.01 C457.07 130.05, 396.14 77.08, 306.68 -0.69 M524.39 183.27 C467.44 133.76, 410.48 84.25, 313.07 -0.43 M524.39 183.27 C449.07 117.79, 373.74 52.31, 313.07 -0.43 M530.79 183.53 C471.57 132.05, 412.35 80.57, 318.72 -0.82 M530.79 183.53 C478.92 138.44, 427.06 93.36, 318.72 -0.82 M536.43 183.14 C455.09 112.42, 373.74 41.71, 325.11 -0.56 M536.43 183.14 C473.31 128.26, 410.18 73.39, 325.11 -0.56 M542.83 183.4 C499.27 145.53, 455.72 107.67, 331.51 -0.3 M542.83 183.4 C490.61 138.01, 438.4 92.61, 331.51 -0.3 M548.47 183 C476.39 120.34, 404.3 57.67, 337.16 -0.69 M548.47 183 C484.42 127.32, 420.36 71.64, 337.16 -0.69 M554.87 183.27 C509.65 143.96, 464.43 104.65, 343.55 -0.43 M554.87 183.27 C476.98 115.55, 399.09 47.84, 343.55 -0.43 M561.27 183.53 C514.34 142.74, 467.42 101.94, 349.2 -0.83 M561.27 183.53 C489.83 121.43, 418.39 59.33, 349.2 -0.83 M566.91 183.13 C486.83 113.51, 406.74 43.89, 355.59 -0.56 M566.91 183.13 C504.4 128.79, 441.89 74.45, 355.59 -0.56 M573.31 183.39 C516.37 133.89, 459.42 84.39, 361.99 -0.3 M573.31 183.39 C524.46 140.93, 475.6 98.46, 361.99 -0.3 M578.95 183 C518.05 130.06, 457.14 77.11, 367.63 -0.7 M578.95 183 C530.45 140.83, 481.94 98.67, 367.63 -0.7 M585.35 183.26 C502.77 111.47, 420.19 39.69, 374.03 -0.44 M585.35 183.26 C504.74 113.19, 424.13 43.11, 374.03 -0.44 M591.75 183.52 C519.71 120.9, 447.67 58.28, 379.68 -0.83 M591.75 183.52 C510.17 112.61, 428.6 41.7, 379.68 -0.83 M597.39 183.13 C544.31 136.98, 491.22 90.83, 386.07 -0.57 M597.39 183.13 C545.18 137.74, 492.97 92.35, 386.07 -0.57 M603.79 183.39 C552.58 138.87, 501.36 94.35, 392.47 -0.31 M603.79 183.39 C542.49 130.1, 481.19 76.82, 392.47 -0.31 M609.43 182.99 C529.62 113.62, 449.81 44.24, 398.11 -0.7 M609.43 182.99 C556.29 136.79, 503.14 90.59, 398.11 -0.7 M615.83 183.26 C549.03 125.18, 482.22 67.11, 404.51 -0.44 M615.83 183.26 C554.8 130.2, 493.77 77.15, 404.51 -0.44 M622.23 183.52 C567.51 135.95, 512.78 88.38, 410.16 -0.84 M622.23 183.52 C562.37 131.48, 502.51 79.45, 410.16 -0.84 M627.87 183.12 C545.07 111.14, 462.26 39.16, 416.55 -0.57 M627.87 183.12 C577.6 139.42, 527.32 95.72, 416.55 -0.57 M634.27 183.38 C583.32 139.09, 532.37 94.8, 422.95 -0.31 M634.27 183.38 C551.66 111.57, 469.05 39.77, 422.95 -0.31 M639.91 182.99 C574.13 125.81, 508.36 68.63, 428.59 -0.71 M639.91 182.99 C595.85 144.69, 551.8 106.39, 428.59 -0.71 M646.31 183.25 C596.31 139.78, 546.3 96.32, 434.99 -0.45 M646.31 183.25 C584.36 129.4, 522.42 75.55, 434.99 -0.45 M652.71 183.51 C604.54 141.64, 556.38 99.77, 440.63 -0.84 M652.71 183.51 C570.9 112.4, 489.1 41.29, 440.63 -0.84 M658.35 183.12 C612.86 143.57, 567.37 104.03, 447.03 -0.58 M658.35 183.12 C601.58 133.77, 544.81 84.42, 447.03 -0.58 M664.75 183.38 C600.71 127.71, 536.68 72.05, 453.43 -0.32 M664.75 183.38 C586.8 115.62, 508.85 47.85, 453.43 -0.32 M670.39 182.98 C605.17 126.28, 539.94 69.59, 459.07 -0.71 M670.39 182.98 C615.2 135, 560 87.02, 459.07 -0.71 M676.79 183.25 C631.65 144.01, 586.52 104.77, 465.47 -0.45 M676.79 183.25 C619.47 133.42, 562.15 83.59, 465.47 -0.45 M683.19 183.51 C617.58 126.48, 551.98 69.45, 471.11 -0.84 M683.19 183.51 C602.89 113.7, 522.59 43.9, 471.11 -0.84 M688.83 183.11 C637.2 138.23, 585.57 93.35, 477.51 -0.58 M688.83 183.11 C642.3 142.67, 595.78 102.22, 477.51 -0.58 M695.23 183.37 C616.87 115.26, 538.51 47.14, 483.91 -0.32 M695.23 183.37 C612.21 111.21, 529.19 39.04, 483.91 -0.32 M700.87 182.98 C618.1 111.02, 535.32 39.07, 489.55 -0.72 M700.87 182.98 C646.54 135.75, 592.2 88.51, 489.55 -0.72 M707.27 183.24 C642.29 126.75, 577.31 70.27, 495.95 -0.46 M707.27 183.24 C656.58 139.18, 605.9 95.12, 495.95 -0.46 M713.67 183.5 C657.87 135, 602.07 86.49, 501.59 -0.85 M713.67 183.5 C663.28 139.71, 612.9 95.91, 501.59 -0.85 M719.31 183.11 C657.02 128.96, 594.73 74.81, 507.99 -0.59 M719.31 183.11 C651.77 124.4, 584.24 65.69, 507.99 -0.59 M725.71 183.37 C646.06 114.14, 566.42 44.9, 514.39 -0.33 M725.71 183.37 C655.74 122.55, 585.78 61.73, 514.39 -0.33 M731.35 182.98 C653.39 115.2, 575.43 47.43, 520.03 -0.72 M731.35 182.98 C647.62 110.19, 563.9 37.41, 520.03 -0.72 M737.75 183.24 C682.32 135.05, 626.89 86.87, 526.43 -0.46 M737.75 183.24 C669.86 124.22, 601.97 65.2, 526.43 -0.46 M744.15 183.5 C674.75 123.17, 605.36 62.85, 532.07 -0.85 M744.15 183.5 C680.98 128.59, 617.82 73.69, 532.07 -0.85 M749.79 183.1 C673.81 117.05, 597.82 51, 538.47 -0.59 M749.79 183.1 C685.16 126.93, 620.54 70.75, 538.47 -0.59 M756.19 183.36 C708.05 141.52, 659.91 99.67, 544.87 -0.33 M756.19 183.36 C710.4 143.56, 664.61 103.76, 544.87 -0.33 M761.83 182.97 C694.25 124.22, 626.66 65.47, 550.51 -0.73 M761.83 182.97 C678.05 110.14, 594.27 37.31, 550.51 -0.73 M768.23 183.23 C706.98 129.99, 645.74 76.75, 556.91 -0.46 M768.23 183.23 C724.06 144.84, 679.89 106.44, 556.91 -0.46 M774.63 183.49 C709.91 127.23, 645.19 70.98, 562.55 -0.86 M774.63 183.49 C728.18 143.12, 681.73 102.74, 562.55 -0.86 M780.27 183.1 C697.16 110.85, 614.04 38.6, 568.95 -0.6 M780.27 183.1 C717.89 128.87, 655.52 74.65, 568.95 -0.6 M786.67 183.36 C725.68 130.34, 664.69 77.33, 575.35 -0.34 M786.67 183.36 C741.58 144.17, 696.5 104.98, 575.35 -0.34 M792.31 182.97 C712.16 113.3, 632.02 43.63, 580.99 -0.73 M792.31 182.97 C716.32 116.91, 640.34 50.86, 580.99 -0.73 M798.71 183.23 C723.87 118.18, 649.04 53.12, 587.39 -0.47 M798.71 183.23 C728.26 121.99, 657.81 60.75, 587.39 -0.47 M805.11 183.49 C730.96 119.04, 656.82 54.58, 593.03 -0.86 M805.11 183.49 C751.94 137.27, 698.78 91.06, 593.03 -0.86 M810.75 183.09 C726.94 110.24, 643.13 37.39, 599.43 -0.6 M810.75 183.09 C737.4 119.33, 664.05 55.57, 599.43 -0.6 M817.15 183.36 C739.54 115.9, 661.94 48.44, 605.83 -0.34 M817.15 183.36 C757.77 131.74, 698.39 80.12, 605.83 -0.34 M822.79 182.96 C775.91 142.2, 729.02 101.45, 611.47 -0.74 M822.79 182.96 C751.66 121.13, 680.54 59.3, 611.47 -0.74 M829.19 183.22 C753.98 117.84, 678.77 52.46, 617.87 -0.47 M829.19 183.22 C760.06 123.13, 690.94 63.04, 617.87 -0.47 M835.59 183.48 C783.45 138.16, 731.32 92.85, 624.27 -0.21 M835.59 183.48 C751.49 110.38, 667.4 37.28, 624.27 -0.21 M841.23 183.09 C798.88 146.28, 756.53 109.46, 629.91 -0.61 M841.23 183.09 C771.56 122.53, 701.89 61.96, 629.91 -0.61 M847.63 183.35 C763.35 110.09, 679.07 36.83, 636.31 -0.35 M847.63 183.35 C775.49 120.64, 703.36 57.94, 636.31 -0.35 M853.27 182.96 C801.21 137.7, 749.14 92.44, 641.95 -0.74 M853.27 182.96 C770.13 110.68, 686.99 38.41, 641.95 -0.74 M859.67 183.22 C813.84 143.38, 768.01 103.54, 648.35 -0.48 M859.67 183.22 C777.03 111.38, 694.39 39.54, 648.35 -0.48 M866.06 183.48 C823.71 146.66, 781.35 109.84, 654.75 -0.22 M866.06 183.48 C805.39 130.74, 744.72 77.99, 654.75 -0.22 M871.71 183.08 C797.66 118.71, 723.61 54.34, 660.39 -0.61 M871.71 183.08 C811.4 130.66, 751.1 78.24, 660.39 -0.61 M878.11 183.35 C829.47 141.06, 780.82 98.78, 666.79 -0.35 M878.11 183.35 C805.5 120.23, 732.9 57.12, 666.79 -0.35 M883.75 182.95 C828.8 135.19, 773.86 87.42, 672.43 -0.75 M883.75 182.95 C804.16 113.76, 724.56 44.57, 672.43 -0.75 M890.15 183.21 C834.35 134.71, 778.55 86.2, 678.83 -0.48 M890.15 183.21 C814.13 117.13, 738.12 51.05, 678.83 -0.48 M896.54 183.47 C829.54 125.22, 762.53 66.97, 685.23 -0.22 M896.54 183.47 C826.53 122.61, 756.51 61.75, 685.23 -0.22 M902.19 183.08 C840.59 129.53, 778.99 75.98, 690.87 -0.62 M902.19 183.08 C839.53 128.61, 776.88 74.15, 690.87 -0.62 M908.58 183.34 C844.33 127.48, 780.07 71.63, 697.27 -0.36 M908.58 183.34 C860 141.11, 811.42 98.88, 697.27 -0.36 M914.23 182.95 C858.67 134.65, 803.12 86.36, 702.91 -0.75 M914.23 182.95 C834.15 113.34, 754.07 43.73, 702.91 -0.75 M920.63 183.21 C854.21 125.48, 787.8 67.74, 709.31 -0.49 M920.63 183.21 C864.22 134.18, 807.82 85.14, 709.31 -0.49 M927.02 183.47 C844.71 111.91, 762.39 40.35, 715.7 -0.23 M927.02 183.47 C843.31 110.7, 759.6 37.93, 715.7 -0.23 M932.67 183.07 C879.42 136.79, 826.17 90.5, 721.35 -0.62 M932.67 183.07 C879.62 136.97, 826.58 90.86, 721.35 -0.62 M939.06 183.34 C887.57 138.57, 836.08 93.81, 727.75 -0.36 M939.06 183.34 C896.54 146.37, 854.02 109.41, 727.75 -0.36 M944.71 182.94 C874.47 121.88, 804.23 60.82, 733.39 -0.76 M944.71 182.94 C880.29 126.94, 815.87 70.94, 733.39 -0.76 M951.11 183.2 C896.49 135.72, 841.87 88.24, 739.79 -0.49 M951.11 183.2 C906.43 144.36, 861.75 105.52, 739.79 -0.49 M957.5 183.46 C876.85 113.36, 796.2 43.25, 746.18 -0.23 M957.5 183.46 C880.33 116.38, 803.17 49.3, 746.18 -0.23 M963.15 183.07 C914.96 141.18, 866.77 99.29, 751.83 -0.63 M963.15 183.07 C898.06 126.49, 832.96 69.9, 751.83 -0.63 M962.75 177.43 C893.85 117.53, 824.96 57.64, 758.23 -0.37 M962.75 177.43 C904.91 127.15, 847.07 76.87, 758.23 -0.37 M963.11 172.44 C921.78 136.51, 880.45 100.58, 763.87 -0.76 M963.11 172.44 C896.1 114.19, 829.09 55.93, 763.87 -0.76 M962.72 166.8 C896.12 108.91, 829.53 51.02, 770.27 -0.5 M962.72 166.8 C900.63 112.83, 838.55 58.86, 770.27 -0.5 M963.08 161.81 C923.43 127.34, 883.78 92.88, 776.66 -0.24 M963.08 161.81 C924.72 128.46, 886.36 95.12, 776.66 -0.24 M962.68 156.17 C914.32 114.12, 865.95 72.08, 782.31 -0.63 M962.68 156.17 C915.16 114.85, 867.63 73.54, 782.31 -0.63 M963.04 151.18 C907.14 102.58, 851.23 53.98, 788.7 -0.37 M963.04 151.18 C895.09 92.11, 827.13 33.03, 788.7 -0.37 M962.65 145.54 C899.86 90.96, 837.08 36.38, 794.35 -0.77 M962.65 145.54 C912.42 101.87, 862.19 58.21, 794.35 -0.77 M963.01 140.55 C903.09 88.46, 843.16 36.37, 800.75 -0.5 M963.01 140.55 C926.35 108.68, 889.69 76.81, 800.75 -0.5 M962.61 134.91 C925.05 102.25, 887.48 69.6, 807.14 -0.24 M962.61 134.91 C910.6 89.69, 858.58 44.47, 807.14 -0.24 M962.97 129.92 C924.33 96.32, 885.68 62.73, 812.79 -0.64 M962.97 129.92 C930.57 101.75, 898.17 73.58, 812.79 -0.64 M962.58 124.28 C924.49 91.17, 886.4 58.05, 819.18 -0.38 M962.58 124.28 C920.57 87.76, 878.56 51.24, 819.18 -0.38 M962.94 119.29 C929.17 89.93, 895.39 60.57, 824.83 -0.77 M962.94 119.29 C918.06 80.28, 873.19 41.27, 824.83 -0.77 M963.3 114.3 C917.37 74.37, 871.44 34.45, 831.23 -0.51 M963.3 114.3 C935.72 90.33, 908.15 66.36, 831.23 -0.51 M962.9 108.66 C931.39 81.26, 899.87 53.86, 837.62 -0.25 M962.9 108.66 C927.43 77.82, 891.95 46.98, 837.62 -0.25 M963.26 103.67 C939.06 82.63, 914.86 61.59, 843.27 -0.64 M963.26 103.67 C923.51 69.11, 883.75 34.55, 843.27 -0.64 M962.87 98.03 C922.1 62.59, 881.34 27.15, 849.66 -0.38 M962.87 98.03 C930.69 70.06, 898.52 42.09, 849.66 -0.38 M963.23 93.04 C936.03 69.4, 908.84 45.76, 855.31 -0.77 M963.23 93.04 C939.08 72.04, 914.92 51.05, 855.31 -0.77 M962.84 87.4 C931.22 59.91, 899.6 32.43, 861.7 -0.51 M962.84 87.4 C933.92 62.26, 905 37.12, 861.7 -0.51 M963.2 82.41 C931.42 54.79, 899.64 27.16, 868.1 -0.25 M963.2 82.41 C938.12 60.61, 913.05 38.82, 868.1 -0.25 M962.8 76.77 C943.86 60.31, 924.92 43.84, 873.75 -0.65 M962.8 76.77 C935.17 52.75, 907.54 28.73, 873.75 -0.65 M963.16 71.78 C930.39 43.3, 897.62 14.81, 880.14 -0.38 M963.16 71.78 C934.74 47.08, 906.32 22.37, 880.14 -0.38 M962.77 66.14 C945.47 51.11, 928.18 36.07, 885.79 -0.78 M962.77 66.14 C936.36 43.18, 909.94 20.22, 885.79 -0.78 M963.13 61.15 C935.39 37.04, 907.65 12.92, 892.18 -0.52 M963.13 61.15 C937.21 38.62, 911.3 16.1, 892.18 -0.52 M962.73 55.51 C945.16 40.23, 927.59 24.96, 898.58 -0.26 M962.73 55.51 C947.69 42.43, 932.65 29.36, 898.58 -0.26 M963.09 50.52 C940.05 30.49, 917.01 10.46, 904.22 -0.65 M963.09 50.52 C942.37 32.51, 921.64 14.49, 904.22 -0.65 M962.7 44.88 C944.64 29.18, 926.58 13.48, 910.62 -0.39 M962.7 44.88 C941.95 26.84, 921.19 8.8, 910.62 -0.39 M963.06 39.89 C950.18 28.7, 937.31 17.51, 916.27 -0.78 M963.06 39.89 C947.32 26.21, 931.58 12.53, 916.27 -0.78 M962.66 34.25 C947.04 20.67, 931.42 7.09, 922.66 -0.52 M962.66 34.25 C950.13 23.35, 937.6 12.46, 922.66 -0.52 M963.02 29.26 C955.13 22.4, 947.23 15.54, 929.06 -0.26 M963.02 29.26 C954 21.42, 944.98 13.57, 929.06 -0.26 M962.63 23.62 C956.67 18.44, 950.72 13.27, 934.7 -0.66 M962.63 23.62 C956.45 18.25, 950.28 12.88, 934.7 -0.66 M962.99 18.63 C957.2 13.6, 951.41 8.57, 941.1 -0.39 M962.99 18.63 C956.38 12.89, 949.77 7.14, 941.1 -0.39 M962.59 12.99 C956.51 7.7, 950.42 2.4, 946.75 -0.79 M962.59 12.99 C958.98 9.84, 955.36 6.7, 946.75 -0.79 M962.95 8 C960.17 5.58, 957.4 3.17, 953.14 -0.53 M962.95 8 C959.81 5.26, 956.66 2.53, 953.14 -0.53 M963.31 3.01 C962.06 1.92, 960.8 0.83, 959.54 -0.27 M963.31 3.01 C962.54 2.34, 961.77 1.67, 959.54 -0.27" stroke="#e9ecef" stroke-width="0.5" fill="none"></path><path d="M0 0 C343.92 0, 687.84 0, 962.66 0 M0 0 C205.22 0, 410.43 0, 962.66 0 M962.66 0 C962.66 64, 962.66 128, 962.66 183.23 M962.66 0 C962.66 58.66, 962.66 117.31, 962.66 183.23 M962.66 183.23 C751.51 183.23, 540.36 183.23, 0 183.23 M962.66 183.23 C716.53 183.23, 470.41 183.23, 0 183.23 M0 183.23 C0 135.84, 0 88.45, 0 0 M0 183.23 C0 113.7, 0 44.18, 0 0" stroke="#1e1e1e" stroke-width="1" fill="none"></path></g><g stroke-linecap="round" transform="translate(30.428193227201746 10) rotate(0 219.49707031250006 61.7724609375)"><path d="M30.89 0 C129.01 0, 227.13 0, 408.11 0 C428.7 0, 438.99 10.3, 438.99 30.89 C438.99 54.36, 438.99 77.83, 438.99 92.66 C438.99 113.25, 428.7 123.54, 408.11 123.54 C260.92 123.54, 113.73 123.54, 30.89 123.54 C10.3 123.54, 0 113.25, 0 92.66 C0 69.05, 0 45.45, 0 30.89 C0 10.3, 10.3 0, 30.89 0" stroke="none" stroke-width="0" fill="#e7f5ff"></path><path d="M30.89 0 C180.66 0, 330.44 0, 408.11 0 M30.89 0 C139.95 0, 249.01 0, 408.11 0 M408.11 0 C428.7 0, 438.99 10.3, 438.99 30.89 M408.11 0 C428.7 0, 438.99 10.3, 438.99 30.89 M438.99 30.89 C438.99 52.41, 438.99 73.93, 438.99 92.66 M438.99 30.89 C438.99 51.7, 438.99 72.52, 438.99 92.66 M438.99 92.66 C438.99 113.25, 428.7 123.54, 408.11 123.54 M438.99 92.66 C438.99 113.25, 428.7 123.54, 408.11 123.54 M408.11 123.54 C259.24 123.54, 110.38 123.54, 30.89 123.54 M408.11 123.54 C298.01 123.54, 187.91 123.54, 30.89 123.54 M30.89 123.54 C10.3 123.54, 0 113.25, 0 92.66 M30.89 123.54 C10.3 123.54, 0 113.25, 0 92.66 M0 92.66 C0 69.67, 0 46.69, 0 30.89 M0 92.66 C0 79.65, 0 66.64, 0 30.89 M0 30.89 C0 10.3, 10.3 0, 30.89 0 M0 30.89 C0 10.3, 10.3 0, 30.89 0" stroke="#1e1e1e" stroke-width="1" fill="none"></path></g><g transform="translate(227.8052627004684 59.2724609375) rotate(0 22.1200008392334 12.5)"><text x="22.1200008392334" y="0" font-family="Virgil, Segoe UI Emoji" font-size="20px" fill="#1e1e1e" text-anchor="middle" style="white-space: pre;" direction="ltr" dominant-baseline="text-before-edge">Host</text></g><g stroke-linecap="round" transform="translate(654.2426463522017 12.3876953125) rotate(0 90.72265625 62.3974609375)"><path d="M31.2 0 C72.64 0, 114.09 0, 150.25 0 C171.05 0, 181.45 10.4, 181.45 31.2 C181.45 54.12, 181.45 77.04, 181.45 93.6 C181.45 114.4, 171.05 124.79, 150.25 124.79 C124.12 124.79, 97.99 124.79, 31.2 124.79 C10.4 124.79, 0 114.4, 0 93.6 C0 70.46, 0 47.33, 0 31.2 C0 10.4, 10.4 0, 31.2 0" stroke="none" stroke-width="0" fill="#e7f5ff"></path><path d="M31.2 0 C69.49 0, 107.79 0, 150.25 0 M31.2 0 C73.18 0, 115.16 0, 150.25 0 M150.25 0 C171.05 0, 181.45 10.4, 181.45 31.2 M150.25 0 C171.05 0, 181.45 10.4, 181.45 31.2 M181.45 31.2 C181.45 44.89, 181.45 58.57, 181.45 93.6 M181.45 31.2 C181.45 47.15, 181.45 63.11, 181.45 93.6 M181.45 93.6 C181.45 114.4, 171.05 124.79, 150.25 124.79 M181.45 93.6 C181.45 114.4, 171.05 124.79, 150.25 124.79 M150.25 124.79 C125.91 124.79, 101.57 124.79, 31.2 124.79 M150.25 124.79 C106.01 124.79, 61.78 124.79, 31.2 124.79 M31.2 124.79 C10.4 124.79, 0 114.4, 0 93.6 M31.2 124.79 C10.4 124.79, 0 114.4, 0 93.6 M0 93.6 C0 69.88, 0 46.17, 0 31.2 M0 93.6 C0 70.21, 0 46.82, 0 31.2 M0 31.2 C0 10.4, 10.4 0, 31.2 0 M0 31.2 C0 10.4, 10.4 0, 31.2 0" stroke="#1e1e1e" stroke-width="1" fill="none"></path></g><g transform="translate(712.2953349508346 49.78515625) rotate(0 32.66996765136719 25)"><text x="32.66996765136719" y="0" font-family="Virgil, Segoe UI Emoji" font-size="20px" fill="#1e1e1e" text-anchor="middle" style="white-space: pre;" direction="ltr" dominant-baseline="text-before-edge">Wasm</text><text x="32.66996765136719" y="25" font-family="Virgil, Segoe UI Emoji" font-size="20px" fill="#1e1e1e" text-anchor="middle" style="white-space: pre;" direction="ltr" dominant-baseline="text-before-edge">Module</text></g><g stroke-linecap="round" transform="translate(98.46382296205161 374.0841520450808) rotate(0 20.63642054643131 21.850327637397868)"><path d="M0 0 C16.74 0.65, 31.85 0.01, 41.27 0 M0 0 C10.82 0.01, 21.19 0.28, 41.27 0 M41.27 0 C41.69 14.42, 40.99 29.74, 41.27 43.7 M41.27 0 C41.26 14.5, 40.86 29.24, 41.27 43.7 M41.27 43.7 C28.07 43.13, 15.65 43.86, 0 43.7 M41.27 43.7 C31.25 44.27, 20.7 44.18, 0 43.7 M0 43.7 C-0.53 26.06, 0.73 8.79, 0 0 M0 43.7 C0.24 27.38, 0.06 10.7, 0 0" stroke="#000000" stroke-width="4" fill="none"></path></g><g stroke-linecap="round" transform="translate(139.7366640549228 374.0841520450808) rotate(0 20.63642054643131 21.850327637397868)"><path d="M0 0 C8.73 -0.25, 18.2 0.8, 41.27 0 M0 0 C14.01 0.33, 28.51 -0.46, 41.27 0 M41.27 0 C41.31 9.27, 41.77 19.42, 41.27 43.7 M41.27 0 C41.02 10.59, 41.37 21.5, 41.27 43.7 M41.27 43.7 C31.91 43.93, 22.12 44.56, 0 43.7 M41.27 43.7 C24.96 44.17, 10.11 43.82, 0 43.7 M0 43.7 C0.84 29, 0.85 14.6, 0 0 M0 43.7 C-0.01 31.34, -0.36 19.65, 0 0" stroke="#000000" stroke-width="4" fill="none"></path></g><g stroke-linecap="round" transform="translate(181.06514255612478 374.0841520450808) rotate(0 20.63642054643131 21.850327637397868)"><path d="M0 0 C14 0.93, 29.26 0.37, 41.27 0 M0 0 C13.45 -0.57, 26.07 0.15, 41.27 0 M41.27 0 C41.62 9.05, 40.72 19.38, 41.27 43.7 M41.27 0 C41.19 11.08, 40.77 22.13, 41.27 43.7 M41.27 43.7 C30.03 44.71, 20.76 43.81, 0 43.7 M41.27 43.7 C26.11 43.79, 10.13 43.55, 0 43.7 M0 43.7 C0.57 31.69, -0.42 19.75, 0 0 M0 43.7 C-0.28 30.76, 0.31 18.05, 0 0" stroke="#000000" stroke-width="4" fill="none"></path></g><g stroke-linecap="round" transform="translate(222.3379836489746 374.0841520450808) rotate(0 20.63642054643131 21.850327637397868)"><path d="M0 0 C12.2 0.15, 23.76 -0.42, 41.27 0 M0 0 C15.09 0.47, 30.49 0.12, 41.27 0 M41.27 0 C40.82 10.22, 40.91 19.42, 41.27 43.7 M41.27 0 C40.92 11.06, 41.09 22.51, 41.27 43.7 M41.27 43.7 C28.42 43.94, 14.69 42.94, 0 43.7 M41.27 43.7 C26.57 43.41, 11.41 44.04, 0 43.7 M0 43.7 C-0.43 31.28, -0.23 17.89, 0 0 M0 43.7 C0.46 34.17, -0.05 25.2, 0 0" stroke="#000000" stroke-width="4" fill="none"></path></g><g stroke-linecap="round" transform="translate(264.0154604388342 374.0841520450808) rotate(0 20.63642054643131 21.850327637397868)"><path d="M0 0 C16.31 -0.31, 32.95 0.42, 41.27 0 M0 0 C8.54 -0.17, 17.53 0.06, 41.27 0 M41.27 0 C40.71 10.18, 40.74 21.64, 41.27 43.7 M41.27 0 C40.9 12.26, 41.27 24.3, 41.27 43.7 M41.27 43.7 C25.78 42.76, 9.3 44.7, 0 43.7 M41.27 43.7 C29.13 43.95, 17.17 43.95, 0 43.7 M0 43.7 C-0.02 29.67, -0.78 14.68, 0 0 M0 43.7 C-0.31 32.37, 0.24 20.37, 0 0" stroke="#000000" stroke-width="4" fill="none"></path></g><g stroke-linecap="round" transform="translate(305.28830153169815 374.0841520450808) rotate(0 20.63642054643128 21.850327637397868)"><path d="M0 0 C14.51 0.53, 26.7 -0.67, 41.27 0 M0 0 C14.51 0.21, 29.46 -0.24, 41.27 0 M41.27 0 C40.76 14.14, 40.99 27.34, 41.27 43.7 M41.27 0 C41.34 10.96, 41.66 22.89, 41.27 43.7 M41.27 43.7 C29.3 44.5, 16.03 43.86, 0 43.7 M41.27 43.7 C31.14 44.21, 21.17 43.71, 0 43.7 M0 43.7 C-0.82 27.49, -0.3 12.93, 0 0 M0 43.7 C0.47 31.44, 0.37 18.53, 0 0" stroke="#000000" stroke-width="4" fill="none"></path></g><g stroke-linecap="round" transform="translate(346.5611426245489 374.0841520450808) rotate(0 20.63642054643128 21.850327637397868)"><path d="M0 0 C10.56 -0.82, 23.39 -0.91, 41.27 0 M0 0 C11.71 -0.34, 24.06 -0.3, 41.27 0 M41.27 0 C40.99 9.79, 40.75 20.66, 41.27 43.7 M41.27 0 C41.82 13.22, 41.37 25.99, 41.27 43.7 M41.27 43.7 C32.75 44.27, 23.85 43.72, 0 43.7 M41.27 43.7 C26.07 43.72, 10.91 43.81, 0 43.7 M0 43.7 C-0.14 30.25, 0.01 15.06, 0 0 M0 43.7 C0.13 26.78, 0.17 10.46, 0 0" stroke="#000000" stroke-width="4" fill="none"></path></g><g stroke-linecap="round" transform="translate(388.68359309241146 374.0841520450808) rotate(0 20.63642054643128 21.850327637397868)"><path d="M0 0 L41.27 0 L41.27 43.7 L0 43.7" stroke="none" stroke-width="0" fill="#f08c00"></path><path d="M0 0 C14.38 0, 28.76 0, 41.27 0 M0 0 C13.91 0, 27.82 0, 41.27 0 M41.27 0 C41.27 13.53, 41.27 27.06, 41.27 43.7 M41.27 0 C41.27 10.64, 41.27 21.28, 41.27 43.7 M41.27 43.7 C24.8 43.7, 8.32 43.7, 0 43.7 M41.27 43.7 C25.89 43.7, 10.51 43.7, 0 43.7 M0 43.7 C0 32.62, 0 21.53, 0 0 M0 43.7 C0 29.68, 0 15.67, 0 0" stroke="#000000" stroke-width="4" fill="none"></path></g><g stroke-linecap="round" transform="translate(428.58075654129266 374.0841520450808) rotate(0 20.63642054643128 21.850327637397868)"><path d="M-0.17 0.89 L41.51 -0.08 L40.51 44.58 L0.86 43.36" stroke="none" stroke-width="0" fill="#f08c00"></path><path d="M0 0 C9.32 -0.54, 19.21 -0.37, 41.27 0 M0 0 C9.9 -0.12, 20.45 0, 41.27 0 M41.27 0 C41.11 10.15, 40.61 20.62, 41.27 43.7 M41.27 0 C40.81 17.07, 41.78 33.48, 41.27 43.7 M41.27 43.7 C28.12 43.64, 14.27 43.93, 0 43.7 M41.27 43.7 C30.11 43.27, 18.48 43.53, 0 43.7 M0 43.7 C0.81 28.24, 0.24 11.78, 0 0 M0 43.7 C-0.45 34.87, 0.19 25.38, 0 0" stroke="#000000" stroke-width="4" fill="none"></path></g><g stroke-linecap="round" transform="translate(469.57039450916704 374.0841520450808) rotate(0 20.63642054643128 21.850327637397868)"><path d="M0.24 -0.08 L40.51 0.87 L42.14 43.36 L-0.4 42.88" stroke="none" stroke-width="0" fill="#f08c00"></path><path d="M0 0 C9.42 -0.39, 17.58 0.36, 41.27 0 M0 0 C10.6 -0.01, 20.73 -0.13, 41.27 0 M41.27 0 C40.69 12.25, 42.09 22.65, 41.27 43.7 M41.27 0 C41.56 16.54, 41.24 32.89, 41.27 43.7 M41.27 43.7 C30.4 43.96, 17.81 44.3, 0 43.7 M41.27 43.7 C28.97 43.37, 17.49 43.44, 0 43.7 M0 43.7 C0.04 32.53, -1.06 20.83, 0 0 M0 43.7 C0.48 33.27, 0.05 23.1, 0 0" stroke="#000000" stroke-width="4" fill="none"></path></g><g stroke-linecap="round" transform="translate(510.20846335236934 374.0841520450808) rotate(0 20.63642054643128 21.850327637397868)"><path d="M-0.76 0.87 L42.14 -0.34 L40.87 42.88 L-0.79 42.77" stroke="none" stroke-width="0" fill="#f08c00"></path><path d="M0 0 C8.92 0.32, 18.46 -0.48, 41.27 0 M0 0 C10.27 -0.18, 21.08 0, 41.27 0 M41.27 0 C41.99 14.54, 41.94 28.04, 41.27 43.7 M41.27 0 C41.67 15.48, 41.39 31.87, 41.27 43.7 M41.27 43.7 C28.71 44.36, 16.6 44, 0 43.7 M41.27 43.7 C32.71 43.55, 23.28 44.02, 0 43.7 M0 43.7 C-0.94 27.78, -0.64 9.89, 0 0 M0 43.7 C-0.24 27.77, -0.03 10.9, 0 0" stroke="#000000" stroke-width="4" fill="none"></path></g><g stroke-linecap="round" transform="translate(551.4813044452355 374.0841520450808) rotate(0 20.63642054643128 21.850327637397868)"><path d="M0.86 -0.34 L40.87 -0.82 L40.48 42.77 L0.48 44.11" stroke="none" stroke-width="0" fill="#f08c00"></path><path d="M0 0 C9.73 -0.63, 19.93 0.05, 41.27 0 M0 0 C11.4 0.05, 23.38 -0.19, 41.27 0 M41.27 0 C42.25 16.29, 42.06 35.48, 41.27 43.7 M41.27 0 C41.26 13.11, 41.34 25.87, 41.27 43.7 M41.27 43.7 C27.71 44.07, 13.47 43.36, 0 43.7 M41.27 43.7 C30.05 44.05, 19.54 43.77, 0 43.7 M0 43.7 C-0.4 27.35, 0.94 12.88, 0 0 M0 43.7 C0.16 29.76, -0.34 16.34, 0 0" stroke="#000000" stroke-width="4" fill="none"></path></g><g stroke-linecap="round" transform="translate(592.8097829464411 374.0841520450808) rotate(0 20.63642054643128 21.850327637397868)"><path d="M0 0 C12.84 0.22, 26.34 -0.63, 41.27 0 M0 0 C10.77 -0.27, 21.7 0.43, 41.27 0 M41.27 0 C42.05 14.31, 41.37 27, 41.27 43.7 M41.27 0 C41.22 11.08, 41.36 21.3, 41.27 43.7 M41.27 43.7 C25.56 43.29, 11.21 44.47, 0 43.7 M41.27 43.7 C30 43.96, 18.22 43.41, 0 43.7 M0 43.7 C0.88 28.29, 0.31 11.33, 0 0 M0 43.7 C-0.43 27.13, 0.38 9.52, 0 0" stroke="#000000" stroke-width="4" fill="none"></path></g><g stroke-linecap="round" transform="translate(634.082624039296 374.0841520450808) rotate(0 20.63642054643128 21.850327637397868)"><path d="M0 0 C9.76 -0.77, 19.47 -0.43, 41.27 0 M0 0 C12.56 0.53, 24.2 0.51, 41.27 0 M41.27 0 C41.32 9.29, 40.86 17.68, 41.27 43.7 M41.27 0 C41.4 16.1, 41.57 32.44, 41.27 43.7 M41.27 43.7 C27.57 44.33, 14.34 43.3, 0 43.7 M41.27 43.7 C26.02 43.3, 10.5 43.45, 0 43.7 M0 43.7 C0.02 33.03, 0.73 22.95, 0 0 M0 43.7 C0.6 30.77, -0.03 17.77, 0 0" stroke="#000000" stroke-width="4" fill="none"></path></g><g stroke-linecap="round" transform="translate(675.760100829152 374.0841520450808) rotate(0 20.63642054643128 21.850327637397868)"><path d="M0 0 C12.35 -0.26, 25.48 0.47, 41.27 0 M0 0 C10.07 0.22, 19.62 0.13, 41.27 0 M41.27 0 C40.71 17.26, 41.97 34.87, 41.27 43.7 M41.27 0 C41.63 16.25, 41.45 32.16, 41.27 43.7 M41.27 43.7 C30.63 43.54, 21.11 44.65, 0 43.7 M41.27 43.7 C28.38 43.22, 14.5 43.89, 0 43.7 M0 43.7 C0.85 27.82, -0.12 10.7, 0 0 M0 43.7 C-0.39 26.36, -0.58 9.37, 0 0" stroke="#000000" stroke-width="4" fill="none"></path></g><g stroke-linecap="round" transform="translate(717.0329419220077 374.0841520450808) rotate(0 20.63642054643128 21.850327637397868)"><path d="M0 0 C9.22 0.4, 18.02 1.03, 41.27 0 M0 0 C15.35 0.14, 32.16 -0.2, 41.27 0 M41.27 0 C41.87 14.66, 41.88 29.63, 41.27 43.7 M41.27 0 C41.53 11.52, 41.17 23.73, 41.27 43.7 M41.27 43.7 C26.68 44.44, 10.76 44.24, 0 43.7 M41.27 43.7 C32.28 43.95, 24.23 43.67, 0 43.7 M0 43.7 C-0.28 30.58, 0.68 19.84, 0 0 M0 43.7 C-0.31 31.62, 0.33 20.68, 0 0" stroke="#000000" stroke-width="4" fill="none"></path></g><g stroke-linecap="round" transform="translate(758.3057830148844 374.0841520450808) rotate(0 20.63642054643128 21.850327637397868)"><path d="M0 0 C10.11 0.88, 22.19 -0.02, 41.27 0 M0 0 C16.16 -0.17, 31.5 -0.4, 41.27 0 M41.27 0 C42.16 12.55, 41.16 25.16, 41.27 43.7 M41.27 0 C41.09 12.62, 41.69 25.48, 41.27 43.7 M41.27 43.7 C30.36 44.47, 18.13 44.55, 0 43.7 M41.27 43.7 C31.68 43.95, 21.31 44.3, 0 43.7 M0 43.7 C0.89 30.42, -0.33 15.01, 0 0 M0 43.7 C0.41 34.4, 0.19 24.42, 0 0" stroke="#000000" stroke-width="4" fill="none"></path></g><g stroke-linecap="round" transform="translate(799.5786241077374 374.0841520450808) rotate(0 20.63642054643128 21.850327637397868)"><path d="M0 0 C14.53 -0.15, 28.17 -1.15, 41.27 0 M0 0 C15.06 -0.26, 29.67 0.37, 41.27 0 M41.27 0 C41.16 13.63, 41.36 26.29, 41.27 43.7 M41.27 0 C41.53 9.36, 41.02 19.27, 41.27 43.7 M41.27 43.7 C24.7 44.51, 9.31 43.23, 0 43.7 M41.27 43.7 C25.72 44.18, 10.45 43.7, 0 43.7 M0 43.7 C-0.53 33.51, -1.02 23.32, 0 0 M0 43.7 C-0.09 34.4, -0.07 25.81, 0 0" stroke="#000000" stroke-width="4" fill="none"></path></g><g stroke-linecap="round" transform="translate(840.0421938066272 374.0841520450808) rotate(0 20.63642054643128 21.850327637397868)"><path d="M0 0 C17.08 -0.97, 33.18 0.98, 41.27 0 M0 0 C11.95 0.47, 24.08 0.48, 41.27 0 M41.27 0 C41.14 14.52, 40.38 28.09, 41.27 43.7 M41.27 0 C41.28 12.1, 41.83 23.54, 41.27 43.7 M41.27 43.7 C25.8 43.24, 12.26 44.53, 0 43.7 M41.27 43.7 C28.26 43.84, 14.64 44.32, 0 43.7 M0 43.7 C-0.75 26.03, -0.86 10.42, 0 0 M0 43.7 C0.03 28.96, -0.42 14.27, 0 0" stroke="#000000" stroke-width="4" fill="none"></path></g><g stroke-linecap="round" transform="translate(881.3150348994893 374.0841520450808) rotate(0 20.63642054643128 21.850327637397868)"><path d="M0 0 C13.18 1.19, 25.08 0.56, 41.27 0 M0 0 C10.11 0.22, 20.37 -0.28, 41.27 0 M41.27 0 C40.42 15.28, 40.94 32.22, 41.27 43.7 M41.27 0 C41.61 12.47, 41.51 24.28, 41.27 43.7 M41.27 43.7 C26.81 44.27, 11.04 43.41, 0 43.7 M41.27 43.7 C24.83 44.12, 9.58 43.51, 0 43.7 M0 43.7 C-0.75 32.81, 0.59 20.99, 0 0 M0 43.7 C-0.42 33.34, 0.06 22.62, 0 0" stroke="#000000" stroke-width="4" fill="none"></path></g><g transform="translate(112.23730899330099 348.6967108967342) rotate(0 6.326666831970215 11.691096928374236)"><text x="0" y="0" font-family="Virgil, Segoe UI Emoji" font-size="18.301158707126586px" fill="#000000" text-anchor="start" style="white-space: pre;" direction="ltr" dominant-baseline="text-before-edge">0</text></g><g transform="translate(157.72257196101395 348.5862728700672) rotate(0 2.493333339691162 11.691096928374236)"><text x="0" y="0" font-family="Virgil, Segoe UI Emoji" font-size="18.30115870712659px" fill="#000000" text-anchor="start" style="white-space: pre;" direction="ltr" dominant-baseline="text-before-edge">1</text></g><g transform="translate(195.0752815016965 348.5862728700672) rotate(0 6.553333282470703 11.691096928374236)"><text x="0" y="0" font-family="Virgil, Segoe UI Emoji" font-size="18.301158707126557px" fill="#000000" text-anchor="start" style="white-space: pre;" direction="ltr" dominant-baseline="text-before-edge">2</text></g><g transform="translate(236.5374449259955 348.5862728700672) rotate(0 6.266666889190674 11.691096928374236)"><text x="0" y="0" font-family="Virgil, Segoe UI Emoji" font-size="18.30115870712661px" fill="#000000" text-anchor="start" style="white-space: pre;" direction="ltr" dominant-baseline="text-before-edge">3</text></g><g transform="translate(278.59356637876294 348.5862728700672) rotate(0 5.886666774749756 11.691096928374236)"><text x="0" y="0" font-family="Virgil, Segoe UI Emoji" font-size="18.301158707126614px" fill="#000000" text-anchor="start" style="white-space: pre;" direction="ltr" dominant-baseline="text-before-edge">4</text></g><g transform="translate(320.05572980308193 348.5862728700672) rotate(0 5.686666488647461 11.691096928374236)"><text x="0" y="0" font-family="Virgil, Segoe UI Emoji" font-size="18.301158707126596px" fill="#000000" text-anchor="start" style="white-space: pre;" direction="ltr" dominant-baseline="text-before-edge">5</text></g><g transform="translate(361.1392485644917 348.5862728700672) rotate(0 5.886666774749756 11.691096928374236)"><text x="0" y="0" font-family="Virgil, Segoe UI Emoji" font-size="18.301158707126614px" fill="#000000" text-anchor="start" style="white-space: pre;" direction="ltr" dominant-baseline="text-before-edge">6</text></g><g transform="translate(403.3587013146109 348.5862728700672) rotate(0 4.946666717529297 11.691096928374236)"><text x="0" y="0" font-family="Virgil, Segoe UI Emoji" font-size="18.3011587071266px" fill="#000000" text-anchor="start" style="white-space: pre;" direction="ltr" dominant-baseline="text-before-edge">7</text></g><g transform="translate(441.73972536751603 348.5862728700672) rotate(0 7.039999961853027 11.691096928374236)"><text x="0" y="0" font-family="Virgil, Segoe UI Emoji" font-size="18.301158707126586px" fill="#000000" text-anchor="start" style="white-space: pre;" direction="ltr" dominant-baseline="text-before-edge">8</text></g><g transform="translate(484.5271451119968 348.5862728700672) rotate(0 5.599999904632568 11.691096928374236)"><text x="0" y="0" font-family="Virgil, Segoe UI Emoji" font-size="18.301158707126575px" fill="#000000" text-anchor="start" style="white-space: pre;" direction="ltr" dominant-baseline="text-before-edge">9</text></g><g transform="translate(521.946734320509 348.5862728700672) rotate(0 8.819999694824219 11.691096928374236)"><text x="0" y="0" font-family="Virgil, Segoe UI Emoji" font-size="18.301158707126593px" fill="#000000" text-anchor="start" style="white-space: pre;" direction="ltr" dominant-baseline="text-before-edge">10</text></g><g transform="translate(567.0060220424282 348.5862728700672) rotate(0 4.986666679382324 11.691096928374236)"><text x="0" y="0" font-family="Virgil, Segoe UI Emoji" font-size="18.3011587071266px" fill="#000000" text-anchor="start" style="white-space: pre;" direction="ltr" dominant-baseline="text-before-edge">11</text></g><g transform="translate(604.1694092516861 348.5862728700672) rotate(0 9.046667098999023 11.691096928374236)"><text x="0" y="0" font-family="Virgil, Segoe UI Emoji" font-size="18.30115870712659px" fill="#000000" text-anchor="start" style="white-space: pre;" direction="ltr" dominant-baseline="text-before-edge">12</text></g><g transform="translate(645.8208950074284 348.5862728700672) rotate(0 8.760000228881836 11.691096928374236)"><text x="0" y="0" font-family="Virgil, Segoe UI Emoji" font-size="18.301158707126614px" fill="#000000" text-anchor="start" style="white-space: pre;" direction="ltr" dominant-baseline="text-before-edge">13</text></g><g transform="translate(687.8770164601945 348.5862728700672) rotate(0 8.380000114440918 11.691096928374236)"><text x="0" y="0" font-family="Virgil, Segoe UI Emoji" font-size="18.301158707126604px" fill="#000000" text-anchor="start" style="white-space: pre;" direction="ltr" dominant-baseline="text-before-edge">14</text></g><g transform="translate(729.3391798845021 348.5862728700672) rotate(0 8.180000305175781 11.691096928374236)"><text x="0" y="0" font-family="Virgil, Segoe UI Emoji" font-size="18.301158707126575px" fill="#000000" text-anchor="start" style="white-space: pre;" direction="ltr" dominant-baseline="text-before-edge">15</text></g><g transform="translate(770.4226986459123 348.5862728700672) rotate(0 8.380000114440918 11.691096928374236)"><text x="0" y="0" font-family="Virgil, Segoe UI Emoji" font-size="18.301158707126604px" fill="#000000" text-anchor="start" style="white-space: pre;" direction="ltr" dominant-baseline="text-before-edge">16</text></g><g transform="translate(812.6421513960429 348.5862728700672) rotate(0 7.440000057220459 11.691096928374236)"><text x="0" y="0" font-family="Virgil, Segoe UI Emoji" font-size="18.30115870712658px" fill="#000000" text-anchor="start" style="white-space: pre;" direction="ltr" dominant-baseline="text-before-edge">17</text></g><g transform="translate(851.0231754489403 348.5862728700672) rotate(0 9.533333778381348 11.691096928374236)"><text x="0" y="0" font-family="Virgil, Segoe UI Emoji" font-size="18.30115870712659px" fill="#000000" text-anchor="start" style="white-space: pre;" direction="ltr" dominant-baseline="text-before-edge">18</text></g><g transform="translate(893.6212728619792 348.5862728700672) rotate(0 8.09333324432373 11.691096928374236)"><text x="0" y="0" font-family="Virgil, Segoe UI Emoji" font-size="18.30115870712659px" fill="#000000" text-anchor="start" style="white-space: pre;" direction="ltr" dominant-baseline="text-before-edge">19</text></g><g transform="translate(908.6967479147017 486.23046196997166) rotate(0 36.753334045410156 12.5)"><text x="0" y="0" font-family="Virgil, Segoe UI Emoji" font-size="20px" fill="#1e1e1e" text-anchor="start" style="white-space: pre;" direction="ltr" dominant-baseline="text-before-edge">Runtime</text></g><g stroke-linecap="round"><g transform="translate(474.4933319091797 44.34853044370652) rotate(0 86.5 -1.2403480304552659)"><path d="M0 0 C57.63 -0.83, 115.26 -1.65, 173 -2.48 M0 0 C63.07 -0.9, 126.14 -1.81, 173 -2.48" stroke="#000000" stroke-width="1" fill="none"></path></g><g transform="translate(474.4933319091797 44.34853044370652) rotate(0 86.5 -1.2403480304552659)"><path d="M173 -2.48 L159.5 4.05 L159.32 -8.62 L173 -2.48" stroke="none" stroke-width="0" fill="#000000" fill-rule="evenodd"></path><path d="M173 -2.48 C168.5 -0.3, 164 1.87, 159.5 4.05 M173 -2.48 C168.08 -0.1, 163.15 2.28, 159.5 4.05 M159.5 4.05 C159.45 1.04, 159.41 -1.98, 159.32 -8.62 M159.5 4.05 C159.46 1.35, 159.42 -1.36, 159.32 -8.62 M159.32 -8.62 C162.47 -7.21, 165.63 -5.79, 173 -2.48 M159.32 -8.62 C163.94 -6.55, 168.56 -4.48, 173 -2.48 M173 -2.48 C173 -2.48, 173 -2.48, 173 -2.48 M173 -2.48 C173 -2.48, 173 -2.48, 173 -2.48" stroke="#000000" stroke-width="1" fill="none"></path></g></g><mask></mask><g transform="translate(489.33402252197266 14.01523098498592) rotate(0 70.30000305175781 9.600000000000023)"><text x="70.30000305175781" y="0" font-family="Cascadia, Segoe UI Emoji" font-size="16px" fill="#000000" text-anchor="middle" style="white-space: pre;" direction="ltr" dominant-baseline="text-before-edge">function.call()</text></g><g transform="translate(442.5566654205322 31.36523098498583) rotate(0 4.686666488647461 9.600000000000023)"><text x="4.686666488647461" y="0" font-family="Cascadia, Segoe UI Emoji" font-size="16px" fill="#1971c2" text-anchor="middle" style="white-space: pre;" direction="ltr" dominant-baseline="text-before-edge">1</text></g><g stroke-linecap="round"><g transform="translate(101.74333190917969 141.86523098498583) rotate(0 0.625 68.125)"><path d="M0 0 C0.38 40.9, 0.75 81.81, 1.25 136.25 M0 0 C0.37 40.08, 0.74 80.16, 1.25 136.25" stroke="#1e1e1e" stroke-width="1" fill="none"></path></g><g transform="translate(101.74333190917969 141.86523098498583) rotate(0 0.625 68.125)"><path d="M1.25 136.25 L-5.21 122.71 L7.46 122.6 L1.25 136.25" stroke="none" stroke-width="0" fill="#1e1e1e" fill-rule="evenodd"></path><path d="M1.25 136.25 C-0.69 132.19, -2.63 128.12, -5.21 122.71 M1.25 136.25 C-0.65 132.27, -2.55 128.29, -5.21 122.71 M-5.21 122.71 C-1.51 122.68, 2.2 122.65, 7.46 122.6 M-5.21 122.71 C-1.47 122.68, 2.27 122.65, 7.46 122.6 M7.46 122.6 C5.31 127.33, 3.16 132.05, 1.25 136.25 M7.46 122.6 C5.47 126.98, 3.47 131.36, 1.25 136.25 M1.25 136.25 C1.25 136.25, 1.25 136.25, 1.25 136.25 M1.25 136.25 C1.25 136.25, 1.25 136.25, 1.25 136.25" stroke="#1e1e1e" stroke-width="1" fill="none"></path></g></g><mask></mask><g transform="translate(10 244.11523098498583) rotate(0 37.49333190917969 9.600000000000023)"><text x="37.49333190917969" y="0" font-family="Cascadia, Segoe UI Emoji" font-size="16px" fill="#1e1e1e" text-anchor="middle" style="white-space: pre;" direction="ltr" dominant-baseline="text-before-edge">alloc(5)</text></g><g transform="translate(112.05999946594238 147.61523098498583) rotate(0 23.433332443237305 9.600000000000023)"><text x="23.433332443237305" y="0" font-family="Cascadia, Segoe UI Emoji" font-size="16px" fill="#1e1e1e" text-anchor="middle" style="white-space: pre;" direction="ltr" dominant-baseline="text-before-edge">ptr=7</text></g><g transform="translate(220.8619293340264 172.17056493523523) rotate(0 79.67333221435547 38.39999999999998)"><text x="0" y="0" font-family="Cascadia, Segoe UI Emoji" font-size="16px" fill="#1e1e1e" text-anchor="start" style="white-space: pre;" direction="ltr" dominant-baseline="text-before-edge">write(</text><text x="0" y="19.2" font-family="Cascadia, Segoe UI Emoji" font-size="16px" fill="#1e1e1e" text-anchor="start" style="white-space: pre;" direction="ltr" dominant-baseline="text-before-edge">  7,</text><text x="0" y="38.4" font-family="Cascadia, Segoe UI Emoji" font-size="16px" fill="#1e1e1e" text-anchor="start" style="white-space: pre;" direction="ltr" dominant-baseline="text-before-edge">  []byte("hello")</text><text x="0" y="57.599999999999994" font-family="Cascadia, Segoe UI Emoji" font-size="16px" fill="#1e1e1e" text-anchor="start" style="white-space: pre;" direction="ltr" dominant-baseline="text-before-edge">)</text></g><g stroke-linecap="round"><g transform="translate(640.5494293340264 92.57373740018829) rotate(0 -81.5 0.4962920266408446)"><path d="M0 0 C-27.17 0.17, -135.83 0.83, -163 0.99 M0 0 C-27.17 0.17, -135.83 0.83, -163 0.99" stroke="#1e1e1e" stroke-width="1" fill="none"></path></g><g transform="translate(640.5494293340264 92.57373740018829) rotate(0 -81.5 0.4962920266408446)"><path d="M-163 0.99 L-149.44 -5.43 L-149.37 7.25 L-163 0.99" stroke="none" stroke-width="0" fill="#1e1e1e" fill-rule="evenodd"></path><path d="M-163 0.99 C-160.05 -0.41, -157.09 -1.81, -149.44 -5.43 M-163 0.99 C-158.42 -1.18, -153.85 -3.34, -149.44 -5.43 M-149.44 -5.43 C-149.43 -2.3, -149.41 0.83, -149.37 7.25 M-149.44 -5.43 C-149.42 -2.24, -149.41 0.96, -149.37 7.25 M-149.37 7.25 C-153.86 5.19, -158.35 3.13, -163 0.99 M-149.37 7.25 C-153.8 5.21, -158.24 3.18, -163 0.99 M-163 0.99 C-163 0.99, -163 0.99, -163 0.99 M-163 0.99 C-163 0.99, -163 0.99, -163 0.99" stroke="#1e1e1e" stroke-width="1" fill="none"></path></g></g><mask></mask><g transform="translate(501.1160911687432 64.0705649352351) rotate(0 51.5533332824707 9.600000000000023)"><text x="51.5533332824707" y="0" font-family="Cascadia, Segoe UI Emoji" font-size="16px" fill="#1e1e1e" text-anchor="middle" style="white-space: pre;" direction="ltr" dominant-baseline="text-before-edge">get_value()</text></g><g transform="translate(522.6227630742608 98.5705649352351) rotate(0 60.926666259765625 9.600000000000023)"><text x="60.926666259765625" y="0" font-family="Cascadia, Segoe UI Emoji" font-size="16px" fill="#1e1e1e" text-anchor="middle" style="white-space: pre;" direction="ltr" dominant-baseline="text-before-edge">ptr=7, size=5</text></g><g stroke-linecap="round"><g transform="translate(390.24810337483507 141.5705649352351) rotate(0 -0.7432103021689613 105.07662886115315)"><path d="M0 0 C-0.25 35.03, -1.24 175.13, -1.49 210.15 M0 0 C-0.25 35.03, -1.24 175.13, -1.49 210.15" stroke="#1e1e1e" stroke-width="1" fill="none"></path></g><g transform="translate(390.24810337483507 141.5705649352351) rotate(0 -0.7432103021689613 105.07662886115315)"><path d="M-1.49 210.15 L-7.73 196.51 L4.95 196.6 L-1.49 210.15" stroke="none" stroke-width="0" fill="#1e1e1e" fill-rule="evenodd"></path><path d="M-1.49 210.15 C-3.82 205.06, -6.15 199.96, -7.73 196.51 M-1.49 210.15 C-2.91 207.05, -4.32 203.95, -7.73 196.51 M-7.73 196.51 C-4.99 196.53, -2.24 196.55, 4.95 196.6 M-7.73 196.51 C-2.67 196.55, 2.39 196.59, 4.95 196.6 M4.95 196.6 C2.47 201.82, -0.01 207.04, -1.49 210.15 M4.95 196.6 C2.49 201.78, 0.03 206.96, -1.49 210.15 M-1.49 210.15 C-1.49 210.15, -1.49 210.15, -1.49 210.15 M-1.49 210.15 C-1.49 210.15, -1.49 210.15, -1.49 210.15" stroke="#1e1e1e" stroke-width="1" fill="none"></path></g></g><mask></mask><g stroke-linecap="round"><g transform="translate(655.5549457052459 128.56791225399297) rotate(0 -129.50275818560976 113.00132634062106)"><path d="M0 0 C-30.5 14.67, -139.84 50.34, -183.01 88 C-226.17 125.67, -246.34 203, -259.01 226 M0 0 C-30.5 14.67, -139.84 50.34, -183.01 88 C-226.17 125.67, -246.34 203, -259.01 226" stroke="#1e1e1e" stroke-width="1" fill="none"></path></g><g transform="translate(655.5549457052459 128.56791225399297) rotate(0 -129.50275818560976 113.00132634062106)"><path d="M-259.01 226 L-259.57 211.01 L-247.88 215.94 L-259.01 226" stroke="none" stroke-width="0" fill="#1e1e1e" fill-rule="evenodd"></path><path d="M-259.01 226 C-259.13 222.6, -259.26 219.19, -259.57 211.01 M-259.01 226 C-259.18 221.3, -259.36 216.6, -259.57 211.01 M-259.57 211.01 C-256.72 212.21, -253.88 213.41, -247.88 215.94 M-259.57 211.01 C-256.9 212.14, -254.24 213.26, -247.88 215.94 M-247.88 215.94 C-251.75 219.43, -255.61 222.93, -259.01 226 M-247.88 215.94 C-251.62 219.32, -255.36 222.7, -259.01 226 M-259.01 226 C-259.01 226, -259.01 226, -259.01 226 M-259.01 226 C-259.01 226, -259.01 226, -259.01 226" stroke="#1e1e1e" stroke-width="1" fill="none"></path></g></g><mask></mask><g transform="translate(511.3694290288506 209.5705649352351) rotate(0 42.18000030517578 9.600000000000023)"><text x="42.18000030517578" y="0" font-family="Cascadia, Segoe UI Emoji" font-size="16px" fill="#1e1e1e" text-anchor="middle" style="white-space: pre;" direction="ltr" dominant-baseline="text-before-edge">read(7,5)</text></g><g transform="translate(662.8627628453789 83.97056493523496) rotate(0 4.686666488647461 9.600000000000023)"><text x="4.686666488647461" y="0" font-family="Cascadia, Segoe UI Emoji" font-size="16px" fill="#1971c2" text-anchor="middle" style="white-space: pre;" direction="ltr" dominant-baseline="text-before-edge">2</text></g><g transform="translate(96.86276284537894 103.97056493523496) rotate(0 4.686666488647461 9.600000000000023)"><text x="4.686666488647461" y="0" font-family="Cascadia, Segoe UI Emoji" font-size="16px" fill="#1971c2" text-anchor="middle" style="white-space: pre;" direction="ltr" dominant-baseline="text-before-edge">3</text></g><g transform="translate(386.86276284537894 107.97056493523496) rotate(0 4.686666488647461 9.600000000000023)"><text x="4.686666488647461" y="0" font-family="Cascadia, Segoe UI Emoji" font-size="16px" fill="#1971c2" text-anchor="middle" style="white-space: pre;" direction="ltr" dominant-baseline="text-before-edge">4</text></g><g transform="translate(669.8627628453789 108.97056493523496) rotate(0 4.686666488647461 9.600000000000023)"><text x="4.686666488647461" y="0" font-family="Cascadia, Segoe UI Emoji" font-size="16px" fill="#1971c2" text-anchor="middle" style="white-space: pre;" direction="ltr" dominant-baseline="text-before-edge">5</text></g><g stroke-linecap="round"><g transform="translate(738.5494293340264 145.5705649352351) rotate(0 0.5 69.5)"><path d="M0 0 C0.17 23.17, 0.83 115.83, 1 139 M0 0 C0.17 23.17, 0.83 115.83, 1 139" stroke="#1e1e1e" stroke-width="1" fill="none"></path></g><g transform="translate(738.5494293340264 145.5705649352351) rotate(0 0.5 69.5)"><path d="M1 139 L-5.44 125.45 L7.24 125.36 L1 139" stroke="none" stroke-width="0" fill="#1e1e1e" fill-rule="evenodd"></path><path d="M1 139 C-0.61 135.6, -2.23 132.21, -5.44 125.45 M1 139 C-0.52 135.8, -2.04 132.61, -5.44 125.45 M-5.44 125.45 C-0.71 125.42, 4.01 125.38, 7.24 125.36 M-5.44 125.45 C-2.56 125.43, 0.31 125.41, 7.24 125.36 M7.24 125.36 C5.03 130.19, 2.82 135.02, 1 139 M7.24 125.36 C5.3 129.59, 3.37 133.83, 1 139 M1 139 C1 139, 1 139, 1 139 M1 139 C1 139, 1 139, 1 139" stroke="#1e1e1e" stroke-width="1" fill="none"></path></g></g><mask></mask><g transform="translate(754.6227630742608 209.5705649352351) rotate(0 60.926666259765625 9.600000000000023)"><text x="60.926666259765625" y="0" font-family="Cascadia, Segoe UI Emoji" font-size="16px" fill="#1e1e1e" text-anchor="middle" style="white-space: pre;" direction="ltr" dominant-baseline="text-before-edge">dealloc(7, 5)</text></g></svg>