<svg version="1.1" xmlns="http://www.w3.org/2000/svg" viewBox="0 0 1177.514122986449 458.875" width="1177.514122986449" height="458.875">
  <!-- svg-source:excalidraw -->
  
  <defs>
    <style class="style-fonts">
      @font-face {
        font-family: "Virgil";
        src: url("https://excalidraw.com/Virgil.woff2");
      }
      @font-face {
        font-family: "Cascadia";
        src: url("https://excalidraw.com/Cascadia.woff2");
      }
      @font-face {
        font-family: "Assistant";
        src: url("https://app.excalidraw.com//dist/excalidraw-assets/Assistant-Regular.woff2");
      }
    </style>
    
  </defs>
  <rect x="0" y="0" width="1177.514122986449" height="458.875" fill="#ffffff"></rect><g stroke-linecap="round"><g transform="translate(17.60794060085351 31.794600418330447) rotate(0 44.06059301640448 47.85201411482009)" fill-rule="evenodd"><path d="M-0.94 -2.15 C-0.83 12.48, 0.66 69.58, 0.5 86.03 C0.33 102.48, -2.66 94.37, -1.93 96.56 C-1.2 98.74, 1.13 97.76, 4.89 99.14 C8.65 100.52, 13.52 103.47, 20.63 104.82 C27.74 106.17, 38.84 107.25, 47.55 107.23 C56.26 107.21, 66.45 106.47, 72.89 104.69 C79.33 102.91, 83.99 98.3, 86.2 96.55 C88.4 94.79, 85.77 95.7, 86.12 94.17 C86.46 92.63, 87.77 101.63, 88.25 87.34 C88.73 73.05, 89.11 23.04, 88.99 8.44 C88.88 -6.17, 88.44 1.76, 87.55 -0.27 C86.67 -2.31, 86.37 -2.84, 83.68 -3.77 C80.99 -4.7, 78.04 -5.24, 71.42 -5.85 C64.8 -6.47, 52.4 -7.48, 43.98 -7.45 C35.55 -7.41, 27.58 -6.57, 20.89 -5.64 C14.21 -4.72, 7.01 -2.81, 3.88 -1.89 C0.76 -0.97, 2.48 -0.6, 2.16 -0.13 C1.84 0.35, 2.41 0.74, 1.94 0.96" stroke="none" stroke-width="0" fill="#228be6" fill-rule="evenodd"></path><path d="M0.06 -0.53 C-0.01 13.99, -0.47 70.69, -0.36 86.78 C-0.25 102.88, -0.02 93.91, 0.72 96.05 C1.45 98.19, 0.73 98.52, 4.07 99.63 C7.41 100.75, 13.77 101.93, 20.74 102.73 C27.71 103.53, 37.22 104.57, 45.91 104.44 C54.6 104.32, 66.29 102.82, 72.91 101.97 C79.52 101.12, 83.24 100.38, 85.6 99.34 C87.96 98.3, 86.8 97.9, 87.06 95.74 C87.31 93.57, 86.89 100.89, 87.11 86.33 C87.33 71.77, 88.25 22.85, 88.38 8.36 C88.52 -6.13, 88.93 1.47, 87.92 -0.61 C86.91 -2.69, 85.22 -2.99, 82.31 -4.12 C79.39 -5.25, 76.84 -6.5, 70.42 -7.38 C64.01 -8.26, 52.15 -9.15, 43.8 -9.4 C35.45 -9.65, 26.8 -9.84, 20.32 -8.86 C13.84 -7.88, 8.35 -4.98, 4.91 -3.52 C1.47 -2.06, 0.48 -0.64, -0.3 -0.08 C-1.08 0.48, 0.04 -0.3, 0.23 -0.17 M-1.36 1.8 C-1.05 16.02, 1.73 69.1, 2.01 85.05 C2.29 100.99, -0.02 94.89, 0.32 97.47 C0.66 100.04, 0.87 99.64, 4.07 100.5 C7.26 101.36, 12.37 102.18, 19.49 102.63 C26.61 103.09, 37.71 103.04, 46.76 103.23 C55.81 103.41, 67.52 104.4, 73.79 103.75 C80.06 103.1, 81.9 100.83, 84.37 99.32 C86.84 97.8, 88.11 96.37, 88.6 94.66 C89.09 92.95, 87.27 103.78, 87.32 89.05 C87.37 74.32, 89.03 21.33, 88.93 6.29 C88.83 -8.75, 87.76 0.66, 86.73 -1.17 C85.71 -3, 85.58 -3.61, 82.79 -4.71 C80 -5.81, 76.96 -6.85, 70 -7.76 C63.04 -8.66, 49.21 -10.07, 41.05 -10.13 C32.89 -10.19, 27.17 -9.37, 21.04 -8.13 C14.91 -6.89, 8.05 -4.08, 4.25 -2.68 C0.46 -1.28, -0.83 -0.18, -1.71 0.27 C-2.6 0.72, -1.61 0.16, -1.04 0" stroke="#0a11d3" stroke-width="1" fill="none"></path></g></g><mask></mask><g stroke-linecap="round"><g transform="translate(18.295302190350867 97.08472844911807) rotate(0 44.15404313987261 4.448651936218255)"><path d="M-0.65 0.73 C-0.15 1.5, 0.94 3.1, 3.03 4.1 C5.12 5.1, 8.03 6.04, 11.89 6.73 C15.74 7.42, 20.52 7.85, 26.13 8.23 C31.74 8.61, 38 9.21, 45.56 9.01 C53.11 8.81, 64.93 7.88, 71.49 7.06 C78.04 6.24, 82.23 5.24, 84.9 4.09 C87.56 2.94, 87.07 1.05, 87.46 0.14 M1.21 0.07 C1.6 0.5, 0.84 0.79, 2.45 2.08 C4.06 3.37, 6.85 6.69, 10.87 7.81 C14.9 8.94, 20.55 8.61, 26.6 8.85 C32.65 9.08, 40.04 9.18, 47.18 9.22 C54.33 9.27, 63.12 10.17, 69.48 9.14 C75.84 8.11, 81.97 4.57, 85.33 3.06 C88.7 1.55, 89.1 0.55, 89.65 0.1" stroke="#0a11d3" stroke-width="1" fill="none"></path></g></g><mask></mask><g stroke-linecap="round"><g transform="translate(17.20156067828941 64.01057388704635) rotate(0 44.15404313987261 4.448651936218255)"><path d="M0.7 0.2 C1.12 0.65, -0.16 2.45, 1.85 3.46 C3.87 4.46, 8.98 5.35, 12.78 6.25 C16.58 7.14, 18.92 8.48, 24.64 8.83 C30.36 9.17, 39.41 8.34, 47.08 8.32 C54.75 8.3, 64.42 9.39, 70.64 8.69 C76.87 7.98, 81.68 5.75, 84.45 4.08 C87.21 2.4, 86.53 -0.82, 87.25 -1.38 M-0.39 -0.75 C-0.11 -0.19, -1.45 3.45, 0.65 4.76 C2.76 6.06, 8.29 6.24, 12.24 7.08 C16.18 7.91, 18.72 9.57, 24.32 9.76 C29.93 9.94, 37.92 8.47, 45.85 8.17 C53.77 7.87, 65.38 8.82, 71.85 7.96 C78.32 7.11, 81.73 4.73, 84.65 3.04 C87.56 1.34, 88.89 -1.69, 89.33 -2.21" stroke="#0a11d3" stroke-width="1" fill="none"></path></g></g><mask></mask><g stroke-linecap="round" transform="translate(16.080737992127695 23.769904191233763) rotate(0 43.825373054270955 8.863351988406833)"><path d="M44.29 0.31 C53.26 0.19, 65.29 1.19, 72.47 2.37 C79.65 3.55, 85.77 5.55, 87.37 7.38 C88.97 9.21, 86.82 11.66, 82.08 13.37 C77.33 15.08, 67.82 16.96, 58.89 17.66 C49.97 18.36, 37.36 18.33, 28.53 17.57 C19.7 16.81, 10.51 14.8, 5.92 13.11 C1.32 11.42, -0.63 9.32, 0.96 7.43 C2.55 5.54, 7.81 3.08, 15.46 1.79 C23.12 0.5, 41.35 -0.12, 46.89 -0.32 C52.43 -0.51, 48.79 0.39, 48.69 0.64 M45.32 0.45 C54.2 0.42, 66.54 1.09, 73.46 2.35 C80.38 3.61, 85.7 6.05, 86.84 8.03 C87.97 10.01, 85.13 12.59, 80.26 14.22 C75.38 15.85, 66.42 17.23, 57.57 17.82 C48.72 18.41, 35.95 18.63, 27.15 17.76 C18.35 16.89, 9.14 14.39, 4.77 12.59 C0.4 10.8, -1.03 8.82, 0.92 6.99 C2.88 5.17, 9.2 2.81, 16.51 1.64 C23.82 0.48, 39.85 0.22, 44.76 -0.01 C49.67 -0.24, 45.98 0.12, 45.96 0.27" stroke="none" stroke-width="0" fill="#fff"></path><path d="M47.53 0.22 C56.46 0.32, 67.71 1.18, 74.41 2.44 C81.11 3.69, 86.81 5.9, 87.74 7.74 C88.66 9.59, 85.45 11.87, 79.95 13.51 C74.46 15.15, 63.79 17.01, 54.75 17.6 C45.72 18.2, 34.22 17.87, 25.76 17.08 C17.29 16.28, 8 14.52, 3.98 12.81 C-0.03 11.09, -0.74 8.58, 1.69 6.79 C4.12 4.99, 10.72 3.22, 18.56 2.06 C26.41 0.89, 43.59 0.03, 48.75 -0.19 C53.92 -0.41, 49.6 0.57, 49.55 0.74 M44.05 0.45 C52.94 0.25, 64.64 0.48, 71.74 1.51 C78.84 2.54, 84.94 4.66, 86.65 6.61 C88.36 8.57, 86.67 11.44, 81.98 13.24 C77.28 15.03, 67.27 16.78, 58.48 17.39 C49.68 18, 37.93 17.54, 29.2 16.92 C20.47 16.31, 10.84 15.16, 6.1 13.7 C1.37 12.23, -0.78 9.97, 0.79 8.13 C2.37 6.28, 8.44 4.09, 15.58 2.63 C22.71 1.16, 39.04 -0.21, 43.61 -0.67 C48.18 -1.13, 43.01 -0.39, 43.01 -0.12" stroke="#0a11d3" stroke-width="1" fill="none"></path></g><g stroke-linecap="round" transform="translate(87.59047029270823 48.345707068367346) rotate(0 6.423028523489904 6.970952181208077)"><path d="M7.87 0.38 C9.2 0.51, 10.83 1.45, 11.74 2.57 C12.64 3.69, 13.31 5.53, 13.3 7.1 C13.28 8.67, 12.63 10.79, 11.65 11.98 C10.67 13.18, 8.81 14.11, 7.43 14.25 C6.04 14.39, 4.46 13.63, 3.32 12.82 C2.19 12.02, 1.15 10.85, 0.6 9.42 C0.04 7.99, -0.49 5.72, -0.01 4.24 C0.48 2.76, 2.25 1.16, 3.5 0.55 C4.74 -0.06, 6.7 0.56, 7.45 0.58 C8.2 0.6, 7.94 0.56, 8 0.68 M6.59 0.08 C7.84 -0.05, 9.15 0.9, 10.05 1.93 C10.95 2.97, 11.61 4.78, 11.98 6.26 C12.35 7.75, 12.84 9.53, 12.25 10.84 C11.67 12.16, 9.86 13.76, 8.49 14.14 C7.11 14.53, 5.26 13.74, 4 13.14 C2.73 12.55, 1.61 11.81, 0.9 10.56 C0.19 9.32, -0.37 7.16, -0.25 5.68 C-0.14 4.21, 0.4 2.65, 1.59 1.72 C2.79 0.79, 6.23 0.35, 6.92 0.09 C7.61 -0.17, 5.74 0.06, 5.75 0.16" stroke="none" stroke-width="0" fill="#fff"></path><path d="M4.57 0.01 C5.9 -0.48, 8.27 -0.22, 9.61 0.42 C10.95 1.06, 12.16 2.36, 12.59 3.83 C13.02 5.29, 12.54 7.68, 12.17 9.21 C11.8 10.74, 11.49 12.2, 10.38 13.01 C9.27 13.83, 6.92 14.27, 5.51 14.09 C4.09 13.91, 2.84 12.98, 1.9 11.93 C0.95 10.87, -0.02 9.34, -0.14 7.77 C-0.26 6.2, 0.36 3.7, 1.17 2.51 C1.98 1.31, 4.03 1.01, 4.73 0.61 C5.43 0.22, 5.3 0.09, 5.39 0.14 M6.15 -0.52 C7.33 -0.84, 8.99 -0.18, 10.09 0.82 C11.2 1.83, 12.53 3.91, 12.77 5.52 C13 7.12, 12.14 9.19, 11.5 10.46 C10.86 11.74, 10.1 12.57, 8.93 13.15 C7.77 13.73, 5.83 14.24, 4.53 13.95 C3.23 13.67, 1.87 12.65, 1.15 11.41 C0.43 10.17, 0.02 8.23, 0.2 6.51 C0.37 4.8, 1.28 2.25, 2.19 1.12 C3.1 -0.02, 4.98 -0.14, 5.65 -0.3 C6.33 -0.46, 6.08 -0.06, 6.23 0.17" stroke="#0a11d3" stroke-width="1" fill="none"></path></g><g stroke-linecap="round" transform="translate(87.59047029270823 78.94816092742781) rotate(0 6.423028523489904 6.970952181208077)"><path d="M7.75 0.08 C9.09 0.17, 10.81 1.21, 11.72 2.42 C12.63 3.62, 13.26 5.74, 13.21 7.29 C13.16 8.85, 12.3 10.69, 11.4 11.75 C10.51 12.82, 9.16 13.44, 7.85 13.68 C6.54 13.93, 4.87 13.98, 3.56 13.24 C2.25 12.49, 0.5 10.7, 0 9.23 C-0.5 7.75, 0.1 5.68, 0.55 4.37 C0.99 3.07, 1.49 2.05, 2.68 1.4 C3.87 0.74, 6.78 0.55, 7.7 0.45 C8.62 0.35, 8.22 0.75, 8.2 0.81 M6.98 0.48 C8.1 0.7, 9.48 1.87, 10.49 3 C11.5 4.14, 12.92 5.81, 13.04 7.3 C13.16 8.8, 12.14 10.97, 11.19 11.98 C10.24 12.99, 8.66 13.19, 7.35 13.37 C6.04 13.55, 4.54 13.75, 3.33 13.07 C2.13 12.39, 0.72 10.69, 0.12 9.3 C-0.47 7.92, -0.86 6.12, -0.26 4.75 C0.34 3.39, 2.52 1.9, 3.7 1.12 C4.88 0.35, 6.11 0.25, 6.83 0.1 C7.56 -0.06, 8.02 0.17, 8.05 0.2" stroke="none" stroke-width="0" fill="#fff"></path><path d="M7.28 -0.32 C8.7 -0.32, 10.38 0.48, 11.24 1.63 C12.1 2.79, 12.29 5, 12.44 6.59 C12.59 8.18, 12.89 9.97, 12.14 11.19 C11.38 12.41, 9.31 13.54, 7.93 13.92 C6.55 14.3, 5.1 14.09, 3.86 13.49 C2.61 12.89, 1.06 11.77, 0.43 10.33 C-0.19 8.89, -0.23 6.31, 0.1 4.87 C0.42 3.43, 1.16 2.53, 2.36 1.71 C3.55 0.89, 6.43 0.18, 7.25 -0.05 C8.08 -0.29, 7.35 0.12, 7.31 0.31 M7.09 -0.58 C8.42 -0.37, 10.44 1.08, 11.3 2.35 C12.16 3.61, 12.21 5.57, 12.25 7.01 C12.29 8.46, 12.3 9.84, 11.55 11.03 C10.81 12.22, 9.13 13.69, 7.79 14.16 C6.45 14.63, 4.73 14.53, 3.53 13.84 C2.33 13.16, 1.1 11.66, 0.58 10.04 C0.06 8.41, 0.07 5.63, 0.4 4.08 C0.72 2.53, 1.36 1.39, 2.53 0.72 C3.69 0.06, 6.55 0.12, 7.4 0.1 C8.26 0.08, 7.69 0.47, 7.68 0.59" stroke="#0a11d3" stroke-width="1" fill="none"></path></g><g stroke-linecap="round" transform="translate(87.59047029270823 112.2089621019245) rotate(0 6.423028523489904 6.970952181208077)"><path d="M7.7 0.08 C9.02 0.25, 10.67 1.54, 11.52 2.7 C12.37 3.87, 12.79 5.66, 12.82 7.05 C12.86 8.45, 12.51 9.93, 11.72 11.08 C10.93 12.22, 9.51 13.63, 8.07 13.94 C6.62 14.25, 4.27 13.68, 3.04 12.91 C1.81 12.14, 1.22 10.59, 0.69 9.31 C0.16 8.04, -0.5 6.6, -0.14 5.28 C0.22 3.96, 1.55 2.18, 2.86 1.39 C4.17 0.6, 6.86 0.72, 7.71 0.54 C8.56 0.37, 7.93 0.26, 7.95 0.34 M5.84 0.66 C7.25 0.63, 9.76 1.28, 10.87 2.27 C11.98 3.26, 12.39 5.29, 12.51 6.61 C12.62 7.93, 12.22 9.02, 11.54 10.17 C10.86 11.33, 9.73 13.04, 8.44 13.55 C7.14 14.06, 5.12 13.77, 3.75 13.22 C2.38 12.68, 0.69 11.55, 0.19 10.29 C-0.3 9.03, 0.49 7.14, 0.77 5.68 C1.05 4.22, 0.8 2.49, 1.89 1.54 C2.98 0.6, 6.55 0.31, 7.29 -0.01 C8.03 -0.33, 6.51 -0.5, 6.33 -0.36" stroke="none" stroke-width="0" fill="#fff"></path><path d="M6.14 -0.42 C7.33 -0.53, 8.59 0.49, 9.75 1.46 C10.91 2.43, 12.72 3.94, 13.11 5.39 C13.51 6.83, 12.76 8.8, 12.12 10.15 C11.48 11.51, 10.55 12.86, 9.29 13.53 C8.04 14.19, 5.96 14.62, 4.58 14.15 C3.2 13.68, 1.83 11.91, 1.01 10.69 C0.18 9.46, -0.55 8.26, -0.39 6.8 C-0.23 5.33, 0.91 3.03, 1.98 1.91 C3.05 0.8, 5.33 0.35, 6.02 0.11 C6.71 -0.13, 6.05 0.39, 6.11 0.48 M5.37 0.1 C6.59 -0.09, 7.83 0.45, 9.03 1.15 C10.23 1.85, 11.98 2.87, 12.56 4.29 C13.15 5.72, 13.01 8.13, 12.55 9.7 C12.1 11.28, 11 12.98, 9.81 13.75 C8.63 14.53, 6.82 14.85, 5.45 14.35 C4.07 13.86, 2.57 12.06, 1.57 10.78 C0.57 9.5, -0.54 8.05, -0.55 6.68 C-0.55 5.3, 0.5 3.55, 1.52 2.52 C2.55 1.49, 4.98 0.86, 5.62 0.48 C6.26 0.1, 5.28 0.17, 5.35 0.27" stroke="#0a11d3" stroke-width="1" fill="none"></path></g><g transform="translate(17.264161133421567 155.75) rotate(0 32.999961853027344 25)"><text x="32.999961853027344" y="0" font-family="Virgil, Segoe UI Emoji" font-size="20px" fill="#000000" text-anchor="middle" style="white-space: pre;" direction="ltr" dominant-baseline="text-before-edge">source</text><text x="32.999961853027344" y="25" font-family="Virgil, Segoe UI Emoji" font-size="20px" fill="#000000" text-anchor="middle" style="white-space: pre;" direction="ltr" dominant-baseline="text-before-edge">system</text></g><g stroke-linecap="round" transform="translate(201.7641229864489 10) rotate(0 386.25 67.5)"><path d="M0 0 L772.5 0 L772.5 135 L0 135" stroke="none" stroke-width="0" fill="#e7f5ff"></path><path d="M0 0 C190.74 0, 381.47 0, 772.5 0 M0 0 C303.06 0, 606.11 0, 772.5 0 M772.5 0 C772.5 45.47, 772.5 90.94, 772.5 135 M772.5 0 C772.5 33.37, 772.5 66.74, 772.5 135 M772.5 135 C535.47 135, 298.43 135, 0 135 M772.5 135 C529.05 135, 285.59 135, 0 135 M0 135 C0 97.97, 0 60.95, 0 0 M0 135 C0 83.63, 0 32.27, 0 0" stroke="#000000" stroke-width="1" fill="none"></path></g><g stroke-linecap="round" transform="translate(225.5141229864489 42.5) rotate(0 89.375 36.25)"><path d="M18.13 0 C56.62 0, 95.11 0, 160.63 0 C172.71 0, 178.75 6.04, 178.75 18.13 C178.75 25.43, 178.75 32.73, 178.75 54.38 C178.75 66.46, 172.71 72.5, 160.63 72.5 C112.78 72.5, 64.93 72.5, 18.13 72.5 C6.04 72.5, 0 66.46, 0 54.38 C0 42.03, 0 29.69, 0 18.13 C0 6.04, 6.04 0, 18.13 0" stroke="none" stroke-width="0" fill="#f8f9fa"></path><path d="M18.13 0 C53.36 0, 88.6 0, 160.63 0 M18.13 0 C70.64 0, 123.15 0, 160.63 0 M160.63 0 C172.71 0, 178.75 6.04, 178.75 18.13 M160.63 0 C172.71 0, 178.75 6.04, 178.75 18.13 M178.75 18.13 C178.75 27.04, 178.75 35.95, 178.75 54.38 M178.75 18.13 C178.75 31.2, 178.75 44.28, 178.75 54.38 M178.75 54.38 C178.75 66.46, 172.71 72.5, 160.63 72.5 M178.75 54.38 C178.75 66.46, 172.71 72.5, 160.63 72.5 M160.63 72.5 C127.87 72.5, 95.12 72.5, 18.13 72.5 M160.63 72.5 C112.02 72.5, 63.42 72.5, 18.13 72.5 M18.13 72.5 C6.04 72.5, 0 66.46, 0 54.38 M18.13 72.5 C6.04 72.5, 0 66.46, 0 54.38 M0 54.38 C0 41.79, 0 29.2, 0 18.13 M0 54.38 C0 44.17, 0 33.97, 0 18.13 M0 18.13 C0 6.04, 6.04 0, 18.13 0 M0 18.13 C0 6.04, 6.04 0, 18.13 0" stroke="#000000" stroke-width="1" fill="none"></path></g><g transform="translate(269.0091638800036 53.75) rotate(0 45.87995910644531 25)"><text x="45.87995910644531" y="0" font-family="Virgil, Segoe UI Emoji" font-size="20px" fill="#000000" text-anchor="middle" style="white-space: pre;" direction="ltr" dominant-baseline="text-before-edge">source </text><text x="45.87995910644531" y="25" font-family="Virgil, Segoe UI Emoji" font-size="20px" fill="#000000" text-anchor="middle" style="white-space: pre;" direction="ltr" dominant-baseline="text-before-edge">connector</text></g><g stroke-linecap="round" transform="translate(769.3891229864489 45) rotate(0 89.375 36.25)"><path d="M18.13 0 C69.43 0, 120.73 0, 160.63 0 C172.71 0, 178.75 6.04, 178.75 18.13 C178.75 29.61, 178.75 41.09, 178.75 54.38 C178.75 66.46, 172.71 72.5, 160.63 72.5 C122.62 72.5, 84.61 72.5, 18.13 72.5 C6.04 72.5, 0 66.46, 0 54.38 C0 43.29, 0 32.21, 0 18.13 C0 6.04, 6.04 0, 18.13 0" stroke="none" stroke-width="0" fill="#f8f9fa"></path><path d="M18.13 0 C61.81 0, 105.5 0, 160.63 0 M18.13 0 C54.21 0, 90.3 0, 160.63 0 M160.63 0 C172.71 0, 178.75 6.04, 178.75 18.13 M160.63 0 C172.71 0, 178.75 6.04, 178.75 18.13 M178.75 18.13 C178.75 31.45, 178.75 44.78, 178.75 54.38 M178.75 18.13 C178.75 26.68, 178.75 35.24, 178.75 54.38 M178.75 54.38 C178.75 66.46, 172.71 72.5, 160.63 72.5 M178.75 54.38 C178.75 66.46, 172.71 72.5, 160.63 72.5 M160.63 72.5 C110.74 72.5, 60.85 72.5, 18.13 72.5 M160.63 72.5 C108.42 72.5, 56.21 72.5, 18.13 72.5 M18.13 72.5 C6.04 72.5, 0 66.46, 0 54.38 M18.13 72.5 C6.04 72.5, 0 66.46, 0 54.38 M0 54.38 C0 40.92, 0 27.47, 0 18.13 M0 54.38 C0 40.85, 0 27.32, 0 18.13 M0 18.13 C0 6.04, 6.04 0, 18.13 0 M0 18.13 C0 6.04, 6.04 0, 18.13 0" stroke="#000000" stroke-width="1" fill="none"></path></g><g transform="translate(813.1141672369372 68.75) rotate(0 45.64995574951172 12.5)"><text x="45.64995574951172" y="0" font-family="Virgil, Segoe UI Emoji" font-size="20px" fill="#000000" text-anchor="middle" style="white-space: pre;" direction="ltr" dominant-baseline="text-before-edge">converter</text></g><g stroke-linecap="round" transform="translate(491.1391229864489 41) rotate(0 89.375 36.25)"><path d="M18.13 0 C50.31 0, 82.49 0, 160.63 0 C172.71 0, 178.75 6.04, 178.75 18.13 C178.75 31.46, 178.75 44.8, 178.75 54.38 C178.75 66.46, 172.71 72.5, 160.63 72.5 C112.14 72.5, 63.65 72.5, 18.13 72.5 C6.04 72.5, 0 66.46, 0 54.38 C0 46.83, 0 39.29, 0 18.13 C0 6.04, 6.04 0, 18.13 0" stroke="none" stroke-width="0" fill="#f8f9fa"></path><path d="M18.13 0 C65.55 0, 112.98 0, 160.63 0 M18.13 0 C53.25 0, 88.38 0, 160.63 0 M160.63 0 C172.71 0, 178.75 6.04, 178.75 18.13 M160.63 0 C172.71 0, 178.75 6.04, 178.75 18.13 M178.75 18.13 C178.75 31.27, 178.75 44.42, 178.75 54.38 M178.75 18.13 C178.75 26.2, 178.75 34.28, 178.75 54.38 M178.75 54.38 C178.75 66.46, 172.71 72.5, 160.63 72.5 M178.75 54.38 C178.75 66.46, 172.71 72.5, 160.63 72.5 M160.63 72.5 C117.67 72.5, 74.72 72.5, 18.13 72.5 M160.63 72.5 C122.53 72.5, 84.43 72.5, 18.13 72.5 M18.13 72.5 C6.04 72.5, 0 66.46, 0 54.38 M18.13 72.5 C6.04 72.5, 0 66.46, 0 54.38 M0 54.38 C0 45.81, 0 37.24, 0 18.13 M0 54.38 C0 46.84, 0 39.3, 0 18.13 M0 18.13 C0 6.04, 6.04 0, 18.13 0 M0 18.13 C0 6.04, 6.04 0, 18.13 0" stroke="#000000" stroke-width="1" fill="none"></path></g><g transform="translate(502.6142130133044 64.75) rotate(0 77.89990997314453 12.5)"><text x="77.89990997314453" y="0" font-family="Virgil, Segoe UI Emoji" font-size="20px" fill="#000000" text-anchor="middle" style="white-space: pre;" direction="ltr" dominant-baseline="text-before-edge">transformations</text></g><g stroke-linecap="round" transform="translate(1057.514122986449 13.75) rotate(0 55 67.5)"><path d="M0 0 L110 0 L110 135 L0 135" stroke="none" stroke-width="0" fill="#e7f5ff"></path><path d="M0 0 C26.05 0, 52.11 0, 110 0 M0 0 C27.16 0, 54.32 0, 110 0 M110 0 C110 39.42, 110 78.84, 110 135 M110 0 C110 36.99, 110 73.98, 110 135 M110 135 C66.63 135, 23.27 135, 0 135 M110 135 C72.7 135, 35.4 135, 0 135 M0 135 C0 96.54, 0 58.08, 0 0 M0 135 C0 104.61, 0 74.22, 0 0" stroke="#000000" stroke-width="1" fill="none"></path></g><g transform="translate(1076.9141626593005 56.25) rotate(0 35.59996032714844 25)"><text x="35.59996032714844" y="0" font-family="Virgil, Segoe UI Emoji" font-size="20px" fill="#000000" text-anchor="middle" style="white-space: pre;" direction="ltr" dominant-baseline="text-before-edge">Kafka </text><text x="35.59996032714844" y="25" font-family="Virgil, Segoe UI Emoji" font-size="20px" fill="#000000" text-anchor="middle" style="white-space: pre;" direction="ltr" dominant-baseline="text-before-edge">Cluster</text></g><g transform="translate(829.6041956182848 158) rotate(0 71.65992736816406 12.5)"><text x="71.65992736816406" y="0" font-family="Virgil, Segoe UI Emoji" font-size="20px" fill="#000000" text-anchor="middle" style="white-space: pre;" direction="ltr" dominant-baseline="text-before-edge">Kafka Connect</text></g><g stroke-linecap="round"><g transform="translate(118.00698650379195 74.99880994591558) rotate(0 38.75356824132848 -0.11358836351575974)"><path d="M0 0 C28.32 -0.08, 56.65 -0.17, 77.51 -0.23 M0 0 C26 -0.08, 52 -0.15, 77.51 -0.23" stroke="#000000" stroke-width="1" fill="none"></path></g><g transform="translate(118.00698650379195 74.99880994591558) rotate(0 38.75356824132848 -0.11358836351575974)"><path d="M77.51 -0.23 L63.93 6.15 L63.89 -6.53 L77.51 -0.23" stroke="none" stroke-width="0" fill="#000000" fill-rule="evenodd"></path><path d="M77.51 -0.23 C72.55 2.1, 67.59 4.44, 63.93 6.15 M77.51 -0.23 C72.95 1.91, 68.4 4.05, 63.93 6.15 M63.93 6.15 C63.92 2.67, 63.91 -0.81, 63.89 -6.53 M63.93 6.15 C63.92 1.14, 63.9 -3.87, 63.89 -6.53 M63.89 -6.53 C68.26 -4.5, 72.63 -2.48, 77.51 -0.23 M63.89 -6.53 C68.3 -4.49, 72.71 -2.45, 77.51 -0.23 M77.51 -0.23 C77.51 -0.23, 77.51 -0.23, 77.51 -0.23 M77.51 -0.23 C77.51 -0.23, 77.51 -0.23, 77.51 -0.23" stroke="#000000" stroke-width="1" fill="none"></path></g></g><mask></mask><g stroke-linecap="round"><g transform="translate(978.3875017403032 83.45768912772417) rotate(0 36.251621246145874 -0.013269142370347708)"><path d="M0 0 C16.22 -0.01, 32.43 -0.01, 72.5 -0.03 M0 0 C26.37 -0.01, 52.73 -0.02, 72.5 -0.03" stroke="#000000" stroke-width="1" fill="none"></path></g><g transform="translate(978.3875017403032 83.45768912772417) rotate(0 36.251621246145874 -0.013269142370347708)"><path d="M72.5 -0.03 L58.91 6.32 L58.91 -6.36 L72.5 -0.03" stroke="none" stroke-width="0" fill="#000000" fill-rule="evenodd"></path><path d="M72.5 -0.03 C69.46 1.39, 66.42 2.81, 58.91 6.32 M72.5 -0.03 C67.56 2.28, 62.62 4.59, 58.91 6.32 M58.91 6.32 C58.91 3.24, 58.91 0.17, 58.91 -6.36 M58.91 6.32 C58.91 2.06, 58.91 -2.19, 58.91 -6.36 M58.91 -6.36 C61.92 -4.96, 64.93 -3.56, 72.5 -0.03 M58.91 -6.36 C62.13 -4.86, 65.35 -3.36, 72.5 -0.03 M72.5 -0.03 C72.5 -0.03, 72.5 -0.03, 72.5 -0.03 M72.5 -0.03 C72.5 -0.03, 72.5 -0.03, 72.5 -0.03" stroke="#000000" stroke-width="1" fill="none"></path></g></g><mask></mask><g stroke-linecap="round"><g transform="translate(410.5141229864489 81.25) rotate(0 40 0)"><path d="M0 0 C26.35 0, 52.71 0, 80 0 M0 0 C17.12 0, 34.23 0, 80 0" stroke="#000000" stroke-width="1" fill="none"></path></g><g transform="translate(410.5141229864489 81.25) rotate(0 40 0)"><path d="M80 0 L66.41 6.34 L66.41 -6.34 L80 0" stroke="none" stroke-width="0" fill="#000000" fill-rule="evenodd"></path><path d="M80 0 C75.52 2.09, 71.04 4.18, 66.41 6.34 M80 0 C77.09 1.36, 74.18 2.71, 66.41 6.34 M66.41 6.34 C66.41 2.04, 66.41 -2.27, 66.41 -6.34 M66.41 6.34 C66.41 2, 66.41 -2.34, 66.41 -6.34 M66.41 -6.34 C70.89 -4.25, 75.37 -2.16, 80 0 M66.41 -6.34 C71.57 -3.93, 76.74 -1.52, 80 0 M80 0 C80 0, 80 0, 80 0 M80 0 C80 0, 80 0, 80 0" stroke="#000000" stroke-width="1" fill="none"></path></g></g><mask></mask><g stroke-linecap="round"><g transform="translate(674.2641229864489 81.25) rotate(0 45 -0.625)"><path d="M0 0 C22.69 -0.32, 45.38 -0.63, 90 -1.25 M0 0 C30.66 -0.43, 61.31 -0.85, 90 -1.25" stroke="#000000" stroke-width="1" fill="none"></path></g><g transform="translate(674.2641229864489 81.25) rotate(0 45 -0.625)"><path d="M90 -1.25 L76.49 5.28 L76.32 -7.4 L90 -1.25" stroke="none" stroke-width="0" fill="#000000" fill-rule="evenodd"></path><path d="M90 -1.25 C86.6 0.4, 83.19 2.04, 76.49 5.28 M90 -1.25 C85.4 0.97, 80.8 3.2, 76.49 5.28 M76.49 5.28 C76.43 0.35, 76.36 -4.57, 76.32 -7.4 M76.49 5.28 C76.44 1.18, 76.38 -2.92, 76.32 -7.4 M76.32 -7.4 C80.82 -5.38, 85.32 -3.35, 90 -1.25 M76.32 -7.4 C80.75 -5.41, 85.18 -3.42, 90 -1.25 M90 -1.25 C90 -1.25, 90 -1.25, 90 -1.25 M90 -1.25 C90 -1.25, 90 -1.25, 90 -1.25" stroke="#000000" stroke-width="1" fill="none"></path></g></g><mask></mask><g stroke-linecap="round"><g transform="translate(1076.3438176144045 283.66960041833045) rotate(0 44.06059301640448 47.85201411482012)" fill-rule="evenodd"><path d="M-0.26 1.37 C0.39 16.24, 2.1 71.1, 1.9 86.86 C1.71 102.61, -1.85 93.93, -1.44 95.9 C-1.03 97.87, 0.87 97.73, 4.38 98.67 C7.88 99.61, 12.23 100.4, 19.58 101.55 C26.93 102.69, 39.34 105.55, 48.47 105.51 C57.61 105.47, 68.4 102.63, 74.41 101.32 C80.42 100.02, 82.13 98.65, 84.52 97.68 C86.9 96.7, 88.48 97.4, 88.73 95.45 C88.97 93.5, 85.89 100.58, 85.99 85.98 C86.09 71.38, 89.22 21.84, 89.34 7.83 C89.45 -6.18, 88.21 3.76, 86.68 1.92 C85.15 0.07, 83.33 -1.94, 80.17 -3.25 C77.01 -4.56, 74.34 -5.37, 67.73 -5.94 C61.11 -6.52, 48.06 -6.07, 40.49 -6.71 C32.93 -7.36, 28.49 -10.18, 22.34 -9.82 C16.2 -9.45, 7.63 -6.17, 3.62 -4.54 C-0.38 -2.91, -1.3 -0.72, -1.69 -0.02 C-2.07 0.67, 1.15 -0.51, 1.31 -0.37" stroke="none" stroke-width="0" fill="#228be6" fill-rule="evenodd"></path><path d="M0.15 0.38 C0.47 14.62, 1.19 70.1, 1.21 86 C1.23 101.9, -0.44 93.26, 0.28 95.77 C1 98.28, 2.35 99.57, 5.53 101.06 C8.7 102.56, 12.44 103.94, 19.33 104.74 C26.22 105.54, 37.93 106.21, 46.88 105.87 C55.83 105.53, 66.34 104.05, 73.05 102.71 C79.77 101.37, 84.53 99.13, 87.17 97.82 C89.8 96.51, 88.58 96.39, 88.86 94.82 C89.14 93.25, 88.83 103.07, 88.84 88.4 C88.85 73.73, 89.19 21.53, 88.92 6.81 C88.66 -7.92, 88.36 2.17, 87.25 0.08 C86.13 -2.02, 85.22 -4.53, 82.22 -5.74 C79.22 -6.95, 75.97 -6.82, 69.25 -7.19 C62.53 -7.55, 49.78 -7.63, 41.91 -7.93 C34.04 -8.23, 28.21 -9.54, 22.03 -8.99 C15.84 -8.43, 8.65 -6.03, 4.8 -4.61 C0.95 -3.19, -0.27 -1.1, -1.06 -0.48 C-1.85 0.13, -0.06 -1.09, 0.06 -0.91 M-1.23 -0.47 C-0.93 13.93, 0.6 71.26, 0.75 87.51 C0.89 103.76, -1.28 95.13, -0.35 97.05 C0.57 98.97, 2.74 98.19, 6.29 99.02 C9.85 99.85, 14.01 100.97, 21 102.03 C27.99 103.09, 39.4 105.53, 48.24 105.4 C57.07 105.26, 67.59 102.61, 74.01 101.21 C80.43 99.81, 84.48 97.71, 86.76 97 C89.04 96.28, 87.16 98.34, 87.69 96.93 C88.23 95.52, 89.62 103.44, 89.96 88.55 C90.3 73.66, 90.46 22.35, 89.75 7.57 C89.04 -7.21, 86.89 1.72, 85.71 -0.13 C84.53 -1.98, 85.58 -2.3, 82.66 -3.52 C79.74 -4.75, 75.02 -6.74, 68.21 -7.47 C61.41 -8.19, 49.86 -7.74, 41.82 -7.88 C33.78 -8.03, 26.27 -8.92, 19.98 -8.33 C13.7 -7.74, 7.29 -5.68, 4.09 -4.35 C0.89 -3.02, 1.68 -0.88, 0.78 -0.34 C-0.11 0.19, -1.16 -1.04, -1.29 -1.13" stroke="#0a11d3" stroke-width="1" fill="none"></path></g></g><mask></mask><g stroke-linecap="round"><g transform="translate(1077.031179203902 348.9597284491181) rotate(0 44.15404313987267 4.448651936218255)"><path d="M0.92 -0.05 C1.33 0.52, 0.52 2.46, 2.59 3.83 C4.66 5.2, 9.66 7.09, 13.35 8.16 C17.03 9.23, 19.19 9.86, 24.72 10.24 C30.25 10.62, 38.71 10.84, 46.53 10.43 C54.34 10.03, 64.98 9.1, 71.63 7.79 C78.29 6.48, 83.53 4, 86.47 2.57 C89.41 1.14, 88.85 -0.46, 89.27 -0.78 M-0.05 -1.13 C0.2 -0.39, -0.41 4.08, 1.78 5.32 C3.97 6.57, 9.32 5.85, 13.1 6.33 C16.88 6.82, 19.13 8.01, 24.45 8.24 C29.77 8.48, 37.46 8.01, 45 7.73 C52.54 7.46, 63.19 7.15, 69.7 6.6 C76.21 6.04, 80.89 5.71, 84.07 4.4 C87.24 3.09, 88.15 -0.54, 88.75 -1.29" stroke="#0a11d3" stroke-width="1" fill="none"></path></g></g><mask></mask><g stroke-linecap="round"><g transform="translate(1075.9374376918408 315.88557388704635) rotate(0 44.15404313987267 4.448651936218255)"><path d="M0.26 -0.08 C0.66 0.74, 1.46 3.5, 3.31 4.88 C5.16 6.27, 7.65 7.36, 11.37 8.25 C15.09 9.15, 19.63 10.12, 25.61 10.25 C31.59 10.39, 39.46 9.57, 47.23 9.05 C54.99 8.54, 65.71 8.15, 72.21 7.16 C78.72 6.18, 83.46 4.24, 86.25 3.16 C89.05 2.08, 88.48 1.36, 88.98 0.69 M-1.06 -1.17 C-0.81 -0.66, 0.41 2, 2.88 3.28 C5.35 4.55, 9.92 5.64, 13.74 6.47 C17.56 7.31, 20.42 7.8, 25.8 8.27 C31.19 8.74, 38.6 9.12, 46.07 9.29 C53.53 9.46, 64.3 9.97, 70.58 9.3 C76.86 8.64, 80.78 6.7, 83.74 5.31 C86.69 3.91, 87.58 1.64, 88.31 0.95" stroke="#0a11d3" stroke-width="1" fill="none"></path></g></g><mask></mask><g stroke-linecap="round" transform="translate(1074.816615005679 275.64490419123376) rotate(0 43.825373054270926 8.863351988406805)"><path d="M40.5 -0.41 C49.31 -0.69, 61.67 -0.04, 69.37 1.18 C77.07 2.4, 84.42 5, 86.7 6.91 C88.98 8.81, 87.17 11.01, 83.05 12.62 C78.92 14.23, 70.43 15.74, 61.97 16.58 C53.5 17.42, 41.31 18.15, 32.27 17.68 C23.23 17.21, 13.04 15.44, 7.72 13.77 C2.4 12.09, -0.6 9.49, 0.36 7.64 C1.32 5.79, 6.5 3.88, 13.48 2.67 C20.46 1.46, 37.02 0.78, 42.23 0.39 C47.43 0.01, 44.58 0.31, 44.7 0.38 M46.21 0.71 C55.12 0.81, 66.93 1.52, 73.85 2.66 C80.76 3.79, 86.54 5.62, 87.69 7.53 C88.83 9.43, 85.96 12.54, 80.71 14.08 C75.45 15.61, 65.18 16.22, 56.16 16.73 C47.14 17.24, 35.3 17.93, 26.6 17.15 C17.89 16.38, 8.21 13.85, 3.93 12.08 C-0.34 10.31, -1.29 8.31, 0.96 6.53 C3.22 4.76, 9.95 2.59, 17.47 1.42 C24.98 0.25, 41.2 -0.18, 46.06 -0.47 C50.93 -0.76, 46.52 -0.47, 46.66 -0.31" stroke="none" stroke-width="0" fill="#fff"></path><path d="M35.3 0.44 C43.82 0.05, 56.26 0.62, 64.4 1.54 C72.54 2.46, 80.64 4.24, 84.13 5.97 C87.62 7.7, 88.11 10.1, 85.33 11.91 C82.54 13.71, 75.39 15.86, 67.41 16.8 C59.42 17.73, 46.76 17.85, 37.42 17.54 C28.07 17.23, 17.65 16.38, 11.34 14.94 C5.03 13.5, -0.13 10.86, -0.47 8.88 C-0.81 6.9, 2.79 4.44, 9.31 3.05 C15.82 1.66, 33.34 0.94, 38.64 0.54 C43.93 0.13, 41.12 0.62, 41.07 0.62 M39.71 0.4 C48.44 0.1, 60.55 -0.22, 68.27 0.87 C75.99 1.97, 83.41 4.98, 86.05 6.97 C88.69 8.96, 88.09 11.18, 84.08 12.84 C80.08 14.49, 70.59 16.21, 62 16.9 C53.41 17.6, 41.57 17.6, 32.54 17 C23.5 16.4, 13.08 14.76, 7.76 13.32 C2.44 11.87, -0.32 10.21, 0.62 8.34 C1.55 6.47, 6.89 3.54, 13.36 2.1 C19.83 0.66, 34.97 0.01, 39.45 -0.29 C43.93 -0.59, 40.2 0.17, 40.23 0.3" stroke="#0a11d3" stroke-width="1" fill="none"></path></g><g stroke-linecap="round" transform="translate(1146.3263473062593 300.22070706836735) rotate(0 6.423028523489847 6.970952181208077)"><path d="M5.57 -0.35 C6.88 -0.56, 9.07 0.42, 10.15 1.25 C11.24 2.07, 11.72 3.29, 12.07 4.6 C12.42 5.9, 12.68 7.61, 12.27 9.06 C11.86 10.51, 10.78 12.53, 9.6 13.3 C8.42 14.07, 6.52 14.07, 5.19 13.69 C3.87 13.3, 2.43 12.12, 1.65 11.01 C0.86 9.9, 0.56 8.39, 0.48 7.03 C0.4 5.67, 0.34 3.98, 1.16 2.85 C1.99 1.71, 4.59 0.71, 5.44 0.24 C6.3 -0.22, 6.21 -0.01, 6.28 0.07 M5.47 0.25 C6.87 -0.17, 9.02 -0.04, 10.27 0.8 C11.52 1.64, 12.64 3.9, 12.98 5.29 C13.32 6.67, 12.86 7.76, 12.31 9.11 C11.75 10.46, 10.98 12.72, 9.64 13.38 C8.31 14.03, 5.75 13.45, 4.31 13.03 C2.86 12.62, 1.77 12.01, 0.99 10.88 C0.21 9.75, -0.4 7.78, -0.37 6.25 C-0.33 4.71, 0.19 2.81, 1.21 1.69 C2.24 0.57, 4.96 -0.14, 5.8 -0.46 C6.63 -0.78, 6.14 -0.42, 6.25 -0.23" stroke="none" stroke-width="0" fill="#fff"></path><path d="M6.17 0.49 C7.33 0.4, 8.99 1.04, 10.06 1.94 C11.13 2.84, 12.18 4.43, 12.59 5.89 C13 7.36, 13.2 9.48, 12.53 10.73 C11.86 11.97, 9.91 12.87, 8.57 13.37 C7.24 13.87, 5.89 14.25, 4.53 13.74 C3.17 13.23, 1.2 11.68, 0.44 10.32 C-0.31 8.96, -0.37 6.93, 0 5.57 C0.38 4.22, 1.66 3.05, 2.67 2.19 C3.68 1.33, 5.44 0.84, 6.06 0.43 C6.68 0.02, 6.34 -0.32, 6.39 -0.27 M4.61 -0.59 C5.89 -0.94, 8.08 0.41, 9.47 1.3 C10.85 2.19, 12.49 3.4, 12.92 4.73 C13.35 6.06, 12.59 7.97, 12.05 9.27 C11.51 10.57, 10.81 11.86, 9.67 12.52 C8.52 13.18, 6.45 13.33, 5.18 13.2 C3.91 13.08, 2.79 12.86, 2.02 11.76 C1.26 10.65, 0.77 8.15, 0.6 6.57 C0.43 4.98, 0.18 3.31, 0.99 2.25 C1.8 1.19, 4.87 0.61, 5.46 0.22 C6.06 -0.18, 4.52 -0.26, 4.57 -0.13" stroke="#0a11d3" stroke-width="1" fill="none"></path></g><g stroke-linecap="round" transform="translate(1146.3263473062593 330.8231609274278) rotate(0 6.423028523489847 6.970952181208077)"><path d="M5.5 0.46 C6.65 0.13, 7.86 0.17, 8.97 0.75 C10.08 1.33, 11.58 2.52, 12.17 3.95 C12.77 5.38, 12.95 7.86, 12.56 9.31 C12.17 10.77, 10.95 12, 9.82 12.7 C8.68 13.39, 7.04 13.63, 5.77 13.48 C4.5 13.33, 3.21 12.77, 2.18 11.8 C1.16 10.84, -0.17 9.16, -0.36 7.69 C-0.54 6.21, 0.11 4.22, 1.09 2.94 C2.07 1.67, 4.77 0.49, 5.52 0.03 C6.28 -0.42, 5.7 0.11, 5.63 0.19 M8.21 -0.17 C9.6 0.09, 11.2 1.96, 11.97 3.11 C12.74 4.26, 12.92 5.27, 12.83 6.73 C12.74 8.2, 12.49 10.85, 11.45 11.92 C10.4 13, 8.02 13.07, 6.55 13.18 C5.08 13.28, 3.73 13.31, 2.62 12.56 C1.51 11.81, 0.33 10.14, -0.11 8.67 C-0.55 7.2, -0.65 5.13, -0.02 3.73 C0.6 2.32, 2.23 0.9, 3.64 0.24 C5.05 -0.42, 7.63 -0.23, 8.44 -0.23 C9.26 -0.22, 8.58 -0.04, 8.53 0.25" stroke="none" stroke-width="0" fill="#fff"></path><path d="M6.84 0.45 C8.14 0.51, 9.92 1.41, 11 2.51 C12.07 3.6, 13.25 5.6, 13.31 7.02 C13.38 8.45, 12.25 9.93, 11.37 11.08 C10.49 12.23, 9.42 13.63, 8.03 13.93 C6.63 14.24, 4.27 13.67, 3 12.91 C1.74 12.14, 0.81 10.6, 0.43 9.35 C0.06 8.09, 0.43 6.68, 0.76 5.38 C1.1 4.08, 1.39 2.49, 2.46 1.54 C3.54 0.6, 6.32 -0.11, 7.2 -0.31 C8.07 -0.5, 7.75 0.2, 7.73 0.36 M7.11 0.47 C8.6 0.71, 10.73 1.43, 11.61 2.45 C12.48 3.47, 12.41 5.23, 12.39 6.61 C12.38 7.98, 12.3 9.64, 11.51 10.72 C10.72 11.8, 8.91 12.66, 7.66 13.11 C6.4 13.56, 5.07 14.07, 3.98 13.41 C2.89 12.76, 1.81 10.66, 1.11 9.2 C0.42 7.73, -0.52 5.95, -0.18 4.62 C0.17 3.29, 2.05 2.05, 3.17 1.22 C4.28 0.4, 5.79 -0.2, 6.52 -0.34 C7.26 -0.48, 7.54 0.08, 7.6 0.38" stroke="#0a11d3" stroke-width="1" fill="none"></path></g><g stroke-linecap="round" transform="translate(1146.3263473062593 364.0839621019245) rotate(0 6.423028523489847 6.970952181208077)"><path d="M4.58 0.15 C5.73 -0.36, 7.87 -0.3, 9.17 0.43 C10.46 1.16, 11.79 3.11, 12.34 4.52 C12.9 5.93, 12.87 7.55, 12.49 8.87 C12.11 10.19, 11.15 11.56, 10.09 12.41 C9.03 13.27, 7.57 14.04, 6.12 13.99 C4.67 13.94, 2.42 13.19, 1.36 12.11 C0.3 11.03, -0.26 9.1, -0.22 7.53 C-0.19 5.96, 0.65 3.93, 1.57 2.69 C2.49 1.45, 4.71 0.56, 5.31 0.11 C5.91 -0.34, 5.1 -0.13, 5.18 -0.04 M7.26 0.32 C8.52 0.28, 9.89 0.3, 10.88 1.32 C11.86 2.33, 13.12 4.94, 13.16 6.41 C13.2 7.88, 12 8.98, 11.13 10.15 C10.25 11.32, 9.21 12.95, 7.92 13.43 C6.64 13.91, 4.74 13.69, 3.44 13.04 C2.13 12.39, 0.63 10.92, 0.11 9.54 C-0.42 8.17, -0.22 6.22, 0.29 4.78 C0.81 3.35, 1.98 1.73, 3.19 0.92 C4.39 0.11, 6.85 -0.03, 7.52 -0.06 C8.19 -0.08, 7.42 0.77, 7.19 0.79" stroke="none" stroke-width="0" fill="#fff"></path><path d="M7.85 0.49 C9.28 0.75, 11.3 2.13, 12.1 3.28 C12.9 4.43, 12.8 5.91, 12.66 7.36 C12.51 8.81, 12.22 10.94, 11.21 11.98 C10.2 13.03, 8.01 13.57, 6.6 13.64 C5.19 13.71, 3.74 13.13, 2.76 12.41 C1.78 11.7, 1.17 10.66, 0.73 9.35 C0.28 8.04, -0.33 6.07, 0.08 4.56 C0.5 3.05, 1.9 0.99, 3.23 0.28 C4.55 -0.43, 7.24 0.29, 8.04 0.31 C8.85 0.32, 8 0.33, 8.04 0.37 M5.4 0.44 C6.59 -0.05, 7.68 0.19, 8.82 0.74 C9.97 1.29, 11.66 2.48, 12.25 3.74 C12.84 4.99, 12.66 6.74, 12.36 8.28 C12.06 9.82, 11.45 12.14, 10.44 12.99 C9.44 13.85, 7.84 13.64, 6.32 13.39 C4.8 13.13, 2.34 12.44, 1.33 11.46 C0.32 10.48, 0.39 9.01, 0.27 7.51 C0.14 6.01, -0.26 3.64, 0.58 2.45 C1.42 1.26, 4.64 0.62, 5.32 0.39 C6.01 0.15, 4.82 0.88, 4.69 1.03" stroke="#0a11d3" stroke-width="1" fill="none"></path></g><g transform="translate(1092.2500381469727 398.875) rotate(0 32.999961853027344 25)"><text x="32.999961853027344" y="0" font-family="Virgil, Segoe UI Emoji" font-size="20px" fill="#000000" text-anchor="middle" style="white-space: pre;" direction="ltr" dominant-baseline="text-before-edge">sync</text><text x="32.999961853027344" y="25" font-family="Virgil, Segoe UI Emoji" font-size="20px" fill="#000000" text-anchor="middle" style="white-space: pre;" direction="ltr" dominant-baseline="text-before-edge">system</text></g><g stroke-linecap="round" transform="translate(200.5 263.125) rotate(0 386.25 67.5)"><path d="M0 0 L772.5 0 L772.5 135 L0 135" stroke="none" stroke-width="0" fill="#e7f5ff"></path><path d="M0 0 C307.51 0, 615.02 0, 772.5 0 M0 0 C205.12 0, 410.23 0, 772.5 0 M772.5 0 C772.5 31.53, 772.5 63.06, 772.5 135 M772.5 0 C772.5 35.66, 772.5 71.31, 772.5 135 M772.5 135 C548.94 135, 325.37 135, 0 135 M772.5 135 C585.36 135, 398.22 135, 0 135 M0 135 C0 102.63, 0 70.26, 0 0 M0 135 C0 91.11, 0 47.23, 0 0" stroke="#000000" stroke-width="1" fill="none"></path></g><g stroke-linecap="round" transform="translate(224.25 295.625) rotate(0 89.375 36.25)"><path d="M18.13 0 C67.52 0, 116.92 0, 160.63 0 C172.71 0, 178.75 6.04, 178.75 18.13 C178.75 26.55, 178.75 34.98, 178.75 54.38 C178.75 66.46, 172.71 72.5, 160.63 72.5 C106.99 72.5, 53.36 72.5, 18.13 72.5 C6.04 72.5, 0 66.46, 0 54.38 C0 47.09, 0 39.81, 0 18.13 C0 6.04, 6.04 0, 18.13 0" stroke="none" stroke-width="0" fill="#f8f9fa"></path><path d="M18.13 0 C72.28 0, 126.44 0, 160.63 0 M18.13 0 C65.86 0, 113.59 0, 160.63 0 M160.63 0 C172.71 0, 178.75 6.04, 178.75 18.13 M160.63 0 C172.71 0, 178.75 6.04, 178.75 18.13 M178.75 18.13 C178.75 28.08, 178.75 38.04, 178.75 54.38 M178.75 18.13 C178.75 30.19, 178.75 42.25, 178.75 54.38 M178.75 54.38 C178.75 66.46, 172.71 72.5, 160.63 72.5 M178.75 54.38 C178.75 66.46, 172.71 72.5, 160.63 72.5 M160.63 72.5 C130.55 72.5, 100.48 72.5, 18.13 72.5 M160.63 72.5 C110.19 72.5, 59.75 72.5, 18.13 72.5 M18.13 72.5 C6.04 72.5, 0 66.46, 0 54.38 M18.13 72.5 C6.04 72.5, 0 66.46, 0 54.38 M0 54.38 C0 46.46, 0 38.55, 0 18.13 M0 54.38 C0 41.52, 0 28.66, 0 18.13 M0 18.13 C0 6.04, 6.04 0, 18.13 0 M0 18.13 C0 6.04, 6.04 0, 18.13 0" stroke="#000000" stroke-width="1" fill="none"></path></g><g transform="translate(267.9750442504883 319.375) rotate(0 45.64995574951172 12.5)"><text x="45.64995574951172" y="0" font-family="Virgil, Segoe UI Emoji" font-size="20px" fill="#000000" text-anchor="middle" style="white-space: pre;" direction="ltr" dominant-baseline="text-before-edge">converter</text></g><g stroke-linecap="round" transform="translate(768.125 298.125) rotate(0 89.375 36.25)"><path d="M18.13 0 C55.66 0, 93.2 0, 160.63 0 C172.71 0, 178.75 6.04, 178.75 18.13 C178.75 28.64, 178.75 39.16, 178.75 54.38 C178.75 66.46, 172.71 72.5, 160.63 72.5 C124.73 72.5, 88.83 72.5, 18.13 72.5 C6.04 72.5, 0 66.46, 0 54.38 C0 42.73, 0 31.08, 0 18.13 C0 6.04, 6.04 0, 18.13 0" stroke="none" stroke-width="0" fill="#f8f9fa"></path><path d="M18.13 0 C72.31 0, 126.49 0, 160.63 0 M18.13 0 C58.87 0, 99.61 0, 160.63 0 M160.63 0 C172.71 0, 178.75 6.04, 178.75 18.13 M160.63 0 C172.71 0, 178.75 6.04, 178.75 18.13 M178.75 18.13 C178.75 28.62, 178.75 39.11, 178.75 54.38 M178.75 18.13 C178.75 26.91, 178.75 35.69, 178.75 54.38 M178.75 54.38 C178.75 66.46, 172.71 72.5, 160.63 72.5 M178.75 54.38 C178.75 66.46, 172.71 72.5, 160.63 72.5 M160.63 72.5 C122.55 72.5, 84.48 72.5, 18.13 72.5 M160.63 72.5 C104.11 72.5, 47.59 72.5, 18.13 72.5 M18.13 72.5 C6.04 72.5, 0 66.46, 0 54.38 M18.13 72.5 C6.04 72.5, 0 66.46, 0 54.38 M0 54.38 C0 40.67, 0 26.97, 0 18.13 M0 54.38 C0 45.16, 0 35.94, 0 18.13 M0 18.13 C0 6.04, 6.04 0, 18.13 0 M0 18.13 C0 6.04, 6.04 0, 18.13 0" stroke="#000000" stroke-width="1" fill="none"></path></g><g transform="translate(811.6200408935547 309.375) rotate(0 45.87995910644531 25)"><text x="45.87995910644531" y="0" font-family="Virgil, Segoe UI Emoji" font-size="20px" fill="#000000" text-anchor="middle" style="white-space: pre;" direction="ltr" dominant-baseline="text-before-edge">sync</text><text x="45.87995910644531" y="25" font-family="Virgil, Segoe UI Emoji" font-size="20px" fill="#000000" text-anchor="middle" style="white-space: pre;" direction="ltr" dominant-baseline="text-before-edge">connector</text></g><g stroke-linecap="round" transform="translate(489.875 294.125) rotate(0 89.375 36.25)"><path d="M18.13 0 C50.49 0, 82.85 0, 160.63 0 C172.71 0, 178.75 6.04, 178.75 18.13 C178.75 25.85, 178.75 33.57, 178.75 54.38 C178.75 66.46, 172.71 72.5, 160.63 72.5 C124.11 72.5, 87.6 72.5, 18.13 72.5 C6.04 72.5, 0 66.46, 0 54.38 C0 45.93, 0 37.48, 0 18.13 C0 6.04, 6.04 0, 18.13 0" stroke="none" stroke-width="0" fill="#f8f9fa"></path><path d="M18.13 0 C65.64 0, 113.15 0, 160.63 0 M18.13 0 C47.37 0, 76.61 0, 160.63 0 M160.63 0 C172.71 0, 178.75 6.04, 178.75 18.13 M160.63 0 C172.71 0, 178.75 6.04, 178.75 18.13 M178.75 18.13 C178.75 26.85, 178.75 35.57, 178.75 54.38 M178.75 18.13 C178.75 30.08, 178.75 42.03, 178.75 54.38 M178.75 54.38 C178.75 66.46, 172.71 72.5, 160.63 72.5 M178.75 54.38 C178.75 66.46, 172.71 72.5, 160.63 72.5 M160.63 72.5 C130.48 72.5, 100.34 72.5, 18.13 72.5 M160.63 72.5 C122.87 72.5, 85.11 72.5, 18.13 72.5 M18.13 72.5 C6.04 72.5, 0 66.46, 0 54.38 M18.13 72.5 C6.04 72.5, 0 66.46, 0 54.38 M0 54.38 C0 44.1, 0 33.83, 0 18.13 M0 54.38 C0 42.5, 0 30.62, 0 18.13 M0 18.13 C0 6.04, 6.04 0, 18.13 0 M0 18.13 C0 6.04, 6.04 0, 18.13 0" stroke="#000000" stroke-width="1" fill="none"></path></g><g transform="translate(501.35009002685547 317.875) rotate(0 77.89990997314453 12.5)"><text x="77.89990997314453" y="0" font-family="Virgil, Segoe UI Emoji" font-size="20px" fill="#000000" text-anchor="middle" style="white-space: pre;" direction="ltr" dominant-baseline="text-before-edge">transformations</text></g><g stroke-linecap="round" transform="translate(10 260.625) rotate(0 56.875 67.5)"><path d="M0 0 L113.75 0 L113.75 135 L0 135" stroke="none" stroke-width="0" fill="#e7f5ff"></path><path d="M0 0 C26.57 0, 53.13 0, 113.75 0 M0 0 C30.04 0, 60.09 0, 113.75 0 M113.75 0 C113.75 39.07, 113.75 78.14, 113.75 135 M113.75 0 C113.75 32.7, 113.75 65.41, 113.75 135 M113.75 135 C86.47 135, 59.2 135, 0 135 M113.75 135 C76.77 135, 39.79 135, 0 135 M0 135 C0 106.72, 0 78.44, 0 0 M0 135 C0 94.35, 0 53.7, 0 0" stroke="#000000" stroke-width="1" fill="none"></path></g><g transform="translate(31.275039672851562 303.125) rotate(0 35.59996032714844 25)"><text x="35.59996032714844" y="0" font-family="Virgil, Segoe UI Emoji" font-size="20px" fill="#000000" text-anchor="middle" style="white-space: pre;" direction="ltr" dominant-baseline="text-before-edge">Kafka </text><text x="35.59996032714844" y="25" font-family="Virgil, Segoe UI Emoji" font-size="20px" fill="#000000" text-anchor="middle" style="white-space: pre;" direction="ltr" dominant-baseline="text-before-edge">Cluster</text></g><g transform="translate(828.3400726318359 411.125) rotate(0 71.65992736816406 12.5)"><text x="71.65992736816406" y="0" font-family="Virgil, Segoe UI Emoji" font-size="20px" fill="#000000" text-anchor="middle" style="white-space: pre;" direction="ltr" dominant-baseline="text-before-edge">Kafka Connect</text></g><g stroke-linecap="round"><g transform="translate(131.74675750770803 325.9866872433847) rotate(0 31.251621246146044 0.04494771608449355)"><path d="M0 0 C13.48 0.02, 26.95 0.04, 62.5 0.09 M0 0 C12.77 0.02, 25.55 0.04, 62.5 0.09" stroke="#000000" stroke-width="1" fill="none"></path></g><g transform="translate(131.74675750770803 325.9866872433847) rotate(0 31.251621246146044 0.04494771608449355)"><path d="M62.5 0.09 L48.9 6.41 L48.92 -6.27 L62.5 0.09" stroke="none" stroke-width="0" fill="#000000" fill-rule="evenodd"></path><path d="M62.5 0.09 C59.57 1.45, 56.64 2.81, 48.9 6.41 M62.5 0.09 C59.72 1.38, 56.94 2.67, 48.9 6.41 M48.9 6.41 C48.9 2.69, 48.91 -1.03, 48.92 -6.27 M48.9 6.41 C48.9 3.47, 48.91 0.54, 48.92 -6.27 M48.92 -6.27 C53.76 -4, 58.6 -1.74, 62.5 0.09 M48.92 -6.27 C53.59 -4.08, 58.26 -1.9, 62.5 0.09 M62.5 0.09 C62.5 0.09, 62.5 0.09, 62.5 0.09 M62.5 0.09 C62.5 0.09, 62.5 0.09, 62.5 0.09" stroke="#000000" stroke-width="1" fill="none"></path></g></g><mask></mask><g stroke-linecap="round"><g transform="translate(409.25 334.375) rotate(0 40 0)"><path d="M0 0 C21.97 0, 43.94 0, 80 0 M0 0 C26.62 0, 53.25 0, 80 0" stroke="#000000" stroke-width="1" fill="none"></path></g><g transform="translate(409.25 334.375) rotate(0 40 0)"><path d="M80 0 L66.41 6.34 L66.41 -6.34 L80 0" stroke="none" stroke-width="0" fill="#000000" fill-rule="evenodd"></path><path d="M80 0 C76.27 1.74, 72.53 3.48, 66.41 6.34 M80 0 C75.48 2.11, 70.95 4.22, 66.41 6.34 M66.41 6.34 C66.41 1.76, 66.41 -2.81, 66.41 -6.34 M66.41 6.34 C66.41 2.38, 66.41 -1.58, 66.41 -6.34 M66.41 -6.34 C69.57 -4.86, 72.73 -3.39, 80 0 M66.41 -6.34 C69.39 -4.95, 72.38 -3.55, 80 0 M80 0 C80 0, 80 0, 80 0 M80 0 C80 0, 80 0, 80 0" stroke="#000000" stroke-width="1" fill="none"></path></g></g><mask></mask><g stroke-linecap="round"><g transform="translate(673 334.375) rotate(0 45 -0.625)"><path d="M0 0 C19.75 -0.27, 39.51 -0.55, 90 -1.25 M0 0 C27.19 -0.38, 54.38 -0.76, 90 -1.25" stroke="#000000" stroke-width="1" fill="none"></path></g><g transform="translate(673 334.375) rotate(0 45 -0.625)"><path d="M90 -1.25 L76.49 5.28 L76.32 -7.4 L90 -1.25" stroke="none" stroke-width="0" fill="#000000" fill-rule="evenodd"></path><path d="M90 -1.25 C87.04 0.18, 84.07 1.62, 76.49 5.28 M90 -1.25 C85.92 0.72, 81.84 2.69, 76.49 5.28 M76.49 5.28 C76.43 0.46, 76.36 -4.35, 76.32 -7.4 M76.49 5.28 C76.45 2.14, 76.41 -1, 76.32 -7.4 M76.32 -7.4 C79.21 -6.1, 82.11 -4.8, 90 -1.25 M76.32 -7.4 C79.94 -5.77, 83.57 -4.14, 90 -1.25 M90 -1.25 C90 -1.25, 90 -1.25, 90 -1.25 M90 -1.25 C90 -1.25, 90 -1.25, 90 -1.25" stroke="#000000" stroke-width="1" fill="none"></path></g></g><mask></mask><g stroke-linecap="round"><g transform="translate(983.0141229864489 333.75) rotate(0 41.25 0)"><path d="M0 0 C18.51 0, 37.02 0, 82.5 0 M0 0 C29.45 0, 58.89 0, 82.5 0" stroke="#000000" stroke-width="1" fill="none"></path></g><g transform="translate(983.0141229864489 333.75) rotate(0 41.25 0)"><path d="M82.5 0 L68.91 6.34 L68.91 -6.34 L82.5 0" stroke="none" stroke-width="0" fill="#000000" fill-rule="evenodd"></path><path d="M82.5 0 C79.45 1.42, 76.4 2.84, 68.91 6.34 M82.5 0 C77.65 2.26, 72.8 4.53, 68.91 6.34 M68.91 6.34 C68.91 3.53, 68.91 0.71, 68.91 -6.34 M68.91 6.34 C68.91 2.59, 68.91 -1.15, 68.91 -6.34 M68.91 -6.34 C71.85 -4.97, 74.79 -3.6, 82.5 0 M68.91 -6.34 C72.97 -4.44, 77.04 -2.55, 82.5 0 M82.5 0 C82.5 0, 82.5 0, 82.5 0 M82.5 0 C82.5 0, 82.5 0, 82.5 0" stroke="#000000" stroke-width="1" fill="none"></path></g></g><mask></mask></svg>